<svg xmlns="http://www.w3.org/2000/svg" fill="none" viewBox="0 0 390 260"><path fill="#fff" d="M0 0h390v260H0z"/><path fill="#fff" d="M64.67 14.25h231.49v231.5H64.66z"/><path fill="#FFF4BC" d="M112.04 120c2.91-1.2 5.65-2.78 8.4-4.31 4.42-2.48 8.92-4.8 13.42-7.09 6.34-3.23 12.65-6.5 18.89-9.95 1.67-.92 3.31-1.94 5-2.84 5.21-2.76 10.4-5.52 15.66-8.19 3.17-1.61 6.32-3.27 9.42-5.02 5.48-3.1 10.99-6.16 16.47-9.24.47-.25.92-.58 1.33-.94.17-.18.21-.48.34-.76-.04-1.07-.04-2.17-.51-3.18-.1-.18-.46-.3-.7-.28-.55.04-1.02.36-1.47.66a99.46 99.46 0 0 1-9.9 5.84c-2.28 1.2-4.6 2.41-6.9 3.58-4.78 2.39-9.45 4.95-14.06 7.66-1.3.76-2.6 1.51-3.94 2.22a912.97 912.97 0 0 0-29.74 16.63 303.15 303.15 0 0 1-18.54 9.74c-1.35.64-2.7 1.31-4.05 2-.23.13-.47.3-.64.5-.15.19-.3.49-.28.73.04.7.34 1.31.77 1.87.3.37.69.52 1.05.37h-.02ZM215.68 104.77c-4.37 2.28-8.74 4.59-13.08 6.9l-1.1.55a270.94 270.94 0 0 0-23.79 13.01 1395.57 1395.57 0 0 1-30.43 17.99c-3.31 1.91-6.68 3.77-10 5.7-2.71 1.6-5.5 3.06-8.3 4.53a12.1 12.1 0 0 1-4.65 1.55c-.69.04-1.33.28-2 .45-.8.2-1.62.26-2.43.15-2.32-.28-4.63-.39-6.96-.52-2.6-.13-5.18-.47-7.73-.99-2.7-.56-5.4-.94-8.12-1.14-2.89-.2-5.7-.73-8.46-1.53-2.1-.6-4.21-1.16-6.33-1.72-.09-.02-.26.1-.35.2a.63.63 0 0 0-.21.7c.21.5.5 1 .8 1.45.5.82 1.19 1.48 2.05 1.96 1.32.7 2.67 1.4 3.79 2.43.28.26.7.39 1.09.52.64.21 1.3.43 1.97.54 2.7.47 5.37 1.07 8.11 1.18.82.02 1.63.17 2.45.24 3.12.32 6.27.58 9.42.62 1.77 0 3.55.02 5.33 0 1.78-.04 3.55-.2 5.31-.5 1.22-.2 2.42-.38 3.64-.62.54-.1 1.07-.23 1.56-.45a59.36 59.36 0 0 0 3.3-1.66c1.1-.58 2.14-1.23 3.21-1.83 6.26-3.4 12.53-6.78 18.72-10.32 2.61-1.48 5.27-2.93 7.9-4.39 6.36-3.51 12.74-6.98 19.06-10.55a345.03 345.03 0 0 1 21.88-11.36c1.48-.7 2.96-1.46 4.4-2.24 3.38-1.83 6.78-3.6 10.2-5.27 1.48-.73 2.92-1.51 4.38-2.3 5.52-3.02 11.04-6.08 16.57-9.08 3.13-1.7 6.34-3.25 9.46-4.97 6.47-3.6 13.04-7 19.58-10.47 2.65-1.42 5.35-2.78 8.02-4.16 1.59-.81 3.15-1.65 4.72-2.5.47-.25.94-.55 1.37-.88.45-.32.79-.75 1.03-1.27.55-1.25 1-2.56 1.28-3.9.06-.32.04-.6-.24-.7-.23-.1-.53-.16-.77-.07-.51.17-1 .43-1.47.69-4.33 2.39-8.85 4.35-13.43 6.2-2.3.93-4.54 1.92-6.7 3.12-2.04 1.14-4.07 2.26-6.1 3.43-7.72 4.43-15.4 8.96-23.3 13.07-1.7.89-3.37 1.85-5.04 2.78-3.23 1.81-6.38 3.75-9.65 5.47l.04-.04ZM207.11 68.43l-2.65-.15c-.28 0-.69.6-.64.93.08.54.32 1.03.6 1.5.62 1 1.5 1.58 2.63 1.75.53.09 1.07.17 1.63.2.94.06 1.92-.07 2.84.14 1.31.28 2.4.05 3.52-.62.81-.47 1.69-.86 2.52-1.34.47-.25.93-.58 1.35-.9.58-.45.8-1.08.71-1.8-.06-.7-.17-1.39-.64-1.93-.15-.17-.52-.38-.69-.32-.64.2-1.26.5-1.88.78a18.51 18.51 0 0 1-9.32 1.76h.02ZM270.93 69.64c.72.36 1.56.5 2.35.73.56-.13 1.1-.17 1.6-.37a24.45 24.45 0 0 0 3.73-1.74c.26-.15.37-.41.37-.67 0-.3-.15-.52-.47-.58a23.84 23.84 0 0 1-8.03-3 1.72 1.72 0 0 0-.78-.25c-.23 0-.55.1-.7.28a5.05 5.05 0 0 0-1.2 2.58c-.04.3.04.54.24.76a8.98 8.98 0 0 0 2.93 2.22l-.04.04Z"/><path fill="#FFC629" d="M82.77 146.36c.51.2 1.03.37 1.54.54 4 1.42 8.14 2.33 12.27 3.25 2.4.54 4.82.97 7.28 1.08.81.04 1.63.2 2.44.26 1.22.1 2.44.23 3.68.26 2.6.04 5.19.17 7.78.45 1.09.13 2.18.15 3.17.21 1.45-.1 2.82-.23 4.17-.34a4.36 4.36 0 0 0 2.25-.88c2.31-1.7 4.65-3.39 6.66-5.47.86-.89 1.82-1.66 2.76-2.46.62-.52 1.3-1 1.95-1.49.43-.32.64-.82.5-1.05a.9.9 0 0 0-.6-.43 60.49 60.49 0 0 0-8.06-1.53 87.11 87.11 0 0 1-8.46-1.55c-1.86-.41-3.68-1.08-5.6-1.17-.9-.04-1.5-.66-1.89-1.42-.56-1.1-1.03-2.24-1.52-3.38-.9-2.15-1.8-4.3-2.68-6.46-1.71-4.2-3.8-8.2-6.02-12.17-.12-.24-.32-.43-.49-.65-.23-.34-.81-.36-1-.04-.28.47-.6.9-.86 1.4-1.24 2.46-2.46 4.91-3.68 7.37a32.3 32.3 0 0 0-2.23 5.75 81.38 81.38 0 0 1-2.57 7.38c-.21.52-.7.84-1.24 1-1.2.34-2.44.36-3.66.4-3.96.16-7.88.78-11.84 1.06-.97.06-1.89.3-2.77.69-.3.13-.49.73-.25 1.01.51.63 1 1.32 1.58 1.88 1.97 1.91 3.96 3.79 5.95 5.66.41.39.88.65 1.4.84h.04ZM104.55 165.92c.23.13.49.28.66.47 4.05 4.35 8.7 8 13.32 11.66.75.6 1.56 1.11 2.35 1.63.22.15.5.22.75.32.32.13.88-.17.99-.49.34-1.08.3-2.18.25-3.27-.15-4.27-.55-8.51-1.09-12.76 0-.13-.08-.25-.1-.4-.09-.33-.56-.76-.88-.76l-8.61.2c-1.37.02-2.74-.07-4.09-.26-2.98-.41-5.97-.76-9.14-1.17-2.85 0-5.8-.66-8.78-1.14-.67-.1-1.3-.45-2.02-.36-.25.02-.53.17-.7.34-.2.2-.3.45-.39.71a38.46 38.46 0 0 0-1.45 5.17c-.52 2.56-.9 5.15-1.52 7.69-.13.54-.18 1.1-.05 1.64.07.3.28.5.54.51.25.03.55.05.81-.04a45.85 45.85 0 0 0 9.96-4.85c2.65-1.67 5.33-3.35 8.03-5 .34-.2.8-.1 1.18.12l-.02.04ZM248.49 125.88c-.03-.89.02-1.57-.26-2.24-.13-.33-.28-.45-.62-.37-.26.06-.5.17-.64.43-.07.1-.13.24-.15.37-.41 1.87-.69 3.77-.82 5.68v.41c.04.35.22.52.43.5a.8.8 0 0 0 .39-.1c.83-.61 1.17-1.52 1.37-2.46.15-.8.19-1.64.28-2.24l.02.02Z"/><path fill="#343333" d="M219.3 182.8v-8.68c0-.69 0-1.37-.05-2.06-.17-3.17-.32-6.34-.5-9.48-.05-.69-.12-1.38-.27-2.05a27 27 0 0 1-.6-4.9c-.1-2.63-.62-5.2-1.02-7.78-.11-.7-.3-1.36-.39-2.03-.3-2.73-.7-5.47-.83-8.2a74.4 74.4 0 0 0-1.12-9c-.25-1.5-.51-3-.81-4.47a49.42 49.42 0 0 0-1.86-6.76c-.05-.13-.15-.24-.2-.37-.23-.53-1.18-.92-1.75-.7-.26.1-.54.14-.77.27-1.1.58-2.17 1.21-3.24 1.81a106.42 106.42 0 0 1-9.89 5 40.8 40.8 0 0 0-5.1 2.65 77.57 77.57 0 0 1-8.33 4.46c-3.47 1.64-6.9 3.36-10.25 5.21-2.4 1.31-4.84 2.59-7.26 3.88-5.44 2.9-10.8 5.99-16.1 9.1-5.32 3.13-10.71 6.15-16.04 9.23-2.62 1.5-5.36 2.75-8.08 4.07-.3.15-.58.69-.55 1.03 0 .13-.05.28-.03.41.6 3.53.88 7.1 1.29 10.66.3 2.6.36 5.22.32 7.84 0 .28-.09.54-.13.82-.08.41-.32.76-.62 1.06-.4.4-.92.6-1.5.43a13.33 13.33 0 0 1-4.37-2.22c-2.37-1.87-4.8-3.66-7.17-5.54a68.97 68.97 0 0 1-7.36-6.59c-1.05-1.1-1.63-.73-2.55-.25-.5.25-.95.53-1.42.84L98 172.25c-.92.58-1.84 1.2-2.78 1.77a34.56 34.56 0 0 1-11.87 4.41c-.25.05-.53.02-.81.02-.45 0-.77-.25-1.03-.58a3.3 3.3 0 0 1-.66-1.91c0-.54 0-1.1.08-1.64.22-1.92.45-3.83.69-5.75.24-1.92.73-3.77 1.33-5.62.55-1.7 1.3-3.34 1.54-5.13.02-.24-.1-.52-.22-.78a.7.7 0 0 0-.27-.28c-2.34-1.46-3.56-3.74-4.67-6.13a5.2 5.2 0 0 1-.39-2.44c.02-.75-.3-1.31-.81-1.8-.6-.59-1.2-1.15-1.8-1.7l-2.4-2.25a39.95 39.95 0 0 1-4.1-4.6c-.18-.22-.29-.48-.42-.72-.27-.54.03-1.57.56-1.79.51-.21 1-.45 1.54-.56 2.68-.51 5.38-1.05 8.12-1.29 2.72-.24 5.44-.62 8.18-.8l3.68-.23c.5-.02.73-.41.88-.76.28-.62.47-1.29.66-1.96 2.27-8.07 1.63-6.29 5.06-13.48 1.07-2.24 2.12-4.46 3.23-6.68.24-.5.58-.92.92-1.35a1.64 1.64 0 0 1 2.5.02c.26.32.56.62.76.97.77 1.31 1.5 2.62 2.24 3.94.2.34.45.69.67 1.03.17.28.79.41 1.11.26 2.6-1.27 5.18-2.52 7.75-3.81 2.44-1.23 4.93-2.44 7.3-3.77 5.04-2.8 10.03-5.67 15-8.57 4.38-2.55 8.82-5 13.31-7.35 7.9-4.1 15.74-8.34 23.54-12.66 2.87-1.6 5.8-3.08 8.73-4.61 3.28-1.7 6.56-3.45 9.68-5.43 1.29-.82 2.66-1.42 4.03-2.03.83-.36 1.15-1 1.05-2 0-.13-.02-.28-.05-.4 0-.14 0-.29-.04-.42-.73-3.38-.8-6.83-1.22-10.25-.26-2.05-.04-4.14.04-6.18.03-.7.54-1.27 1.1-1.68.55-.39 1.2-.67 1.88-.76.54-.06 1.1-.13 1.63-.13 1.5-.02 3.02 0 4.52-.04 1.8-.04 3.53.28 5.24.86a9.25 9.25 0 0 1 3.8 2.4c.57.6 1.02 1.26 1.23 2.1.39 1.62.84 3.2 1.25 4.8.17.68.3 1.34.4 2.03.43 2.44.69 4.91 1.29 7.33l1.73 6.78c1.12 4.27 2.08 8.55 2.8 12.9.46 2.72 1.03 5.4 1.72 8.08.22.8.54 1.55.81 2.33.11.32.33.38.67.3a5.1 5.1 0 0 0 1.52-.6c4.41-2.5 8.84-4.96 13.25-7.46 5.12-2.9 10.2-5.92 15.4-8.7.6-.32 1.2-.67 1.78-1.06a3.82 3.82 0 0 0 1.56-1.87c.62-1.68 1.24-3.36 1.84-5.04.28-.77.58-1.55.8-2.35.27-1.07.72-2.07 1.17-3.08.52-1.12 1.03-2.26 1.59-3.36 1.24-2.45 2.3-4.97 3.36-7.54.83-2.02 1.86-3.98 2.82-5.94a3.9 3.9 0 0 1 2.1-1.87c1.42-.59 2.87-.91 4.42-.84 1.5.06 3.01.1 4.51.19.54.02 1.1.15 1.63.26a5.79 5.79 0 0 1 3.86 2.84c.74 1.2 1.02 2.54 1.24 3.9.04.26 0 .56-.07.82-.17.82-.4 1.6-.73 2.37-.7 1.78-1.37 3.6-2 5.4-.65 1.81-1.27 3.64-2.1 5.39a12.25 12.25 0 0 0-1.25 4.33c-.13 1.38-.66 2.67-1.15 3.94-.3.75-.71 1.49-1.29 2.11-.28.3-.54.62-.83.9-1.25 1.15-2 2.59-2.68 4.12a762.73 762.73 0 0 1-8.97 19.5c-2.38 4.95-4.48 10.05-6.94 14.96-1.12 2.82-2.25 5.62-3.32 8.45a20.52 20.52 0 0 0-.9 3.16c-.37 1.9-.66 3.8-.92 5.7-.7 5.48-1.16 10.97-1.59 16.44-.12 1.64-.15 3.3-.21 4.96-.1 3.72-.17 7.43-.26 11.15 0 .82-.04 1.66-.08 2.48-.28 5.65-.47 11.29-.2 16.93.2 3.86.43 7.7.71 11.55.2 2.47.15 4.95-.04 7.43-.2 2.52-.15 2.93-2.5 4.89-.95.8-1.91 1.57-2.92 2.28a22.96 22.96 0 0 1-9 3.85 35.88 35.88 0 0 1-10.61.67 18.38 18.38 0 0 1-10.09-4.22 3.49 3.49 0 0 1-1.28-2.5c-.11-1.38-.3-2.73-.41-4.11-.1-1.5-.24-3.02-.26-4.55l-.3-17.36h-.06v.03Zm-75.36-40.51c3.8-2.22 7.6-4.35 11.29-6.74a144.6 144.6 0 0 1 11.71-6.83c3.88-2.05 7.69-4.2 11.44-6.5 2.8-1.73 5.67-3.34 8.56-4.92 4.33-2.34 8.72-4.6 13.09-6.91l6.91-3.62c.47-.26.94-.56 1.4-.86.2-.13.49-.84.44-1.1-.3-1.48-.79-2.9-1.24-4.35-1.58-4.97-3.15-9.97-4.07-15.12-.43-2.43-.88-4.87-1.3-7.3a6.11 6.11 0 0 0-.6-1.96.73.73 0 0 0-.64-.39c-.56.02-1.05.28-1.55.54-3.25 1.77-6.53 3.49-9.74 5.3a389.7 389.7 0 0 1-15.93 8.55 723.99 723.99 0 0 0-22.5 11.91c-5.64 3.1-11.36 6.07-17.03 9.11-3.75 2-7.5 3.99-11.2 6.05a262.53 262.53 0 0 1-6.85 3.73c-.73.39-1.48.73-2.2 1.1l-.74.39c-.36.19-.62 1-.42 1.48 1.11 2.8 2.25 5.62 3.38 8.42.04.13.13.24.21.37.3.5.73.82 1.29.95.8.2 1.6.36 2.4.56 3.72.88 7.47 1.66 11.28 2.1a56.1 56.1 0 0 1 9.2 1.99c.52.15 1.04.39 1.55.58 1.22.5 1.54 2.13.62 3.08-.2.2-5.89 4.83-6.06 5.02 0 0 6.73-4.26 7.35-4.63h-.05Zm91.2 70.67c1.63.17 3.77-.37 5.94-.67 2.89-.4 5.54-1.5 7.96-3.12 1.24-.84 2.4-1.83 3.6-2.74a3.7 3.7 0 0 0 1.52-3.2c-.02-.7.06-1.38.06-2.07 0-3.45-.17-6.9-.47-10.32-.45-5.24-.4-10.47-.08-15.68.19-3.3.28-6.6.34-9.9.09-6.21.02-12.4.75-18.58.15-3.72.47-7.4.94-11.11.24-1.77.47-3.55.75-5.32.5-3.14 1.4-6.16 2.63-9.09.5-1.14 1.05-2.26 1.42-3.42.6-1.99 1.43-3.88 2.22-5.78 2.32-5.6 4.89-11.07 7.52-16.52 1.93-3.96 3.75-7.97 5.61-11.95.17-.37.39-.73.36-1.17a.8.8 0 0 0-.1-.36c-.13-.32-.37-.39-.69-.26-2.55 1.01-4.9 2.41-7.28 3.77-.34.2-.64.54-.81.88-.37.73-.62 1.53-.92 2.29a51.7 51.7 0 0 1-3.15 6.72 21.86 21.86 0 0 1-3.7 4.9.49.49 0 0 1-.39.11c-.34-.06-.43-.25-.28-.56.24-.5.45-.99.7-1.48 1.44-2.82 2.9-5.62 4.36-8.42.19-.37.36-.76.53-1.12a.9.9 0 0 0 0-.78c-.15-.28-.36-.34-.69-.2-.72.37-1.47.72-2.2 1.1-1.2.65-2.55 1.08-3.53 2.07-.77.78-1.37 1.7-2.06 2.57l-.77.97a43.77 43.77 0 0 0-5.16 7.92 46.32 46.32 0 0 1-6.51 9.5 22.36 22.36 0 0 1-6.57 5.54 8.47 8.47 0 0 1-5.9 1.29c-.12 0-.25-.09-.38-.15a.6.6 0 0 1-.26-.26c-.1-.3-.04-.58.22-.73 1.05-.65 2.33-.73 3.42-1.34.37-.2.71-.4 1.05-.64.35-.22.35-.76-.04-1a8.57 8.57 0 0 1-3.02-3.29c-.58-1.1-1.22-2.15-1.82-3.23-.21-.37-.45-.7-.66-1.03-.24-.35-.75-.56-1.05-.41-4.7 2.26-9.15 4.97-13.66 7.56-.39.21-.69 1.03-.56 1.44.34 1.05.68 2.09.98 3.14.88 2.91 1.48 5.86 2.15 8.84a53.21 53.21 0 0 1 1.2 8.98l.12 3.3c.09 1.9.28 3.83.63 5.74.66 3.94 1.3 7.89 1.37 11.9 0 .68.12 1.37.2 2.04.37 2.73.78 5.45 1.1 8.18.51 4.25.7 8.51.75 12.78.04 6.46.09 12.94.15 19.4.02 2.35.1 4.68.2 7.02 0 .54.08 1.1.14 1.64.09.56.35 1.06.8 1.4.32.26.66.48 1.02.67 2.98 1.6 6.15 2.26 10.09 2.22l-.09.02Zm-114.21-60.53c1.45-.1 2.82-.23 4.17-.34a4.36 4.36 0 0 0 2.25-.88c2.31-1.7 4.65-3.39 6.66-5.47.86-.89 1.82-1.66 2.76-2.46.62-.52 1.3-.99 1.95-1.49.43-.32.64-.81.5-1.05a.91.91 0 0 0-.6-.43 60.32 60.32 0 0 0-8.06-1.53 87.17 87.17 0 0 1-8.46-1.55c-1.86-.41-3.68-1.08-5.6-1.16-.9-.05-1.5-.67-1.9-1.43-.55-1.1-1.02-2.24-1.51-3.38-.9-2.15-1.8-4.3-2.68-6.46a112.7 112.7 0 0 0-6.02-12.17c-.13-.24-.32-.43-.49-.65-.23-.34-.81-.36-1-.04-.28.48-.6.9-.86 1.4l-3.69 7.37a32.22 32.22 0 0 0-2.22 5.75 81.25 81.25 0 0 1-2.57 7.39c-.22.51-.7.84-1.24.99-1.2.34-2.44.36-3.67.4-3.96.16-7.88.78-11.84 1.06-.96.07-1.88.3-2.76.7-.3.12-.5.72-.26 1 .52.63 1.01 1.32 1.59 1.88 1.97 1.91 3.96 3.79 5.95 5.66.4.39.88.65 1.4.84.5.2 1.02.37 1.53.54 4 1.42 8.14 2.33 12.27 3.25 2.4.54 4.82.97 7.28 1.08.82.04 1.63.2 2.45.26 1.22.1 2.44.24 3.68.26 2.6.04 5.18.17 7.77.45 1.1.13 2.19.15 3.17.22h.05Zm-9.53 7.11c1.77 0 3.55.02 5.33 0 1.77-.04 3.55-.2 5.3-.5 1.23-.2 2.43-.38 3.65-.62.53-.1 1.07-.23 1.56-.45a59.36 59.36 0 0 0 3.3-1.66c1.1-.58 2.14-1.23 3.21-1.83 6.25-3.4 12.53-6.78 18.72-10.32 2.6-1.48 5.26-2.93 7.9-4.39 6.36-3.51 12.74-6.98 19.06-10.55a345.03 345.03 0 0 1 21.88-11.36c1.48-.7 2.96-1.46 4.39-2.24 3.38-1.83 6.79-3.6 10.21-5.27 1.48-.73 2.92-1.51 4.37-2.3 5.53-3.02 11.05-6.08 16.6-9.08 3.13-1.7 6.34-3.25 9.46-4.97 6.47-3.6 13.04-7 19.58-10.47 2.65-1.42 5.35-2.78 8.02-4.16 1.59-.81 3.15-1.65 4.72-2.5.47-.25.94-.55 1.37-.88.45-.32.79-.75 1.02-1.27.56-1.25 1.01-2.56 1.29-3.9.06-.32.04-.6-.24-.7-.23-.1-.53-.16-.77-.07-.51.17-1 .43-1.47.69a122.4 122.4 0 0 1-13.43 6.2c-2.3.93-4.54 1.92-6.7 3.12-2.04 1.14-4.07 2.26-6.1 3.43-7.72 4.44-15.4 8.96-23.3 13.07-1.7.89-3.37 1.85-5.04 2.8-3.23 1.81-6.38 3.75-9.65 5.47-4.37 2.29-8.74 4.6-13.09 6.9-.36.19-.73.36-1.09.56a271.07 271.07 0 0 0-23.79 13 1393.9 1393.9 0 0 1-30.43 18c-3.32 1.9-6.68 3.76-10 5.7-2.72 1.6-5.5 3.06-8.3 4.52a12.13 12.13 0 0 1-4.65 1.55c-.69.05-1.33.28-2 .45a6.7 6.7 0 0 1-2.44.16c-2.3-.28-4.62-.4-6.95-.52a52.1 52.1 0 0 1-7.74-1c-2.7-.55-5.4-.94-8.11-1.13-2.9-.2-5.7-.74-8.46-1.53-2.1-.6-4.22-1.17-6.34-1.73-.08-.02-.25.11-.34.2a.63.63 0 0 0-.21.7c.2.5.49 1 .79 1.45.51.82 1.2 1.49 2.05 1.96 1.33.71 2.68 1.4 3.8 2.44.27.25.7.38 1.09.51.64.22 1.3.43 1.97.54 2.7.47 5.37 1.08 8.11 1.19.81.02 1.63.17 2.44.23 3.13.33 6.28.58 9.42.63l.03-.07Zm95.5-85.03-1.24-.18c-.32-.04-.73.41-.77.78-.09.84.06 1.66.23 2.45.73 3.21 1.37 6.44 1.97 9.7.3 1.63.69 3.23 1.12 4.8.83 3.19 1.73 6.35 2.6 9.52.16.54.35 1.03.52 1.57.2.58.75.84 1.26.6 1.5-.66 2.96-1.44 4.3-2.36.35-.24.55-.63.52-1.06-.02-.4-.1-.82-.17-1.2-.06-.41-.13-.82-.15-1.23-.02-.41.04-.84.37-1.12.15-.13.79.34.96.62.34.6.34 1.34.77 1.9.17.21.45.4.7.3 1.91-.78 3.67-1.81 5.25-3.12.33-.26.43-.67.39-1.12-.1-1.53-.66-2.95-.94-4.42-.54-2.97-1.12-5.94-1.6-8.92-.5-3-1.25-5.9-2.02-8.83-.1-.39-.34-.73-.56-1.1-.17-.28-.4-.36-.68-.25-1.29.5-2.42 1.22-3.62 1.9-.37.18-.65 1.02-.5 1.46l.65 1.93 1.37 3.88c.13.39.17.8.21 1.2 0 .14-.06.27-.13.37-.13.24-.36.24-.58-.06a24.05 24.05 0 0 1-2.54-5.6c-.2-.52-.43-1.01-.65-1.5-.19-.44-.6-.61-.98-.61-.81-.02-1.63.06-2.46.06-1.1 0-2.19 0-3.62-.39l.02.03Zm-5.97-2.85c-.05-1.07-.05-2.17-.52-3.18-.08-.18-.45-.3-.68-.28-.56.04-1.03.36-1.48.66a99.33 99.33 0 0 1-9.9 5.84c-2.29 1.2-4.6 2.41-6.93 3.58-4.78 2.39-9.45 4.95-14.05 7.66-1.3.76-2.61 1.51-3.94 2.22a913.16 913.16 0 0 0-29.74 16.63 301.78 301.78 0 0 1-18.54 9.74c-1.36.64-2.7 1.31-4.05 2-.24.13-.47.3-.65.5-.15.19-.3.49-.28.73.05.7.35 1.31.78 1.87.3.37.68.52 1.05.37 2.9-1.2 5.65-2.78 8.39-4.31 4.43-2.48 8.93-4.8 13.43-7.09 6.33-3.23 12.65-6.5 18.88-9.95 1.67-.92 3.32-1.94 5.01-2.84 5.2-2.76 10.39-5.52 15.66-8.19a263.6 263.6 0 0 0 9.42-5.02c5.48-3.1 10.98-6.16 16.47-9.24.47-.25.92-.58 1.32-.94.17-.18.22-.48.34-.76Zm-102 89.46c-2.84 0-5.8-.67-8.78-1.15-.66-.1-1.3-.45-2-.36-.27.02-.54.17-.72.34-.19.2-.3.45-.38.71a38.5 38.5 0 0 0-1.46 5.17c-.51 2.56-.9 5.15-1.52 7.7-.13.53-.17 1.09-.04 1.63.06.3.28.5.53.52.26.02.56.04.82-.05a45.8 45.8 0 0 0 9.96-4.84c2.65-1.68 5.33-3.36 8.03-5 .34-.22.79-.1 1.17.1.24.14.5.29.67.48 4.04 4.35 8.7 8 13.32 11.65.75.6 1.56 1.12 2.35 1.64.22.15.5.22.75.32.32.13.88-.17.99-.5.34-1.07.3-2.17.25-3.27-.15-4.26-.55-8.5-1.09-12.75 0-.13-.08-.26-.1-.4-.1-.33-.56-.76-.88-.76l-8.61.2c-1.37.01-2.74-.07-4.1-.26-2.97-.41-5.97-.76-9.14-1.17l-.02.05ZM218.1 60.25h-.07V58.6a5.29 5.29 0 0 0-.4-1.98c-.39-1.01-.69-2.07-1.03-3.1l-.5-1.58c-.08-.3-.68-.66-.96-.62-4.45.86-8.9.9-13.34-.13-.13-.02-.3-.06-.4 0-.22.15-.52.3-.56.52-.22.82-.1 1.63.06 2.43.6 3.08 1.16 6.18 1.63 9.3.1.72.56 1.26 1.2 1.56.73.36 1.5.64 2.31.77 4.1.63 7.84-.32 11.27-2.58.49-.33.75-.8.79-1.36.06-.54 0-1.1 0-1.64v.05Zm64.43 5.53h.67c.49 0 1.07-.39 1.26-.86 1.07-2.97 2.16-5.92 3.21-8.9.09-.25.1-.53.17-.8.07-.31-.32-.9-.64-.9-.54 0-1.1-.02-1.63 0-3.3.15-6.55-.15-9.65-1.4-.13-.04-.28-.04-.41-.08-.47-.13-1.16.2-1.37.67a386.02 386.02 0 0 0-3.02 6.74c-.09.2.02.54.13.77.1.24.3.45.51.63a17.83 17.83 0 0 0 5.42 2.82c1.82.58 3.66 1.1 5.3 1.31h.05Zm-33.85 34.1c.42-.71.98-1.66 1.56-2.59.43-.68.98-1.3 1.22-2.1.02-.11-.04-.26-.1-.35-.07-.09-.24-.15-.33-.13-.38.1-.79.22-1.15.43-4.76 2.71-9.66 5.13-14.5 7.67-.86.45-1.7.9-2.53 1.36-.88.5-1.13 1.25-.68 2.04.88 1.55 1.75 3.1 2.65 4.65l.24.33c.81 1.12 1.95 1.42 3.25 1.31.56-.04 1.1-.24 1.5-.6a31.43 31.43 0 0 0 4.71-5.13c1.5-2.13 2.9-4.33 4.18-6.91l-.02.02ZM207.09 68.4l-2.65-.15c-.28 0-.69.6-.65.93.09.53.33 1.03.6 1.5.63 1 1.5 1.58 2.64 1.75.53.08 1.07.17 1.63.2.94.06 1.92-.07 2.84.14 1.31.28 2.4.05 3.51-.62.82-.48 1.7-.86 2.53-1.34.47-.26.92-.58 1.35-.9.58-.45.8-1.08.7-1.81-.06-.69-.16-1.38-.63-1.92-.16-.17-.52-.39-.69-.32-.64.2-1.26.5-1.88.77a18.51 18.51 0 0 1-9.32 1.77h.02Zm76.73-16.48c.81-.06 1.88-.13 2.97-.28a2.53 2.53 0 0 0 1.44-.7c.21-.2.28-.44.23-.74a2.94 2.94 0 0 0-1.32-1.98 6.46 6.46 0 0 0-3.4-1.27c-1.38-.11-2.75 0-4.1.2-.81.12-1.6.36-2.33.75a2.3 2.3 0 0 0-1.03 1.22c-.2.5.06 1.19.5 1.42 1.19.67 2.5 1.08 3.87 1.23.94.11 1.9.11 3.15.17l.02-.02Zm-10.56 18.42c.56-.13 1.1-.17 1.6-.37a24.45 24.45 0 0 0 3.73-1.74c.26-.15.37-.41.37-.67 0-.3-.15-.52-.48-.58a23.84 23.84 0 0 1-8.03-3 1.73 1.73 0 0 0-.77-.25c-.23 0-.55.1-.7.28a5.05 5.05 0 0 0-1.2 2.58c-.04.3.04.54.23.76a8.98 8.98 0 0 0 2.94 2.21c.73.37 1.56.5 2.35.74l-.04.04Zm-67.62-23.52c-1.37.02-2.6-.1-3.82.2-.3.08-.44.27-.49.57-.04.28-.02.54.2.76.49.5 1.1.8 1.8.9 1.62.24 3.25.5 4.88.65 1.09.1 2.18 0 3.27 0 .13 0 .28 0 .4-.07.4-.13.78-.28 1.14-.43.11-.04.24-.17.28-.3.07-.2-.04-.43-.32-.6a11.59 11.59 0 0 0-5.03-1.57c-.81-.09-1.63-.09-2.31-.11Zm60.85 26.84c.82-.26 1.84-.56 2.7-1.3.3-.25.28-.4 0-.66a3.89 3.89 0 0 0-1.8-.87c-.4-.1-.73.1-1.03.5-.42.54-.72 1.16-.62 1.87.05.33.28.48.75.46Z"/><path fill="#343333" d="M227.2 156.01c0 2.2 0 4.37.36 6.57.43 2.71.69 5.45.92 8.16.18 2.05.26 4.12.28 6.16.02 2.74 0 5.5-.08 8.23-.17 4.52-.24 9.05-.13 13.57 0 .24-.13.48-.22.69-.08.22-.51-.32-.75-.88a6.54 6.54 0 0 1-.49-1.98 58.07 58.07 0 0 1-.28-9.46c.26-4.52.28-9.05.18-13.57a56.74 56.74 0 0 0-.46-5.73c-.4-3.55-.47-7.1-.32-10.68 0-.28.07-.54.09-.82.06-.78.92-.67.92-.28l-.02.02ZM243.37 183.37c.06 3.16.1 6.33.23 9.47.07 1.64.34 3.28.5 4.94.04.53 0 1.1-.03 1.63 0 .13-.13.35-.15.35a3.01 3.01 0 0 1-.75-.24.7.7 0 0 1-.27-.28c-.41-.86-.78-1.77-.97-2.72a34.01 34.01 0 0 1-.7-11.48c.36-4.1.53-8.22.5-12.36 0-1.77-.12-3.57.29-5.32.02-.1.15-.2.21-.28.1.1.24.17.28.3.1.24.21.5.26.78.06.69.13 1.38.13 2.07 0 1.66.08 3.3.3 4.93a19 19 0 0 1 .12 2.48c.05 1.91.07 3.85.11 5.77h-.04l-.02-.04ZM247.88 172.1c.11-3.73.22-7.43.3-11.16.03-1.38-.04-2.75-.06-4.13 0-.33.17-.52.43-.48.28.05.43.28.47.58.06.54.2 1.08.21 1.64.07 1.1.11 2.2.11 3.3.04 3.16.09 6.33.02 9.5-.08 4.41-.06 8.8-.1 13.22 0 1.5.02 3.04-.35 4.5-.02.09-.15.2-.23.22-.13.02-.32.04-.39-.04-.17-.2-.36-.41-.4-.65-.1-.41-.1-.82-.1-1.23 0-5.1 0-10.19.03-15.3h.09l-.03.03ZM226.75 141.06c-.02.26-.02.39-.06.52-.09.3-.24.5-.48.56-.34.1-.53 0-.62-.37-.06-.26-.19-.51-.21-.8-.28-1.91-.56-3.8-.8-5.72-.16-1.51-.3-3.02-.42-4.53-.02-.28.2-.5.43-.58.34-.08.51.07.6.39.77 3.2 1.09 6.5 1.54 9.78.04.28 0 .56 0 .7l.02.05ZM248.48 125.88c-.06.6-.1 1.44-.27 2.24-.2.94-.54 1.85-1.38 2.45a.8.8 0 0 1-.38.11c-.24.02-.38-.15-.43-.5 0-.12-.02-.28 0-.4.13-1.92.4-3.82.81-5.7.03-.12.1-.25.16-.36.14-.25.38-.36.64-.43.34-.08.49.02.62.37.28.67.21 1.33.26 2.24l-.03-.02ZM233.47 154.35c0 1.57.03 2.24 0 2.93 0 .35-.21.5-.45.47-.3-.02-.49-.19-.62-.45-.06-.13-.13-.23-.17-.36a13.51 13.51 0 0 1-.36-4.44c.02-.24.21-.5.38-.69.13-.15.9.37.97.63.06.25.17.51.19.8.06.66.09 1.35.06 1.13v-.02ZM235.16 195.4c-.04 1.04 0 1.86-.34 2.61-.15.3-.32.43-.64.37-.24-.04-.43-.22-.45-.54-.1-1.2-.21-2.44-.28-3.64 0-.26.1-.52.17-.78.09-.36.3-.43.62-.28.39.18.67.44.73.87.09.53.15 1.07.2 1.37v.03ZM235.94 143.06c-.09.28-.18.67-.35 1.06-.1.28-.38.39-.64.43-.28.04-.5-.09-.56-.43a11.83 11.83 0 0 1-.04-3.68c.07-.37.26-.5.54-.39.13.04.25.09.34.17.1.09.2.22.24.32.36.76.44 1.58.44 2.55l.03-.03ZM242.85 153.9c0-.52.17-1.16.56-1.75.21-.32.77-.32 1 .1.13.2.26.49.26.75a4.2 4.2 0 0 1-.53 1.96c-.15.25-.37.36-.64.4-.4.05-.67-.3-.67-.84v-.58l.02-.04Z"/></svg>