<svg xmlns="http://www.w3.org/2000/svg" fill="none" viewBox="0 0 390 260"><path fill="#fff" d="M0 0h390v260H0z"/><path fill="#343333" d="M196.34 51.03v-4.9l.85-1.39a2.67 2.67 0 0 1-.34-2.5 3.4 3.4 0 0 0 .08-1.57 5.03 5.03 0 0 1 .5-2.91 3.55 3.55 0 0 1 1.06-3.84c1.2.3 2-.66 3.02-.89 1.37.2 2.79.14 4.09.61 1.18.44 2.33.16 3.48.13.7.03 1.33.87 2.08.1.68.2 1.28.54 1.98.37a.98.98 0 0 1 .7.07c1.05.64 2.2.58 3.32.48 1.4-.13 2.68.39 4 .65.86.17 1.65.27 2.55-.1.78.93 1.9.6 2.88.62 1.1.01 2.12.32 3.19.43.22.03.47.14.7.13 1.7-.13 3.36.46 5.07.29.58-.06 1.14.02 1.4.42 3.54.76 7.02.63 10.5 1.28.71-.68 1.53-.03 2.3.11 1.61.29 3.2.71 4.84.8 1.27.07 2.52.07 3.76.5.5.17 1.13-.05 1.7-.15.24-.05.51-.16.69-.05 1.54.9 3.3.4 4.9.82 1.15.3 2.39-.09 3.44.57 1.9-.2 3.71.78 5.63.5.83-.11 1.5.49 2.32.65.44-.2.89-.46 1.67-.42.53.5 1.4.7 2.37.71 1.75.04 3.47.35 5.18.68.24.05.43.1.65-.06.3-.21.64-.12.95 0 .14.05.26.19.39.18 1.72-.16 3.34.55 5.04.61 1.1.04 2.22.3 3.47.46.5-.37 1.02-.6 1.88-.07.74.46 1.83.5 2.74.48a7.44 7.44 0 0 1 3.06.33c.28.11.7.2.95.16 1.53-.33 2.92.29 4.34.6.33.08.67.06 1 .08 1.26.03 2.53.14 3.74.5.61.18 1.23.1 1.95.03.44.49 1.07.58 1.76.54 1.56-.07 3.12.04 4.6.52.62.2 1.16-.13 1.77-.01 2.14.4 4.3.6 6.36.34.56.07.84.45 1.2.61 1.23-.45 2.16-.15 3.57 1.11l.6-.24c1.22.77 1.33 1.13 1.05 2.4a48.84 48.84 0 0 0-.63 3.88 19.52 19.52 0 0 1-.82 3.69c-.25.72-.4 1.43 0 2.22-.66.9-.66 1.97-.88 3.01-.45 2.24-.64 4.53-1.3 6.73-.44 1.5-.62 3.03-.7 4.6 0 .23 0 .5-.1.7-.58 1.06-.63 2.27-.73 3.4-.08.94-.64 1.63-.75 2.51-.17 1.47-.25 2.96-1 4.31a.92.92 0 0 0 .19 1.03c-.42 1.7-1 3.33-1.09 5.09-.02.5-.24 1-.36 1.5-.07.32-.24.65-.19.96.1.7-.06 1.3-.34 1.9-.47.98-.4 2.07-.55 3.1-.15.97-.44 1.92-.54 2.87-.2 1.77-.91 3.44-.91 5.24 0 .66-.57 1.07-.8 1.6-.1.41.24.63.34.88 0 .7-.3 1.23-.69 1.67a9.92 9.92 0 0 1-.94 4.96c-.28.67-.07 1.28-.28 1.93-.34.96-.21 2.05-.7 3 .42 1.07-.2 1.99-.5 2.94-.12.38-.1.75-.11 1.12 0 .34.01.7-.12.98-.64 1.53-.66 3.19-1 4.77-.21.95-.45 1.93-.53 2.87-.16 1.73-1 3.3-.99 5.08 0 1.09-.45 2.18-1.1 3.21.33 1.01.54 2.1.01 3.21-.13.28-.08.66-.04.99.15 1.75-.21 3.5.07 5.25.06.35-.11.64-.21.95-.19.64-.37 1.29.11 1.97-.28.48-.35 1.02-.28 1.6.06.56.1 1.15.04 1.7-.22 1.81.13 3.62-.04 5.44-.14 1.42-.3 2.85-.3 4.27 0 1.46.15 2.92-.01 4.38-.05.45.14.82.3 1.2a7.05 7.05 0 0 0-.34 3.96c.1.55-.13 1.28-.45 1.74-.04.64.38.97.53 1.43l-.56 1.14c.13.75-.04 1.51.3 2.25.11.24.15.55-.08.8-.21.24-.23.5-.05.78.08.11.2.31.16.38-.55.95.02 2.06-.48 3.06-.43.85.06 1.81 0 2.74-.02.36.07.7-.07 1.08a3 3 0 0 0-.07 1.56c.35 1.63-.35 3.27.04 4.9-.42.66-.04 1.39-.14 2.02-.1.65-.13 1.3-.16 1.95-.04.6-.1 1.25.18 1.81.29.57-.54 1.12.04 1.74.16.18-.05.73-.1 1.1a8.7 8.7 0 0 0-.18 2.1c.06.71.12 1.44-.36 2.04.6 1.12-.16 2.29.2 3.32.41 1.18-.13 2.23-.1 3.33.02 1.13-.03 2.28-.29 3.33-.26 1.07-.25 2.18-.57 3.15-.36.41-.8.47-1.2.74-.64-.26-1.33-.27-2.05-.28-.72 0-1.46-.05-2.21-.27a7.4 7.4 0 0 0-2.63-.27c-.75.05-1.46 0-2.2-.08-.71-.08-1.41-.22-2.17-.03-.77.2-1.44-.56-2.26-.6-1.48-.06-2.9-.83-4.42-.28-1.36-.4-2.82.07-4.15-.36-.65-.2-1.3-.21-1.94-.3-1.67-.22-3.36-.4-5.06-.5-1.76-.12-3.6.14-5.28-.51-.75-.3-1.38.12-2.08-.03-.53-.11-1.08 0-1.65-.18a4.72 4.72 0 0 0-2.65-.3c-.65.15-1.26-.44-1.94-.3-1.2.22-2.33-.03-3.5-.27-.95-.2-1.98-.08-2.95-.31-.46-.1-.83.09-1.21.23-1-.61-2.3.06-3.15-.87l-1 .3a2.92 2.92 0 0 0-1.6-.51c-2.23-.15-4.45-.37-6.69-.31-.47.01-.91-.22-1.36-.31-1.18-.23-2.35-.46-3.59-.37-.7.06-1.37-.6-2.13-.24-.92-.46-1.99 0-2.92-.46-.16-.08-.44-.12-.55-.03-.77.6-1.49.2-2.23-.04-.68-.2-1.37-.4-2.1-.21-.12.03-.31.04-.42-.03-1.14-.75-2.43-.23-3.64-.39-1.2-.15-2.41-.24-3.63-.25a9.05 9.05 0 0 1-2.33-.44 2.01 2.01 0 0 0-1.63.14l-.87-.53c-1 .19-1.98.47-3-.14-.56-.36-1.29-.03-1.95.2a4.8 4.8 0 0 0-3-.6c-.7.06-1.4.05-2.06-.28-.74.48-1.47-.01-2.22-.01-.78 0-1.52-.27-2.34-.05-.38.1-.88-.28-1.34-.3-1.63-.09-3.2-.64-4.85-.46-.97-.51-2.02-.42-3.05-.33-.28.02-.55.13-.9.2-.6-.34-1.3-.48-2.07-.5-.94-.02-1.9-.04-2.76-.46-.46-.21-.95.02-1.42-.09-.9-.2-1.8-.42-2.71-.09-.23.08-.45-.03-.68-.08-1.1-.24-2.2-.57-3.34-.4-.68.1-1.3-.22-1.93-.38-.9-.23-1.64-.23-2.46.32-.74-.43-1.55-.77-2.46-.33-.15.07-.47.05-.54-.05-.48-.73-1.18-.39-1.8-.4-.33 0-.74.08-.97-.07-.43-.27-.76-.23-1.17-.03a.9.9 0 0 1-.69-.05c-1.52-.79-3.25-.42-4.84-.81-.3-.07-.65.04-1 .07l-1.79-1.25c.04-1.93 1.38-3.48 1.56-5.49a4.95 4.95 0 0 0 1.44-3.24c0-.24.27-.47.42-.71a12.9 12.9 0 0 0 1.78-3.95c.18-.8.93-1.25 1.08-2.09.12-.72.48-1.4.6-2.14.15-.85.72-1.52 1.18-2.25l-.19-.69c.19-.46.71-.94.7-1.75-1.78.64-3.65.62-5.42 1.26-1.4.5-2.93.69-4.3 1.32-1.43-.32-2.64.65-4.03.63-.36 0-.76.15-1.06.35-.5.34-1.1.45-1.6.49-1.43.1-2.72.69-4.09.94-.68.12-1.35.33-2.04.46-1.05.18-2.07.56-3.12.84-.23.07-.46.19-.69.19-1.33 0-2.5.64-3.76.86-1.49.25-2.87.93-4.38 1.12-1.11.15-2.21.4-3.32.63a4.7 4.7 0 0 0-2.13.91c-2.12.02-4.05.93-6.3 1.04l-.87.74c-1.25-.16-2.45.23-3.63.65-.42.15-.77.28-1.22.24a3.48 3.48 0 0 0-2.39.61c-.52.37-1.33.34-2 .5-.23.04-.53-.03-.7.1-.7.48-1.5.55-2.27.65-1.92.23-3.67 1.1-5.6 1.28-.35.04-.66.35-1.05.58a7.6 7.6 0 0 0-4.18.81c-.93.44-2 .05-2.9.55-.04.03-.1 0-.14.01-.58.21-1.23.31-1.71.65-.6.4-1.17.04-1.76.16-1.1.23-2.12.72-3.22.95-1.02.22-2.1.15-3.06.63s-2 .5-3.02.6c-.04 0-.11-.03-.14 0-1.3 1-3.1.7-4.3 1.66a6.39 6.39 0 0 1-3.52-.77 4.73 4.73 0 0 1-2.52-3.04c-.1-.3-.03-.7-.33-.9-.66-.42-.61-1.16-.75-1.77-.5-2.09-.87-4.2-1.53-6.25-.74-2.36-1.2-4.78-1.77-7.18-.4-1.63-.76-3.3-1.38-4.88-.26-.66-.6-1.33-.4-2.14.09-.37-.12-.84-.25-1.24a44.02 44.02 0 0 1-1.98-7.02c-.07-.37-.41-.52-.56-1.01.3-1.26-.4-2.45-.84-3.73-.32-.95-.97-1.83-.8-2.93.08-.5-.27-.8-.44-.99.03-2.16-.92-3.96-1.34-5.87-.41-1.9-.64-3.9-1.75-5.68a3 3 0 0 0-.33-2.52c-.4-.57-.1-1.12-.31-1.85l-.5-.3c.17-1.98-.93-3.66-.8-5.52.02-.27-.07-.57-.17-.82a33.95 33.95 0 0 1-2.16-7.64 2.78 2.78 0 0 0-.27-.8c-.34-.59-.66-1.13-.55-1.86.08-.54-.4-.94-.54-1.4 0-.41.08-.82-.02-1.17-.72-2.74-1.56-5.46-2.2-8.47.07-.2.2-.6 0-1.1-.41-1.09-.79-2.19-1.09-3.3-.3-1.14-.74-2.24-.81-3.42a5.47 5.47 0 0 0-.31-1.5c-.27-.77-.86-1.4-1.07-2.15-.2-.72-.25-1.47-.62-2.15-.32-.6-.25-1.29-.2-1.83-.7-1.56-1.32-3-.67-4.76-.71-1.2-.32-2.58-.11-3.97.12-.87.42-1.6 1.19-2.14.41-.29.7-.76 1.1-1.22.44-.07.92-.24 1.4-.36.78-.21 1.52-.7 2.45-.37.42.15 1.02-.13 1.48-.33.54-.25 1.1-.3 1.64-.35 1.32-.12 2.58-.35 3.81-.9.4-.18.83-.43 1.36-.18.36.18.91-.18 1.53-.72.9-.07 1.85.17 2.72-.46.41-.3 1.1-.3 1.63-.3.96 0 1.85-.46 2.8-.4.25 0 .46-.09.65-.25.85-.71 1.86-.86 2.92-.87 1.56-.01 3.1-.15 4.5-.92.34-.18.7-.3 1.08-.27.54.03 1-.07 1.47-.4.56-.38 1.28-.22 1.93-.32 2.74-.43 5.4-1.19 8.1-1.74 1.26-.25 2.58-.69 3.93-.34a4 4 0 0 1 1.9-.92c1.33-.23 2.71-.5 3.98-.88 1.35-.4 2.83-.3 4.06-1.06 1.36.25 2.52-.6 3.86-.65a7.87 7.87 0 0 0 3.7-.86c.54-.32 1.1-.08 1.65-.27a26 26 0 0 1 4.8-1.11c.8-.11 1.58-.52 2.4-.71.83-.2 1.63-.5 2.5-.4.3.03.55-.1.8-.24 1.39-.77 3.03-.61 4.5-1.12.25-.09.7 0 1.06-.02.58-.03.97-.34 1.37-.62 1.72.07 3.3-.4 4.87-.9 1.71-.51 3.47-.83 5.22-1.16 2.15-.4 4.3-.8 6.38-1.54a6.2 6.2 0 0 1 2.62-.46c.48.04 1.05.1 1.44-.41.1-.13.34-.15.53-.17 2.53-.23 4.95-1 7.43-1.53 2.57-.55 5.1-1.2 7.66-1.8.38-.1.84.1 1.24.16.48-.14.8-.48 1.18-.83 1.08.21 2.1-.32 3.18-.34.6 0 1-.78 1.7-.52 1.11-.66 2.57-.18 3.66-1.12.82.39 1.62.11 2.4-.2 1.23-.49 2.48-.92 3.87-.6 1.45-1 3.2-.98 4.82-1.4a8.09 8.09 0 0 1-.08-3.95c.14-.77.14-1.49.04-2.25-.1-.78-.37-1.58.31-2.27.14-.14.12-.46.12-.69v-3.84l.58-.93.05-.09Zm32.32 147.83c.14 0 .35.06.4-.01.49-.57 1.19-.73 1.8-.94.58-1.66 1.46-3.13 1.59-4.88l.78-.96c0-.66.1-1.25.48-1.78.18-.26.44-.6.39-.88-.15-.96.4-1.77.78-2.47.77-1.4.94-3.01 1.79-4.36.52-2.63 1.94-4.93 2.73-7.46.37-1.16 1-2.26 1.2-3.42.22-1.27.8-2.39 1.24-3.53.5-1.33 1.1-2.65 1.6-4 .55-1.44 1.19-2.85 1.32-4.46.58-.37.93-.98 1-1.6.13-.91.3-1.76.95-2.44.23-1.75 1.12-3.26 1.76-4.86.66-1.63.8-3.44 1.83-4.94.12-.19.15-.46.13-.68-.02-.35.1-.63.31-.9.52-.7.7-1.5.85-2.33.19-.91.35-1.87.93-2.36.69-2.53 2.08-4.58 2.6-6.97l-1.3-.44c-.8.84-2.06.52-2.95 1.12-.13.44-.17.88-.37 1.25-.53 1-.58 2.17-1.12 3.15-.55 1.01-.7 2.16-1.2 3.2-.49 1.01-.3 2.32-1.19 3.24-.33 1.6-.93 3.13-1.45 4.68-.45 1.32-1.08 2.61-1.35 3.97-.27 1.43-1.23 2.62-1.28 4.1-1.07 2.2-1.69 4.54-2.45 6.84-.67 1.98-1.7 3.86-1.84 6-.84 1.58-1.23 3.31-1.81 4.99-.47 1.36-1.03 2.7-1.46 4.08-.41 1.33-1.04 2.58-1.38 3.95-.21.9-.4 1.82-.79 2.66a42.8 42.8 0 0 0-1.73 4.86c-.15.5-.2 1.02-.41 1.5-.95 2.02-1.42 4.24-2.39 6.27-.11.23-.02.56-.02.84-.1.04-.25.02-.17.2.18.02.17-.1.16-.22h.04Zm4.47-53.14c.44-.23.64-.48.73-.82.6-2.4 1.34-4.8 2.32-7.07.6-1.43.81-2.95 1.36-4.39a84.45 84.45 0 0 0 2.51-7.74c.2-.7.45-1.3.93-1.86a14.3 14.3 0 0 0 5.74-1.96c1.12.5 2.34.58 3.3 1.31.13.1.37.02.55.03 1.16.09 2.04.68 2.75 1.53 1.4 1.66 2.76 3.37 4.13 5.06.25.3.49.6.47 1.09-.04.39-.33.77-.39 1.26-.09.75-.7 1.39-.61 2.23-.8.74-.93 1.8-1.29 2.76-.54 1.41-1.11 2.82-1.66 4.23-.43 1.1-.75 2.23-1.2 3.32-.73 1.81-1.19 3.73-2.02 5.52-.22.49-.48 1.02-.58 1.58a9.43 9.43 0 0 1-1.23 3.27c-.22.35-.38.77-.44 1.17a10.71 10.71 0 0 1-1.8 4.29c.09.98-.37 1.84-.75 2.77-.9 2.15-1.67 4.35-2.44 6.54-.35.96-.98 1.86-.78 2.93-.22.3-.43.56-.59.86-.69 1.28-.71 2.84-1.66 4.01-.02 1.9-1.27 3.38-1.8 5.13-.45 1.45-1.12 2.86-1.64 4.32-.63 1.71-1.19 3.44-1.82 5.15-.57 1.57-1.14 3.14-1.64 4.74-.18.6-.79 1.09-.57 1.81-.6.68-.58 1.67-1.2 2.38-.77.91-1.45 1.94-2.11 2.94-.4.6-.78 1.16-1.2 1.72-.5.65-1.26 1.2-1.3 2.13-.02.32-.34.43-.49.64-.83 1.15-1.91 2.17-2.18 3.66-1.63.81-3.13.74-4.4-.3-.42-.36-.93-.43-1.42-.64-.1-.7-.85-.82-1.18-1.24-.03-1.42.22-2.79-.1-3.86.3-2-.04-3.75.13-5.46.18-1.74-.2-3.45-.23-5.09l.52-.43a6.29 6.29 0 0 1 .48-3.18c.65-1.63 1.08-3.36 1.62-5.05.39-1.2.81-2.37 1.2-3.57.38-1.13.76-2.28 1.1-3.43.28-.92.74-1.8.77-2.97-.8.42-1.47.7-2.08 1.1-.53.37-1.09.54-1.72.59-.33.02-.69.02-.98.14-1.7.7-3.58.67-5.3 1.32-1.26.47-2.73.27-3.94 1.16-.64-.4-1.25-.22-1.82.2a2 2 0 0 1-1.07.36c-1.68.17-3.3.72-4.96 1.04-1.56.3-3.09.97-4.7 1.18-.33.05-.65.08-.97.2-.88.3-1.78.55-2.68.77-2.65.63-5.33 1.16-7.95 1.91-1.54.45-3.1.99-4.7.92-1.38 1.13-1.86 2.6-2 4.22-.1.06-.2.1-.25.16-.76.97-1.01 2.16-1.36 3.27-.32 1.05-.56 2.08-1.4 2.82-.07.74-.27 1.4-.46 2.06-.2.73-.78 1.18-.94 1.84-.32 1.38-1.02 2.6-1.55 3.88-.27.66-.6 1.27-.47 1.93a2.5 2.5 0 0 0-.66 1.47c1.04.7 2.32.74 3.47 1 1.46.34 3.01.24 4.52.27.73 0 1.4.12 1.99.42.82-.46 1.56-.57 2.37-.15.37.2.83.36 1.22.31 1.43-.16 2.8.58 4.23.29.17-.04.38.02.56.08 1.27.44 2.62.2 3.9.5.84.21 1.67-.16 2.48-.21l.7.55c.5-.16.94-.2 1.5-.1 1.13.21 2.3.12 3.41.59.07.03.2.01.26-.03.85-.56 1.52-.12 2.01.32.93 0 1.72-.15 2.43.03 1.3.32 2.6.12 3.91.33.91.15 1.87 0 2.75.47.14.08.36.05.56.06 1.26.04 2.51.02 3.8.24 1.4.24 2.88.38 4.34.4.33 0 .67-.15.99 0 .92.43 1.83.34 2.78-.04.3.09.56.3.89.35 1.38.18 2.79.15 4.15.54 1.17.33 2.4.2 3.6.46 1.2.27 2.46.19 3.68.28 1.37.1 2.75.16 4.04.63l.98-.37c.3.13.65.41.9.34 1.01-.3 1.87.1 2.81.31 1.07.23 2.22.52 3.35.1a1 1 0 0 1 .83.11c.72.44 1.56.4 2.35.4.7.01 1.38-.03 2.09.19.72.21 1.5-.05 2.25-.1.75-.06 1.46.57 2.29.47 1.39-.15 2.68.3 4.03.6l1.1-.3c1.67.5 3.37.3 5.01.86 1.11-.6 2.25.07 3.4.15.95.06 1.85.19 2.8-.14.93.56 1.95.8 3.08.8 1.36 0 2.75-.1 4.05.36.46-.02.79-.41 1.35-.32l1.03.53c.94 0 1.77-.12 2.55.02 1.33.25 2.64.56 4 .54.32 0 .7.02.98.15.46.2.94.23 1.4.2 1.33-.1 2.64.2 3.94.32 1 .08 2.01 0 3 .18.6.12 1.2.26 1.81.34.97.14 1.85-.3 2.75-.27.4.3.7.69 1.17.81 1.04-.3 1.04-.26 2.32 0 1.2.24 2.4.56 3.52.08.59.21 1 .76 1.73.31-.28-1.3.08-2.63.05-4-.02-.94.37-1.96.23-2.93-.35-2.47.51-4.94-.02-7.4-.03-.13-.02-.33.05-.42.3-.38.22-.79.2-1.22 0-1.32.08-2.64 0-3.95-.04-.47.4-.81.23-1.2-.62-1.43-.17-2.9-.16-4.33 0-1.23.18-2.47.2-3.72 0-.39-.05-.79.12-1.12.44-.85-.55-1.77.22-2.47l-.59-1.25c.24-.27.4-.6.29-.93-.25-.79.25-1.35.47-2.01.25-.75-.44-1.46-.17-2.23.24-.7.1-1.41.05-2.13-.03-.54-.15-1.08.1-1.67.3-.7.17-1.51 0-2.23-.09-.44-.07-.8-.04-1.22.12-1.33.5-2.65.1-4.13.38-.37.4-.9.31-1.49a17.2 17.2 0 0 1-.17-3.4c.12-1.4.2-2.8.17-4.22-.02-.9.28-1.75.31-2.62.04-.99.15-2 .03-2.97-.15-1.12.34-2.11.26-3.23-.14-1.91 0-3.85-.02-5.78-.04-2.03.39-4.03.33-6.06a9.76 9.76 0 0 1 .85-4.65l-.35-1.06c.44-.87 1.1-1.63.68-2.66.45-.44.8-1 .78-1.61-.05-1.2.45-2.31.34-3.5a1.7 1.7 0 0 1 .21-.96c.4-.68.47-1.43.3-2.25.9-.67.59-1.75.78-2.64.27-1.28.65-2.55.76-3.87.09-1.12-.1-2.28.5-3.35.55-.96.76-2.03.54-2.95.03-.57.42-.7.57-1.14.06-.14-.18-.32-.17-.65.31-.39.59-.87.53-1.49-.1-1 .18-1.97.53-2.89.4-1.06.51-2.2.58-3.29.08-1.33.5-2.55.83-3.8.38-1.4.23-2.9.85-4.26a.15.15 0 0 0 0-.14c-.32-.75.13-1.4.22-2.1.1-1 .65-1.85.75-2.83.2-1.85.43-3.7 1.3-5.4-.16-.66-.08-.65.02-1.46.14-1.03.45-2.02.59-3.04.06-.52.49-.96.34-1.5-.18-.66.07-1.2.24-1.8.27-.9.69-1.78.62-2.72-.06-.77.07-1.52.31-2.2.18-.5.26-1 .28-1.5 0-.54.16-1 .32-1.49.3-.9.97-1.8.18-2.72a8.32 8.32 0 0 0 1.41-4.1c.13-1.81.67-3.54.94-5.31.1-.7.32-1.4.29-2.1-.04-.75.17-1.38.63-1.93-.26-.8.06-1.5.24-2.33-1.64-.32-3.24-.42-4.68-1.06-.55.25-1.04.3-1.65.1-.75-.23-1.58-.37-2.34.04-.35.2-.7.1-.95 0-1.32-.66-2.8-.64-4.18-1.07-.25-.08-.54-.04-.76-.07-.86-.13-1.75.24-2.58-.12-.75-.33-1.55-.32-2.32-.36-.19 0-.42.04-.56-.05-.74-.46-1.45-.2-2.2.03-.85-.7-1.95-.6-2.93-.76-1.67-.3-3.38-.33-5.06-.38a3.7 3.7 0 0 1-1.76-.58c-.28.21-.62.38-1 .18-.4-.2-.86-.1-1.27-.18-1.43-.24-2.9-.2-4.33-.48-1.3-.25-2.6-.6-3.95-.39-.4.06-.71-.06-1.06-.26-.35-.22-.76-.41-1.2-.29-1.39.4-2.76-.5-4.15 0-.25.1-.43-.17-.64-.24-1.04-.32-2.06-.66-3.17-.54a4.2 4.2 0 0 1-1.56-.09 11.92 11.92 0 0 0-3.44-.52c-1.42 0-2.79-.44-4.21-.3-.23.02-.5 0-.69-.1-.6-.37-1.27-.34-1.9-.51-.8-.23-1.6.02-2.37-.07-1.1-.13-2.14-.5-3.3-.42-.59.05-1.26.06-1.82-.11-1.29-.4-2.62-.2-3.9-.46-.68-.14-1.4-.14-2.08-.33a15.65 15.65 0 0 0-3.72-.48c-1.22-.06-2.4-.54-3.64-.37-1.87-.76-3.87-.46-5.8-.6-.7-.07-1.42-.08-2.1-.3-1.07-.34-2.12-.72-3.29-.53-.3.04-.64-.14-.96-.19-1.17-.15-2.35-.45-3.5-.35a5.85 5.85 0 0 1-2.96-.58l-1.02.29c-.97-.46-2.05-.36-3.03-.69a1.87 1.87 0 0 0-1.06-.04c-.68.13-1.45.3-2.1-.05a3.51 3.51 0 0 0-3.03-.18c-.92-.13-1.69-.94-2.58-.24-.25-.34-.63-.3-.94-.38-1.4-.35-2.9-.18-4.2-.96-1.03.44-2.04-.05-3.06-.11-.89-.05-1.82.17-2.66-.15-1.44-.55-2.9-.7-4.42-.66-.52 0-1.06.09-1.54-.21-.04-.04-.16.04-.22.06l-.68 1.09c0 1.17.1 2.46-.04 3.72-.1.94-.27 1.87-.18 2.81.04.45 0 .84-.22 1.23-.14.24-.34.52-.32.77.15 1.43-.27 2.81-.31 4.22-.06 1.88.1 3.79-.67 5.58-.11.26-.21.51-.18.82.16 1.35-.12 2.7-.05 4.05.04.88-.18 1.65-.42 2.47-.17.6-.6 1.2-.33 1.94.66-.4 1.4-.1 2.07-.37 1.4-.55 2.88-.76 4.35-1.03 1.42-.27 2.84-.54 4.1-.96.66.15 1.21.32 1.77.4 1.33.18 2.6.45 3.33 1.78.13.24.4.4.65.62-.18.73.28 1.39.06 2.17-.1.36.41.84.5 1.29.27 1.58.63 3.13 1.31 4.6.1.2.16.46.13.68-.2 1.77.68 3.32 1.09 4.95l.84 3.24c.36 1.45.78 2.92.94 4.4.07.6.5.96.56 1.56.2 2.19.9 4.29 1.4 6.4.42 1.79.94 3.55 1.34 5.34.29 1.27.6 2.52.99 3.79.39 1.28.69 2.61.67 4 .58.41.8 1 .82 1.7.03.8.02 1.63.65 2.26.19.2.1.44.12.67.11 1.17.25 2.34.38 3.52.02.23.02.51.13.7.8 1.16.82 2.57 1.2 3.87.18.63.6 1.16.67 1.86.08.88.43 1.74.45 2.63.02.8.55 1.4.62 2.13.2 2.12.94 4.12 1.43 6.17.61 2.5 1.2 5 1.74 7.51.16.75.58 1.37.64 2.16.07 1.06.43 2.1.7 3.22l-.1.05Zm-104.74 51.44c.59.04 1.14.58 1.56.19.54-.5 1.22-.53 1.81-.73 1.78-.56 3.65-.8 5.4-1.44.1-.04.19-.02.3-.02 1.14 0 2.2-.3 3.23-.84.37-.2.75-.36 1.21-.3.52.07 1.02-.12 1.53-.18.8-.12 1.52-.49 2.3-.61 2.34-.4 4.51-1.54 6.9-1.73.05 0 .1 0 .15-.03.94-.3 1.87-.58 2.86-.66.63-.06 1.3-.17 1.92-.36 1.34-.4 2.64-.96 4.07-1.02.14 0 .33 0 .4-.08.52-.58 1.22-.42 1.87-.5.33-.03.67 0 .97-.2 1.04-.73 2.32-.62 3.48-.93 1.68-.43 3.4-.7 5.05-1.21a7.9 7.9 0 0 1 2.87-.53l5.2-1.7a.6.6 0 0 1 .3 0c.82.22 1.56-.22 2.34-.28.6-.05.86-.85 1.54-.6 1.41-.6 2.97-.45 4.4-.86 1.32-.4 2.78-.45 3.92-1.4 1.65.27 3.1-.8 4.68-.59.37-.49.78-.81 1.34-.81 1.3 0 2.43-.7 3.71-.77.4-.02.92.07 1.24-.17.89-.68 1.94-.63 2.94-.81 1.1-.21 2.26-.3 3.28-.73 1.28-.53 2.62-.72 3.93-1 1.14-.24 2.33-.38 3.41-.7 1.82-.57 3.74-.88 5.5-1.74.55-1.05 1.2-2.1 1.26-3.36 0-.2.05-.36.16-.53.66-1.09.9-2.34 1.21-3.54.3-1.17.74-2.3 1.06-3.45.35-1.31.93-2.6 1.36-3.9.23-.72.37-1.44.62-2.13.47-1.26.98-2.5 1.38-3.8.29-.92.47-1.9 1-2.75-.06-.23-.15-.43-.18-.66a43.25 43.25 0 0 0-1.43-6.39c-.23-.81-.58-1.62-.57-2.47.02-1.3-.98-2.4-.71-3.75-.8-1-.59-2.31-.97-3.46-.44-1.4-.6-2.9-1.18-4.3-.3-.73-.64-1.52-.62-2.27.04-1.4-.72-2.6-.72-3.97 0-1.47-1.23-2.69-1-4.22a.4.4 0 0 0-.07-.28c-.85-1.24-.88-2.74-1.27-4.12-.2-.73-.48-1.6-.15-2.43-.14-.34-.56-.56-.53-.97.06-.8-.3-1.45-.53-2.17-.27-.84-.51-1.69-.66-2.57-.12-.67.13-1.35-.22-2-.86-1.63-1.06-3.46-1.46-5.23-.22-1.05-.28-2.19-.82-3.1-.38-.66-.31-1.13-.03-1.76-.68-.39-.53-1.11-.67-1.74-.22-.96-.64-1.87-.76-2.84-.12-1-.81-1.86-.77-2.8.05-1-.67-1.8-.47-2.77-.67-2.03-.64-4.28-1.84-6.15a.5.5 0 0 1-.06-.26c-.24-2.39-1.1-4.64-1.4-7.01-.08-.61-.53-1.1-.39-1.6-.4-.73-1.18-1-1.15-2.06-.17.35-.2.52-.3.6-1.04.81-1.7 1.97-2.69 2.87a26.27 26.27 0 0 0-3.6 3.9 23.1 23.1 0 0 1-2.5 2.87c-.7.71-1.37 1.47-1.9 2.3-.68 1.02-1.54 1.84-2.4 2.67-1.06 1.03-1.94 2.21-2.93 3.32-.9 1.04-1.98 1.93-2.6 3.2-1.29.67-1.74 2.12-2.85 3.03-1.51 1.24-2.5 3.07-3.92 4.47-.42.42-.6 1.13-1.08 1.44-1.7 1.12-2.51 3-3.96 4.34a26.27 26.27 0 0 0-3.62 4.17c-.81 1.16-1.97 2.03-2.9 3.13-1.02 1.22-1.99 2.5-3.08 3.54-.12.35.1.65-.17 1-1.55 1.3-2.87 2.98-4.24 4.57-1 1.16-2.34 2.1-2.88 3.65-.1.26-.46.47-.75.63-.25.15-.51.24-.6.64.63.77.95 1.71 1.17 2.75.14.72.28 1.28.06 2.02-.2.62-.27 1.41.2 2.06-.44.65-.76 1.4-.8 2.1a4.36 4.36 0 0 1-1.13 2.85c-.15.46-.01.84-.14 1.22a41.04 41.04 0 0 1-2.71 6.23c-.42.78-1.01 1.47-1.07 2.42a.9.9 0 0 1-.31.62c-.94.7-.66 2.05-1.5 2.78.13.92-.6 1.33-1.1 1.9-.2 1.49-1.24 2.2-2.2 2.67-1.7-.2-3-.7-4.08-1.68-.1-.09-.24-.15-.37-.2-.9-.47-1.87-.88-2.71-1.44-1.28-.86-2.73-1.43-3.86-2.56a8.7 8.7 0 0 0-2.73-1.96 5.06 5.06 0 0 1-1.81-1.44c-.55-.63-1.02-1.56-2.12-1.5-.12 0-.3-.12-.35-.23-.41-.93-1.57-1.19-1.92-2.18-.13-.35-.4-.65-.63-.93-1.67-1.97-2.86-4.12-2.8-6.82.03-.72-.29-1.04-.92-1.26-1.8-.62-3.7-1.02-5.35-2.04-.26-.16-.62-.2-.92-.29-1.93-.55-3.93-.96-5.7-2-2.03-1.17-4.34-1.67-6.48-2.6-.94-.4-1.97-.55-2.87-.96-1.46-.66-2.96-1.18-4.45-1.73-1.28-.46-2.54-.95-3.8-1.42-.94-.35-1.96-.59-2.88-1.01-1.24-.56-2.64-.74-3.74-1.6-.13-.11-.37-.1-.55-.08-.6.08-1.08-.27-1.6-.46-.48-.16-.73-.65-1.22-.7-1-.13-1.86-.64-2.76-1a8.19 8.19 0 0 0-3.17-.76c-1.87-1.23-3.96-1.78-5.97-2.53-.87-.32-1.79-.56-2.66-.9-1.56-.6-3.16-1.1-4.68-1.8-1.13-.5-2.36-.66-3.47-1.15a35.14 35.14 0 0 0-4.82-1.85c-1.4-.4-2.64-1.18-4-1.7-.5-.19-1-.57-1.58-.2-.03.1-.09.2-.06.28.64 2.29 1.23 4.58 1.8 6.89.67 2.65 1.72 5.22 2.08 7.95.14 1.03.67 2.08.14 3.14.9.99.45 2.39 1.15 3.36-.1.33-.4.52-.28.92.91 1.44.67 3.37 1.69 4.87-.15 1.4.39 2.68.75 3.97.43 1.63 1.05 3.2.98 4.97.53.6.8 1.3.92 2.13.1.7.07 1.55.68 1.9.21.5-.18.66-.15 1.02.04.07.15.18.17.3.22 1.24 1 2.34.94 3.65.86 1.2.3 2.81 1.15 4.02-.07 1.25.64 2.33.76 3.55.12 1.12.25 2.25 1 3.11 0 .54-.13 1.07.03 1.48.37.95.47 2 .83 2.91.42 1 .85 1.96.83 3.07 0 .16.16.33.26.5a8.37 8.37 0 0 1 1.2 4.2c.63.57.91 1.34.81 2.25-.07.6.34 1.06.6 1.65-.36.37-.3.77-.06 1.25.7 1.45.9 3.03 1.16 4.59.16.92.6 1.78.6 2.73.9 1.11.8 2.54 1.15 3.83.45 1.7.7 3.45 1.36 5.1.44 1.1.8 2.2.66 3.24.1.55.62.7.58 1.13-.19 1.7.77 3.17.96 4.81.12 1.1.77 2.12.94 3.22a3.8 3.8 0 0 0 1.3 2.33c.82.17 1.45-.28 2.17-.26a20.1 20.1 0 0 0 7.29-1.44c1.09-.39 2.1-1.02 3.35-.86.11.02.25-.1.38-.17.7-.37 1.43-.45 2.26-.38 1.04-.9 2.48-.82 3.72-1.33.67-.26 1.48-.25 2.2-.4 2.15-.43 4.18-1.3 6.38-1.52 1.08-.1 2.01-.75 3.04-.94a3.82 3.82 0 0 0 1.59-.68c.84.06 1.58.06 2.32-.23 1-.38 2.08-.42 3.11-.8 1.03-.35 2.18-.55 3.3-.66.65-.05 1.12-.65 1.73-.56 1.04.15 1.8-.39 2.67-.88v-.04ZM58.24 98.77c-.18 1.72-.13 1.7.25 2.35.57 1 1.62 1.2 2.56 1.46 1.43.39 2.86.77 4.16 1.52.2.13.4.22.64.26.76.09 1.43.44 2.11.77.8.37 1.6.86 2.55.67.25-.04.47.1.65.23.74.54 1.62.69 2.42 1.06 1.28.57 2.52 1.18 3.86 1.61 2.1.7 4.13 1.68 6.18 2.54.64.26 1.27.65 1.95.76 1.23.17 2.3.7 3.38 1.21 1.01.48 2.2.56 3.07 1.34.09.08.26.06.4.07 1.44.07 2.58 1.11 3.99 1.29.87 1.16 2.49.7 3.48 1.6 2.15.33 3.99 1.56 6.05 2.22 1.8.57 3.48 1.52 5.34 2.02 2.3.6 4.41 1.74 6.67 2.48 1.81.6 3.53 1.45 5.3 2.18.27.1.48.33.8.28.66-.1 1.17.22 1.68.6.26.2.56.42.87.48 1.11.2 2.18.5 3.16.94.16-.08.26-.1.32-.16 1.13-1.31 2.3-2.6 3.4-3.94.37-.47.85-.53 1.3-.54.34-.49.6-1.09 1.15-1.06.6.02.96-.7 1.4-.52.61.25 1.13-.06 1.61-.16 1.02-.22 1.9.05 2.86.31 1.2.32 2.14 1.16 3.4 1.48.4-.5.93-.94 1.18-1.51.34-.83 1-1.23 1.67-1.64.35-.22.78-.35 1.13-.57a11.8 11.8 0 0 1 4.3-1.53c.75-.12 1.38.1 2.06.1 1.51 0 3 .13 4.18 1.3.17.18.52.4.88.3.78-1.01 1.86-1.82 2.42-2.96.47-.96 1.2-1.5 2.02-2.04.06-.53.23-1 .74-1.28.29-.16.5-.43.74-.68.88-.96 1.77-1.91 2.61-2.91.93-1.09 2.24-1.84 2.92-3.17a5.76 5.76 0 0 1 1.8-2.08c.2-.14.44-.31.49-.52.18-.84.83-1.16 1.46-1.39.3-.56.43-1.05.98-1.42.7-.46 1.38-1.1 1.8-1.81.62-1.08 1.53-1.86 2.3-2.77.9-1.04 1.93-1.97 2.82-3.03 1.08-1.26 1.9-2.73 3.17-3.81 1.35-1.16 2.36-2.65 3.76-3.77.15-.11.32-.25.38-.41.3-.88 1.1-1.38 1.55-2.12.4-.71 1.21-.85 1.66-1.45.94-1.26 1.68-2.7 3.07-3.6.12-.08.29-.17.31-.29.19-.87.98-1.23 1.53-1.79 1.73-1.75 3.27-3.69 4.84-5.57.41-.5 1.1-.6 1.33-1.2a3.9 3.9 0 0 1 1.26-1.53c.85-.73 1.2-1.88 2.2-2.5.24-.15.45-.6.29-1.01-4.19.8-8.27 1.94-12.65 2.62-1.65.79-3.64.96-5.64 1.05-.26.26-.48.48-.91.56-1.56.3-3.16.44-4.66 1.01-1.22.46-2.53.56-3.78.87-2.03.5-4.11.88-6.18 1.25-.65.12-1.23.45-1.86.55-1.56.26-3.2.15-4.58 1.15-.16.12-.47 0-.7.06-1.1.25-2.26.14-3.3.56a3.6 3.6 0 0 1-1.85.23c-.84.83-2.2.36-2.93 1.1-1.42.23-2.72.14-3.83.87-.48-.16-.96-.39-1.48-.07-.5.31-1.1.3-1.61.48-.74.26-1.48.14-2.22.39-2.04.65-4.12 1.27-6.25 1.25-.72.6-1.5.89-2.39.84-.55-.02-1.02.07-1.22.57-1.18.08-2.33-.3-3.26.68-1.41-.44-2.64.36-3.94.66-.68.16-1.4-.08-2.07.3-.84.5-1.93.3-2.75.95-.34.26-.68-.25-1.12-.22-.3.44-.78.56-1.34.53-.47-.04-1.04-.14-1.4.07-.93.54-1.96.6-2.92.91-1.4.45-2.87.47-4.2 1.03-.8.33-1.65.21-2.47.5-1.66.6-3.45.64-5.17 1.14-2.5.73-5.19.73-7.64 1.7-.13.05-.29.07-.41.05-.83-.17-1.45.33-2.1.6-.8 0-1.53 0-2.28.26-.84.28-1.72.53-2.57.68-.7.12-1.44.06-1.99.53-.96-.07-1.84-.14-2.62.52-.26.22-.72.26-1.08.27-.59 0-1.14.08-1.63.39-.2.12-.41.18-.67.2-2.3.1-4.53.7-6.66 1.52-.94.35-1.88.53-2.8.8l-.48-.58c-.74.3-1.52.48-2.11.88-.94-.06-1.8-.17-2.56.4-.24.18-.56.1-.83.17-.81.24-1.74.07-2.49.4-1.17.53-2.43.58-3.6 1.01-.85.32-1.74.36-2.6.5-.93.17-1.78.66-2.73.63-.77-.03-1.5.13-2.3.43l.02.06Zm168.55 100.48c.36-.75.92-1.41.96-2.11.08-1.65.94-3.03 1.37-4.54.32-1.1.61-2.26 1.24-3.27.64-1.05.65-2.3 1.1-3.42.66-1.63 1-3.4 1.65-5.03.52-1.3 1.05-2.6 1.45-3.9.34-1.1.7-2.22.99-3.34.24-.95.94-1.7 1.08-2.69.1-.6.2-1.22.46-1.76 1.1-2.29 1.5-4.8 2.42-7.14.3-.73.56-1.56.82-2.3.34-.99.73-2.01 1.09-3 .85-2.37 1.69-4.76 2.4-7.17.83-2.73 1.82-5.4 2.74-8.1.98-2.86 1.9-5.76 3.01-8.64-.57-.19-.86-.74-1.48-1-1.54.25-2.94-.59-4.57-1.2.18 1-.31 1.64-.45 2.34-.28 1.4-.73 2.7-1.24 4.01-.5 1.3-.62 2.72-1.24 4-.41.86-.5 1.88-.78 2.81-.96 3.07-2.06 6.1-3 9.18-.3 1.03-.35 2.13-.83 3.09-.4.8-.77 1.58-.9 2.45-.15 1.17-.8 2.17-1.03 3.33-.32 1.64-1 3.19-1.52 4.78-.44 1.32-.86 2.65-1.27 3.98-.4 1.25-.7 2.51-1.1 3.76-.48 1.55-1.01 3.09-1.5 4.63-.47 1.47-.74 3.01-1.35 4.41-1.2 2.75-1.6 5.74-2.72 8.49-.4 1-.56 2.06-.97 3.07-.38.9-.97 1.86-.62 3.04 1.21.46 2.42 1.05 3.8 1.23v.01Zm14.15-69.61c-1.1 1.6-1.32 3.22-1.87 4.7-.47 1.24-.97 2.53-1.1 3.89-.08.84-.7 1.46-.9 2.25-.16.6-.03 1.2-.26 1.8-.83 2.16-1.55 4.37-2.3 6.56-.12.35-.1.77-.27 1.09a7.67 7.67 0 0 0-.75 3.3c-.56.54-.84 1.25-1.17 1.99-.56 1.24-.23 2.76-1.3 3.8-.05 1.54-.88 2.85-1.32 4.27-.6 1.9-1.01 3.86-2.05 5.6-.11.18-.09.46-.12.69-.2 1.53-.85 2.94-1.13 4.46-.08.4-.39.5-.55.76-.22.33.32.6.14.87-.23.3 0 .73-.4 1-.67.48-.8 1.25-.9 2-.04.34-.13.63-.25.96-.72 1.91-1.11 3.95-2.02 5.81-.13.29-.2.62-.28.94-.27.93-.48 1.87-.78 2.8-.63 1.95-1.3 3.89-1.95 5.87.7.86.58 2.3 1.95 2.7.32-.59.08-1.17.34-1.72.41-.89.71-1.84 1.01-2.77.45-1.37.69-2.83 1.22-4.14 1.1-2.73 1.64-5.6 2.74-8.34.42-1.05 1-2.13.9-3.36a59 59 0 0 0 2.23-6.74c.04-.19.03-.4.14-.55.7-1.02.93-2.25 1.27-3.4.93-3.13 1.98-6.23 2.9-9.36.61-2.06 1.26-4.12 1.93-6.15.68-2.07 1.4-4.16 1.97-6.26.78-2.83 1.87-5.56 2.64-8.4.54-2.01 1.04-4.09 2.12-5.87-.42-.79-1.38-.15-1.79-1l-.04-.05Zm-16.76 79.12c1.09-1.72 2-3.27 3.3-4.67-.2-1.1 1.02-1.46 1.57-2.45-1.47.4-2.7-.23-4.05-.2-1.38-1.42-3.3-1.57-5.1-2l-.59-1c-.34 1 .44 1.98.15 2.86-.33 1.02.26 1.92 0 2.9-.22.92 0 1.91.06 2.98 1.63.3 3.05 1.12 4.65 1.6v-.02Zm19.25-80.14c.3.25 1.02.23 1.58.51 1.73.87 3.72 1.06 5.39 2.07.22.12.59.14.84.07.88-.26 1.75-.56 2.6-.84-.2-.93-.75-1.65-.57-2.55.03-.18-.16-.42-.29-.6a4.6 4.6 0 0 0-2.02-1.73c-1.17-.45-2.34-.94-3.5-1.4-.25.2-.5.27-.8.31-.92.14-1.84.37-2.75.47-.76.08-1.24.42-1.46 1.15.25.78.1 1.7.96 2.56l.02-.02Zm-14.26 72.7-.08-.1-.1.08.13.1c.01-.03.04-.05.05-.09Z"/><path fill="#FFC629" d="M128.39 197.16c-.87.49-1.63 1.03-2.67.89-.61-.1-1.08.5-1.74.56-1.1.1-2.27.3-3.29.66-1.03.36-2.12.4-3.1.8-.75.28-1.49.28-2.33.22-.44.31-.97.56-1.59.68-1.04.2-1.97.83-3.04.94-2.2.22-4.23 1.1-6.37 1.53-.73.15-1.54.12-2.2.4-1.25.5-2.68.44-3.73 1.33a4.08 4.08 0 0 0-2.26.38c-.13.07-.27.18-.38.17-1.24-.16-2.26.47-3.35.86a20.1 20.1 0 0 1-7.29 1.43c-.72 0-1.36.45-2.18.27a3.78 3.78 0 0 1-1.3-2.33c-.16-1.1-.8-2.13-.93-3.22-.19-1.64-1.15-3.11-.97-4.81.05-.42-.48-.58-.57-1.14a6.64 6.64 0 0 0-.66-3.24c-.66-1.64-.9-3.4-1.36-5.1-.34-1.28-.25-2.71-1.16-3.83 0-.95-.43-1.8-.6-2.73-.26-1.56-.45-3.14-1.15-4.58-.24-.49-.3-.89.06-1.25-.27-.59-.67-1.05-.6-1.66.1-.91-.18-1.67-.8-2.24a8.18 8.18 0 0 0-1.2-4.21c-.11-.16-.27-.34-.27-.5.02-1.1-.41-2.06-.83-3.06-.38-.92-.47-1.96-.83-2.91-.17-.42-.03-.94-.03-1.48-.75-.86-.9-2-1-3.11-.12-1.22-.83-2.3-.76-3.56-.84-1.2-.3-2.8-1.15-4.01.06-1.3-.72-2.41-.94-3.65-.02-.13-.14-.24-.17-.3-.03-.36.36-.54.15-1.02-.61-.35-.57-1.21-.68-1.9a3.97 3.97 0 0 0-.92-2.14c.07-1.76-.55-3.34-.99-4.96-.34-1.3-.89-2.58-.74-3.97-1.02-1.5-.8-3.43-1.69-4.88-.11-.4.19-.58.28-.91-.7-.98-.24-2.38-1.15-3.36.53-1.06 0-2.11-.14-3.15-.36-2.72-1.4-5.28-2.07-7.95-.59-2.3-1.18-4.6-1.82-6.89-.02-.08.05-.17.07-.28.59-.36 1.07 0 1.59.21 1.35.52 2.58 1.3 3.99 1.7 1.65.48 3.24 1.15 4.82 1.85 1.1.49 2.34.64 3.47 1.15 1.52.7 3.12 1.2 4.68 1.8.87.33 1.8.58 2.66.9 2.01.73 4.1 1.28 5.97 2.52a8.3 8.3 0 0 1 3.17.76c.9.38 1.76.87 2.76 1 .49.06.74.55 1.21.7.53.2 1 .55 1.6.47.2-.03.43-.04.56.07 1.1.87 2.5 1.04 3.74 1.6.92.42 1.93.66 2.88 1.01 1.26.47 2.52.97 3.8 1.42 1.49.54 2.99 1.07 4.45 1.74.9.41 1.93.55 2.87.96 2.14.93 4.45 1.42 6.48 2.6 1.77 1.04 3.76 1.44 5.7 2 .3.1.66.11.92.29 1.66 1.02 3.55 1.42 5.35 2.04.63.22.94.54.93 1.26-.07 2.68 1.12 4.84 2.78 6.81.25.29.51.59.64.93.35.99 1.51 1.25 1.92 2.18.05.1.23.23.35.23 1.1-.06 1.57.87 2.12 1.5.54.61 1.1 1.15 1.81 1.45a8.55 8.55 0 0 1 2.73 1.96c1.14 1.14 2.58 1.7 3.85 2.56.84.57 1.8.96 2.72 1.43.13.07.27.12.37.2a6.89 6.89 0 0 0 4.08 1.68c.96-.47 2.01-1.18 2.2-2.67.5-.56 1.23-.96 1.1-1.9.84-.73.56-2.08 1.5-2.78.17-.13.29-.4.3-.62.07-.94.66-1.64 1.07-2.42 1.07-2 2-4.07 2.72-6.23.13-.38 0-.75.14-1.21a4.3 4.3 0 0 0 1.14-2.86c.03-.7.35-1.44.79-2.1-.47-.64-.38-1.43-.2-2.05.23-.75.08-1.32-.06-2.02a6.21 6.21 0 0 0-1.18-2.75c.1-.4.36-.5.61-.65.29-.16.66-.36.75-.63.55-1.55 1.88-2.48 2.88-3.64 1.37-1.6 2.68-3.27 4.24-4.57.25-.34.04-.64.17-1 1.1-1.04 2.06-2.33 3.08-3.54.93-1.1 2.09-1.97 2.9-3.13a26.26 26.26 0 0 1 3.62-4.18c1.44-1.34 2.26-3.22 3.96-4.33.47-.31.66-1.04 1.08-1.45 1.42-1.4 2.4-3.22 3.92-4.46 1.11-.9 1.56-2.36 2.85-3.04.62-1.26 1.7-2.16 2.6-3.19.98-1.1 1.86-2.3 2.94-3.33.86-.82 1.72-1.65 2.38-2.67.54-.82 1.2-1.57 1.92-2.3.88-.89 1.73-1.82 2.49-2.87 1.02-1.42 2.3-2.7 3.6-3.89.99-.9 1.65-2.05 2.7-2.88.09-.08.12-.24.3-.6-.04 1.05.74 1.32 1.14 2.06-.14.5.32 1 .39 1.6.3 2.37 1.16 4.63 1.4 7.01 0 .1.01.2.06.27 1.19 1.88 1.17 4.11 1.84 6.14-.2.98.52 1.78.47 2.78-.04.94.65 1.8.77 2.8.13.96.54 1.88.76 2.83.15.63 0 1.34.67 1.75-.28.63-.35 1.1.03 1.75.54.92.6 2.05.82 3.1.4 1.77.6 3.61 1.46 5.24.35.65.1 1.33.22 2 .16.88.39 1.74.66 2.56.25.72.6 1.38.53 2.17-.03.41.4.63.53.98-.34.82-.06 1.7.15 2.43.39 1.38.42 2.88 1.27 4.12.05.06.08.18.07.27-.23 1.55 1.01 2.75 1 4.22 0 1.38.76 2.58.72 3.97-.02.76.32 1.56.62 2.28.58 1.4.74 2.9 1.18 4.3.37 1.14.16 2.45.97 3.46-.27 1.34.73 2.44.7 3.75 0 .85.35 1.65.58 2.47.59 2.1 1.17 4.2 1.44 6.38.02.23.1.44.17.67-.53.84-.73 1.82-1 2.75-.4 1.3-.9 2.54-1.38 3.8-.25.68-.38 1.41-.62 2.12-.43 1.3-1 2.6-1.36 3.9-.32 1.16-.76 2.28-1.06 3.45-.3 1.2-.55 2.46-1.21 3.55-.1.17-.15.33-.16.53-.06 1.26-.72 2.3-1.25 3.36-1.77.86-3.69 1.17-5.51 1.73-1.08.33-2.27.47-3.4.71-1.33.29-2.67.47-3.94 1-1.02.41-2.18.51-3.28.72-1 .18-2.06.14-2.94.81-.32.26-.84.17-1.24.18-1.28.05-2.43.77-3.71.77-.55 0-.97.3-1.34.81-1.58-.22-3.03.86-4.69.58-1.13.96-2.59 1.01-3.92 1.4-1.43.42-3 .27-4.4.86-.68-.25-.93.55-1.53.6-.78.06-1.52.5-2.35.29a.6.6 0 0 0-.29 0c-1.64.53-3.28 1.06-5.2 1.7-.8-.1-1.82.2-2.87.52-1.65.52-3.37.78-5.05 1.22-1.17.3-2.44.2-3.48.93-.3.2-.64.17-.97.2-.64.07-1.34-.1-1.87.5-.07.08-.26.08-.4.08-1.43.06-2.73.62-4.07 1.02-.62.18-1.29.3-1.92.35-1 .08-1.92.37-2.86.67l-.14.02c-2.4.19-4.57 1.34-6.92 1.73-.77.13-1.49.5-2.3.61-.5.07-1 .25-1.52.19a2 2 0 0 0-1.22.3c-1 .53-2.07.84-3.23.83-.1 0-.2 0-.29.02-1.75.65-3.62.9-5.4 1.45-.6.18-1.27.22-1.81.72-.42.4-.98-.14-1.56-.18v.03Zm88.26-28.08c-.49.36-.95.83-1.58.86-.85.05-1.64.42-2.52.32-.84-.07-1.44.31-1.6 1.22.67.64 1.36.95 2.3.57.6-.24 1.28-.3 1.92-.43.85-.19 1.78-.2 2.48-.82.19-.39.19-.75-.02-1.15l-.99-.58.01.01ZM108.4 136.76c-1.29.57-2.63.12-3.92.33-.24.16-.43.36-.4.7.02.3.19.53.46.63 1.33.49 2.66.49 3.96-.11.3-.14.53-.4.63-.74.04-.12 0-.27 0-.4-.23-.13-.42-.25-.73-.41Zm-15.92 64.22c.19-.57.11-1-.56-1.2-1.05.3-2.1.43-3.17.03-.38.25-.94.28-1.03.86.2.42.46.77.79 1.05a7.23 7.23 0 0 0 3.98-.74h-.01Zm79.26-46.4c.28.17.55.56.82.49.63-.16.67-.61.98-.89l1.44-.06c.23-.6.22-1.07-.2-1.5-.45-.2-.93-.2-1.36 0-.46.23-.92.44-1.36.54-.21.43-.55.75-.32 1.41Z"/><path fill="#FFC629" d="M58.24 98.77c.8-.3 1.52-.46 2.3-.44.94.03 1.8-.47 2.72-.61.86-.14 1.76-.19 2.6-.51 1.16-.44 2.44-.48 3.6-1 .75-.34 1.67-.17 2.5-.41.26-.08.58.01.82-.17.75-.58 1.6-.46 2.56-.4.6-.4 1.38-.58 2.1-.89l.5.59c.9-.28 1.85-.45 2.79-.8a21.76 21.76 0 0 1 6.66-1.53c.26-.01.46-.07.67-.2.5-.3 1.05-.37 1.63-.39.37 0 .82-.04 1.08-.26.77-.66 1.65-.6 2.62-.53.55-.47 1.29-.41 1.99-.52.86-.15 1.73-.4 2.57-.68.75-.25 1.48-.24 2.28-.25.64-.28 1.27-.78 2.1-.61.13.02.28 0 .41-.05 2.46-.97 5.14-.98 7.64-1.7 1.71-.5 3.51-.55 5.17-1.14.8-.3 1.67-.17 2.47-.5 1.33-.57 2.81-.58 4.2-1.03.96-.3 2-.38 2.92-.92.37-.2.93-.1 1.4-.06.56.03 1.03-.08 1.34-.53.44-.04.78.48 1.12.22.82-.65 1.91-.45 2.75-.94.66-.4 1.39-.15 2.08-.31 1.3-.3 2.52-1.1 3.93-.66.93-.97 2.08-.6 3.26-.69.2-.49.67-.58 1.22-.56.89.05 1.66-.24 2.4-.85 2.13.04 4.2-.58 6.24-1.25.74-.24 1.5-.12 2.22-.39.51-.18 1.12-.16 1.61-.47.52-.32 1-.09 1.48.07 1.13-.73 2.42-.64 3.83-.87.72-.75 2.08-.28 2.93-1.1.67.08 1.25.01 1.85-.23 1.04-.43 2.21-.32 3.3-.56.23-.06.54.05.7-.06 1.39-.99 3.02-.88 4.58-1.15.63-.1 1.21-.43 1.87-.55 2.06-.38 4.14-.76 6.17-1.25 1.26-.3 2.58-.4 3.78-.87 1.52-.57 3.1-.72 4.66-1.01.43-.08.65-.3.92-.56 2-.1 3.98-.28 5.63-1.06 4.38-.67 8.46-1.8 12.65-2.61a.9.9 0 0 1-.29 1c-1 .63-1.35 1.77-2.2 2.5-.5.43-1 .87-1.26 1.53-.23.6-.92.73-1.33 1.2-1.58 1.9-3.11 3.83-4.84 5.58-.54.55-1.33.92-1.53 1.8-.02.1-.2.2-.3.28-1.4.9-2.13 2.34-3.08 3.6-.45.6-1.25.73-1.66 1.45-.44.74-1.25 1.23-1.55 2.12-.06.16-.23.3-.38.41-1.4 1.11-2.42 2.6-3.76 3.76-1.28 1.1-2.1 2.56-3.17 3.82-.9 1.06-1.92 1.98-2.81 3.03-.78.9-1.7 1.69-2.32 2.77a5.62 5.62 0 0 1-1.79 1.8c-.55.36-.67.87-.98 1.43-.63.23-1.28.55-1.46 1.39-.04.2-.3.38-.48.51a6 6 0 0 0-1.81 2.1c-.7 1.32-1.99 2.07-2.92 3.16-.85.98-1.74 1.95-2.61 2.91-.23.24-.45.52-.74.68-.51.3-.68.74-.74 1.28a5.05 5.05 0 0 0-2.02 2.03c-.56 1.15-1.64 1.95-2.42 2.97-.36.1-.71-.12-.88-.3-1.17-1.19-2.66-1.3-4.18-1.3-.69 0-1.3-.23-2.05-.1-1.56.23-2.96.74-4.3 1.53-.37.22-.78.33-1.14.56-.68.42-1.33.82-1.67 1.64-.24.58-.78 1.02-1.18 1.52-1.26-.32-2.2-1.16-3.4-1.48-.95-.26-1.84-.53-2.86-.31-.49.1-1 .41-1.61.16-.44-.17-.8.54-1.4.52-.55-.03-.82.57-1.15 1.06-.46.01-.93.07-1.3.54-1.1 1.34-2.27 2.63-3.4 3.93-.06.07-.16.09-.32.16-.98-.44-2.06-.74-3.16-.93-.3-.06-.6-.28-.87-.48-.5-.39-1.01-.7-1.69-.6-.3.04-.54-.18-.79-.28-1.77-.73-3.48-1.58-5.3-2.18-2.26-.74-4.37-1.88-6.67-2.49-1.86-.49-3.55-1.44-5.34-2.02-2.05-.65-3.9-1.88-6.05-2.21-.99-.9-2.6-.45-3.48-1.6-1.41-.18-2.55-1.23-3.99-1.29-.14 0-.32 0-.4-.07-.87-.78-2.07-.86-3.06-1.34-1.08-.52-2.16-1.05-3.39-1.22-.67-.09-1.3-.48-1.95-.75-2.05-.86-4.07-1.84-6.18-2.54-1.34-.45-2.58-1.04-3.85-1.62-.8-.36-1.7-.51-2.42-1.05-.2-.14-.4-.28-.66-.23-.96.17-1.74-.3-2.55-.68-.67-.32-1.35-.67-2.1-.77a1.57 1.57 0 0 1-.65-.25c-1.3-.76-2.72-1.13-4.16-1.52-.94-.26-1.99-.46-2.56-1.46-.38-.66-.42-.63-.25-2.35l-.01-.06Zm124.67-22.2c.43-.35.85-.61.74-1.21-.2-.29-.52-.32-.81-.45-1.05.47-2.17.12-3.24.31-.42.53-.42 1.06 0 1.6 1.1.24 2.14-.34 3.3-.24v-.02Zm-53.17 38.87c-1.33-.76-2.52-.46-3.73.04-.32.59-.32 1.08.3 1.45 1.2.2 2.15-.9 3.3-.6.27-.34.21-.62.13-.9Z"/><path fill="#FFF4BC" d="M226.8 199.25c-1.36-.18-2.58-.77-3.8-1.23-.34-1.17.26-2.13.63-3.04.41-1 .57-2.07.97-3.07 1.12-2.75 1.52-5.74 2.72-8.49.6-1.4.88-2.93 1.34-4.4.49-1.55 1.02-3.09 1.52-4.64.39-1.25.7-2.5 1.09-3.76.41-1.33.85-2.66 1.27-3.98.52-1.6 1.22-3.14 1.53-4.78.22-1.16.87-2.17 1.03-3.33.12-.88.5-1.66.9-2.45.46-.96.52-2.07.83-3.09.93-3.09 2.03-6.1 3-9.18.3-.93.36-1.95.77-2.8.62-1.3.74-2.7 1.24-4 .5-1.32.97-2.64 1.24-4.02.14-.7.62-1.35.45-2.33 1.64.6 3.04 1.44 4.57 1.2.63.25.91.82 1.49.99-1.12 2.88-2.03 5.78-3.02 8.65-.93 2.7-1.9 5.37-2.73 8.1a159.5 159.5 0 0 1-2.41 7.15c-.36 1-.75 2.01-1.09 3-.26.76-.52 1.58-.81 2.31-.93 2.34-1.32 4.86-2.43 7.14a6.17 6.17 0 0 0-.45 1.77c-.15.98-.85 1.73-1.1 2.68-.28 1.12-.64 2.23-.98 3.34-.4 1.32-.93 2.61-1.44 3.9-.66 1.64-1 3.4-1.66 5.03-.46 1.13-.46 2.39-1.1 3.42-.63 1.01-.91 2.17-1.24 3.27-.43 1.51-1.3 2.89-1.37 4.54-.04.7-.6 1.37-.95 2.11ZM228.69 198.88c0-.28-.1-.62.02-.84.96-2.04 1.43-4.25 2.38-6.28.22-.47.27-1 .42-1.5.5-1.64 1.02-3.27 1.73-4.85.38-.84.57-1.77.8-2.66.32-1.37.94-2.62 1.37-3.95.43-1.38.98-2.72 1.45-4.09.58-1.67.98-3.39 1.82-4.97.13-2.15 1.17-4.04 1.83-6.01.77-2.3 1.39-4.65 2.46-6.84.04-1.48 1-2.67 1.28-4.1.26-1.37.88-2.66 1.34-3.97.53-1.55 1.13-3.08 1.46-4.69.87-.91.7-2.22 1.2-3.24.5-1.04.63-2.2 1.19-3.19.53-.99.6-2.16 1.12-3.15.2-.37.24-.8.37-1.25.88-.59 2.13-.28 2.94-1.12l1.3.44c-.53 2.4-1.9 4.44-2.6 6.97-.58.48-.74 1.46-.92 2.35a5.7 5.7 0 0 1-.85 2.33c-.22.29-.33.55-.3.9 0 .24-.03.51-.15.69-1.02 1.49-1.16 3.31-1.82 4.94-.64 1.6-1.55 3.12-1.77 4.86-.64.7-.81 1.53-.94 2.44a2.24 2.24 0 0 1-1 1.6c-.13 1.6-.78 3.02-1.33 4.46-.5 1.34-1.1 2.66-1.59 4-.43 1.14-1.01 2.25-1.24 3.53-.2 1.16-.84 2.26-1.2 3.41-.8 2.53-2.23 4.83-2.73 7.47-.85 1.34-1.02 2.96-1.8 4.36-.37.7-.92 1.5-.77 2.47.04.27-.2.62-.4.88a3.01 3.01 0 0 0-.47 1.78l-.78.96c-.14 1.75-1.02 3.21-1.6 4.88-.6.2-1.3.35-1.79.94-.06.07-.26 0-.4 0h.02l-.05.04ZM240.94 129.64c.42.85 1.36.2 1.79 1-1.08 1.78-1.59 3.85-2.13 5.86-.76 2.84-1.85 5.57-2.63 8.4-.58 2.1-1.29 4.2-1.98 6.27-.66 2.04-1.32 4.08-1.92 6.15-.92 3.13-1.98 6.22-2.9 9.36-.34 1.13-.57 2.36-1.28 3.39-.1.15-.1.37-.14.55a55.2 55.2 0 0 1-2.22 6.75c.11 1.22-.48 2.3-.9 3.36-1.1 2.71-1.65 5.6-2.75 8.34-.53 1.3-.77 2.77-1.22 4.14-.3.92-.6 1.88-1 2.76-.26.55-.03 1.14-.35 1.73-1.36-.41-1.23-1.83-1.95-2.7.67-1.99 1.33-3.93 1.95-5.88.3-.91.52-1.86.78-2.8.1-.3.15-.64.29-.94.9-1.85 1.3-3.89 2.02-5.81.11-.32.21-.62.25-.95.1-.76.23-1.53.9-2 .38-.28.17-.7.4-1.01.19-.26-.35-.54-.14-.87.17-.27.48-.36.55-.76.28-1.5.94-2.92 1.12-4.46.04-.23 0-.5.13-.69 1.03-1.73 1.45-3.7 2.04-5.6.45-1.42 1.27-2.73 1.32-4.27 1.08-1.04.75-2.56 1.3-3.8.34-.74.61-1.45 1.18-1.99.05-1.18.2-2.28.74-3.3.17-.32.15-.73.28-1.09.74-2.19 1.48-4.38 2.3-6.55.22-.6.1-1.2.25-1.81.22-.8.82-1.41.9-2.25.14-1.35.63-2.65 1.1-3.89.55-1.48.77-3.1 1.87-4.7l.05.06Z"/><path fill="#FFC629" d="M228.66 198.86c0 .11.03.23-.16.22-.07-.19.08-.16.18-.2h-.03l.01-.02Z"/><path fill="#343333" d="M255.75 139.74c-.42-.85.13-1.18.67-1.5 2.25.4 4.5.86 6.82.83.68-.02 1.38.21 2.08.34 1.25.23 2.53.18 3.79.42 1.24.23 2.53.12 3.8.43.76.2 1.57.3 2.36.3 1.49 0 2.91.43 4.4.51 2.06.12 4.12.38 6.17.68 1.22.17 2.45.23 3.66.39 2.51.34 5.05.54 7.56.87 1.4.19 2.8.5 4.23.41.77-.04 1.5.13 2.25.25 1.32.2 2.65.27 3.97.48.63.1 1.2.2 1.6.78-.05.64-.43 1-1.08 1.16-.8-.49-1.81-.33-2.67-.73-1.07.66-2.15.13-3.16-.08-1.94-.38-3.9-.41-5.85-.73-1.67-.28-3.4-.52-5.12-.54a23.24 23.24 0 0 1-5.33-.68c-.32-.08-.66-.08-1-.08a21.6 21.6 0 0 1-5.42-.67c-.84-.21-1.63.13-2.5-.06-2.2-.47-4.47-.6-6.7-.93-1.62-.24-3.27-.33-4.91-.52l-4.13-.44c-1.4-.16-2.8-.3-4.2-.49-.46-.05-.9-.26-1.3-.39ZM249.26 82l1.18.68c1.12-.2 2.24.39 3.42.26 1.35-.14 2.62.2 3.92.45.96.18 1.97.29 3.01.09.58.36 1.25.5 1.95.68 1.34.33 2.8.54 3.7 1.8-.1 1.17-.28 1.37-1.2 1.08-.83-.27-1.68-.21-2.52-.34-1.22-.2-2.33-.7-3.56-.8-1.06-.1-2.12-.29-3.19-.44-1.16-.16-2.35-.12-3.5-.44-1.04-.29-2.15-.3-3.22-.43-1.57-.18-3.08-.69-4.64-.95-.53-.1-.99-.53-1.45-.78-.4-.86.08-1.28.72-1.69 1.75.45 3.5 1.07 5.37.84h.01ZM298.54 66.08c-.47.62-.93 1.1-1.69 1.24a9.36 9.36 0 0 0-2.7-.5 32.52 32.52 0 0 1-4.83-.5 4.8 4.8 0 0 0-1.27-.08c-1.54.17-3-.16-4.41-.66-.96-.36-1.88-.82-2.95-.54-.04 0-.1.02-.13 0-1.15-.82-2.35-.3-3.54-.14-.18.02-.38-.05-.56-.07-.58-.94-.5-1.68.38-2.09.57-.26 1.2-.56 1.9-.5 1.3.12 2.58.26 3.8.8.95.42 1.95.72 3 .63.92-.08 1.76.25 2.63.43 1.44.27 2.88.22 4.31.44.14.03.32 0 .43.07.67.54 1.33.27 2.03-.08.68.41 1.44.35 2.2.38.8.03 1.22.41 1.41 1.18l-.01-.01ZM230.04 74.51c-.9-.72-2.02-.7-3.07-.77a3.63 3.63 0 0 1-2.85-1.45l.37-1.03c.44-.23.82-.1 1.2-.12.32-.02.63-.16.96-.25l1.08.78c1.06-.1 2.12.25 3.2.36.35.04.67.32 1.07.53.22.1.5-.05.78 0 .83.1 1.62.1 2.44.5 1 .5 2.22.38 3.35.36 1.08-.02 2.2-.11 3.15.54a4.34 4.34 0 0 1 3.44.36c.23.33.12.73.17 1.12-.48.75-1.03 1.12-2 .63-.39-.2-.94-.1-1.4-.1-2.35-.01-4.65-.37-6.98-.56-.32-.03-.67-.05-.93-.3-.14-.12-.32-.28-.48-.27-1.18.08-2.3-.55-3.51-.34l.01.01ZM238.76 64.4l1.5.89c.23.56.01 1-.4 1.39-.33.32-.84.09-1.2.4-.17.15-.44.16-.68.07-1.73-.65-3.63-.31-5.4-.89-.77-.25-1.7 0-2.55-.04-1.3-.07-2.57-.29-3.85-.42-.74-.06-1.42-.25-2.12-.37-.49-.1-.72-.4-1.04-.72-.08-.55-.2-1.1.44-1.52 1.32-.2 2.6.22 3.9.39 1.14.15 2.28.35 3.44.23.12-.01.26.03.39.08 2.45.74 4.99.34 7.56.52v-.02ZM260.07 78.82c-.14-.38-.17-.7.02-1.07a3.31 3.31 0 0 1 2.48-.57c2.55.36 5.06.96 7.6 1.35 1.3.19 2.64.1 3.96.35.38.07.83-.15 1.29-.25.51.38 1.04.77 1.6 1.16.31.79-.12 1.33-.73 1.91-1.44-.43-2.97-.54-4.49-.75-1.2-.18-2.43-.21-3.65-.33-.91-.09-1.7-.48-2.59-.62-1.42-.2-2.82-.58-4.29-.58-.42 0-.8-.25-1.19-.6h-.01ZM272.16 72.82c-1-.74-2.12-1-3.35-.9-.23.02-.53.07-.69-.05-1-.66-2.05-.56-3.14-.36-.13.02-.28-.07-.5-.13-.43-.4-.77-.87-.45-1.56.32-.67.95-.71 1.58-.72.1 0 .18.02.29.03 1.76.22 3.55.29 5.3.68.23.05.45.17.68.15 2.12-.14 4.05.7 6.1.94.53.05.88.33 1.16.7.1.35 0 .67-.1 1.03l-1.32.73c-1.24-.34-2.53-.3-3.74-.78-.58-.24-1.19.19-1.8.22l-.02.02ZM309.73 75.4c.49.03.56.38.88.58.81-.04 1.68.12 2.51.47.41.55.57 1.18.46 1.9-1.33.5-2.52-.21-3.97-.56l-.78.18a7.07 7.07 0 0 0-4.84-.58c-.33-.1-.52-.4-.76-.62-.1-.37-.07-.75.05-1.16l.94-.68c1.97-.33 3.75.85 5.5.48ZM254.2 59.8c.05.46.18 1.04-.48 1.53-1.22.05-2.6.07-3.78-.47-1.34-.62-3.14-.41-3.98-1.95-.06-.56.25-.86.52-1.08.58-.28 1.5-.02 2.52.67.31.06.57-.03.88-.22.66.41 1.45.5 2.22.7.7.17 1.56 0 2.1.83ZM228.64 79.45c-.3.64-.6 1.17-1.32 1.45a5.53 5.53 0 0 0-3-.8c-1.04 0-1.86-.9-2.82-.43-.36-.25-.64-.45-.78-.78.07-.56.24-1.09.79-1.37 1.49.28 2.96.52 4.46.57 1.09.03 2 .37 2.68 1.38v-.02ZM246.75 68.55a5.54 5.54 0 0 1-1.4-1.4c0-.58.35-.88.93-1.16 2.02.26 4.25.18 6.15 1.45 0 .73.18 1.35-.4 2.01-1.71-.33-3.43-1.04-5.28-.9ZM283.86 73.35a2.6 2.6 0 0 1-.08-1.75c.5-.62 1.24-.5 1.7-.3a6.6 6.6 0 0 0 3.97.43l1.35 1.22c-.07.44-.2.78-.52 1.12-.4.3-1.07-.04-1.4.64-1.6-1.17-3.5-.61-5-1.35h-.02ZM222.11 56.36c.54-1.1 1.33-1.31 2.39-1.31 1.62 0 3.15.32 4.7.68.3.08.63.18.84.47-.08.65-.5 1.24-1.25 1.8-.9-.47-2.1-.11-2.91-.88-1.29-.18-2.64.3-3.78-.76h.01ZM254.02 78.63a4.93 4.93 0 0 0-1.45-.88c-1.2.34-2.28.11-3.2-.59-.14-.47-.03-.77.24-1a9.61 9.61 0 0 1 5.33-.25l.6.56.09 1.2c-.35.72-1.11.52-1.62.97l.01-.01ZM236.1 79.19c.74.39 1.05.93 1.42 1.34-.07.68-.4.84-.98.89-1.1.08-2.14-.31-3.2-.43-.53-.06-1.03-.17-1.48.12a1.63 1.63 0 0 1-.86-.77c-.08-.8.38-1.24 1.01-1.64 1.4-.22 2.68.93 4.09.49ZM285.58 82.24c-1.79 1.03-3.33.12-4.85-.46-.32-.26-.12-.69-.47-.86.16-.24.23-.44.38-.53.73-.43 1.49-.64 2.37-.4.69.18 1.25.61 1.96.76.68.15.77.75.6 1.5ZM264.44 61.12c-.14 1.01-.63 1.31-1.33 1.53-1.3.4-2.49-.02-3.7-.3-.25-.06-.44-.34-.57-.69.07-.6.22-1.22 1-1.63 1.4.56 3.03.61 4.6 1.08v.01ZM294.88 74.87c-.06-.61-.07-.94.08-1.33.25-.1.55-.25.8-.36 1.22.34 2.41.55 3.66.56.49.3.77.75.87 1.28-.1.43-.4.58-.74.9-1.57-.1-3.2-.29-4.68-1.07l.01.02ZM302.36 66.44c.24-.22.48-.45.74-.66.06-.06.17-.06.38-.12 1.37.75 3.22.6 4.48 1.87-.01.45-.24.73-.64 1-1.56.38-2.92-.64-4.44-.87-.3-.3-.58-.6-.53-1.22h.01ZM293.29 83.62c-.17.1-.4.34-.58.3-1.14-.18-2.34-.14-3.42-.54-.43-.54-.65-1.07-.1-1.75.35-.13.77-.32 1.24-.5.62.2 1.25.37 1.87.6.99.36 1.13.64.99 1.89ZM259.6 69.89c-.2.45-.41.69-.8.88a9.68 9.68 0 0 1-3.6-1.1c-.27-.44-.22-.84-.1-1.25.61-.75 1.47-.1 2.16-.5.62.65 1.54.76 2.11 1.43.12.14.15.33.23.53ZM233.86 56.25c1.44.2 3.06-.5 4.4.6.36.7-.11 1.12-.32 1.72-1.42-.55-3.06.07-4.29-1.1-.1-.4-.26-.82.2-1.22ZM313.82 70.48c-1.09-.52-2.56-.26-3.18-1.7-.1-.61.24-1.03.85-1.35 1.16.34 2.23.9 3.1 1.8-.13.49-.16.98-.77 1.24v.01ZM296.74 82.28c.58.51 1.3.25 1.91.4.77 1.06.77 1.13-.3 2.15-.7-.7-1.87.23-2.55-.74-.03-.73.28-1.33.94-1.81ZM267.85 63.37c-.6-.6-.66-1.13-.38-1.63.54-.56 1.24-.13 1.61-.6.62.33 1.15.64 1.63 1.15.03.12.1.3.08.47-.04.82-.49 1.23-1.14.91-.6-.3-1.16-.3-1.8-.29ZM216.65 169.08l.99.58c.2.4.2.75.02 1.16-.7.6-1.64.63-2.47.81-.65.14-1.32.2-1.92.44-.96.37-1.64.06-2.32-.58.18-.9.77-1.3 1.6-1.21.9.09 1.68-.27 2.53-.32.63-.04 1.1-.5 1.58-.87ZM108.4 136.76c.3.17.5.29.73.4 0 .14.04.29 0 .41-.1.34-.33.6-.63.74-1.3.6-2.63.6-3.96.11a.7.7 0 0 1-.47-.64c-.03-.33.18-.52.42-.69 1.3-.22 2.63.24 3.9-.33ZM92.49 200.98c-1.26.6-2.56.9-3.98.74-.33-.28-.6-.63-.8-1.05.1-.58.66-.62 1.04-.86 1.07.4 2.12.27 3.18-.03.66.2.75.64.55 1.2ZM171.75 154.57c-.23-.66.11-.98.32-1.4.45-.11.9-.32 1.36-.55.44-.21.91-.2 1.36 0 .42.43.43.9.2 1.5l-1.44.06c-.31.28-.35.73-.98.89-.27.05-.54-.34-.82-.5ZM182.9 76.56c-1.16-.09-2.2.49-3.3.24-.41-.53-.4-1.06 0-1.59 1.07-.2 2.18.17 3.24-.3.29.12.62.16.81.44.1.6-.3.86-.74 1.2v.01ZM129.74 115.44c.08.27.14.55-.14.9-1.13-.3-2.08.78-3.3.59-.62-.37-.6-.86-.28-1.45 1.2-.5 2.4-.8 3.72-.04ZM246.16 128.1c.03-.94-.19-1.86.7-2.56 1.37-.08 2.4.92 3.71 1.23.22.25.36.6.47.97-.1.45-.24.9-.67 1.24-.85.36-1.75-.83-2.64.1-.44-.53-1.03-.67-1.56-.98h-.01Z"/></svg>