<svg xmlns="http://www.w3.org/2000/svg" fill="none" viewBox="0 0 390 260"><path fill="#fff" d="M0 0h390v260H0z"/><g clip-path="url(#a)"><path fill="#fff" d="M92.92 27.91h204.17v204.17H92.92z"/><path fill="#343333" d="m179.23 184.16.64-.56c.76.46 1.28-.55 2.02-.22l.55-.7c1.14-.22 2.2-.27 3.24-.35a3 3 0 0 0 2.21-1.16c.27-.06.47.28.87.1.2-.12.37-.42.56-.7.49-.2 1.07-.2 1.44-.7.35 0 .84.17 1.08-.06.51-.52 1.34-.35 1.82-.95.35-.45 1-.57 1.4-1 .17-.18.48-.25.75-.3a2.6 2.6 0 0 0 2.16-1.83c.94-.56 1.8-1.28 2.6-2.13v-1.45c-.13-.2-.2-.02-.27-.02-1.18.02-2.28.43-3.42.65-.23.04-.48.05-.7-.1-.21-.14-.47-.08-.7-.1a5.47 5.47 0 0 1-1.28-.15c-.77-.2-1.62 0-2.4.4-.53-.22-1.09-.47-1.5.14l-.17-.03c-1.1-.13-2.14-.44-3.2-.73-1-.29-1.97-.58-2.53-1.56-.07-.12-.15-.28-.25-.31-.93-.26-.99-1.12-1.1-1.8-.14-.78-.4-1.4-1.08-1.8-.02-.63 0-1.2-.2-1.77-.16-.41-.41-.67-.8-.66-.53.02-1.1-.18-1.55.2a2.56 2.56 0 0 0-2.96.56c-1 .14-2.01.04-2.97.5-.37.19-.93-.15-1.38.15-.08.05-.25 0-.3.05-.59.7-1.52.65-2.27 1.02-.26-.01-.29-.38-.65-.4-.48.32-1.14.39-1.63.82-.66.05-1.32-.1-1.96.07-.2.1-.28.27-.33.43-1.51.61-3.03 1.16-4.32 2.18l-1.09.08c-1.07.58-1.83 1.4-2.88 1.82-.82.32-1.6.84-2.09 1.65-.17.28-.33.56-.67.72-.3.13-.56.4-.7.74-.09.24-.24.45-.46.52-.77.26-1.17.92-1.7 1.44-.36.37-.66.77-1.2.94-.23.07-.38.3-.46.52-.24.65-.69 1.1-1.31 1.4 0 .45-.27.77-.52 1.1-.15.1-.22-.13-.43-.07l-1.62 2a288.6 288.6 0 0 1-3.14 3.81c-.26.3-.61.56-.97.75-.84.48-1.3 1.3-1.87 2-.05.08-.02.2-.03.31l-.8.56c-.85.13-1.27-.46-1.75-.84a3.64 3.64 0 0 1-.1-1.42c.17-.19.31-.51.58-.53.65-.08 1-.58 1.43-.96.46-.38.9-.78 1.15-1.35.08-.17.2-.34.4-.46.39-.26.7-.6.92-1.05.19-.4.56-.67 1-.79.17-.53.13-1.16.84-1.3.15-.48.63-.72.86-1.13.22-.4.58-.55 1.1-.83.01-.01-.06-.2-.02-.37.14-.2.4-.07.54-.17.1-.26-.19-.6.24-.73.03-.01 0-.26.04-.28.62-.31.78-1.04 1.26-1.43.47-.36.9-.82 1.42-1.06.95-.43 1.47-1.24 2.05-2.01.05-.07.02-.2.03-.34.61-.47 1.27-.94 1.79-1.57a3.9 3.9 0 0 1 1.42-1.11 4.11 4.11 0 0 0 1.6-1.24c.32-.41.8-.89 1.77-.65-1.07-.86-.3-1.91-.8-2.64-.06-.38.3-.4.4-.7.05-.3-.08-.7.24-1.02-.21-.76-.55-1.5-.42-2.29.07-.4-.28-.6-.33-.85-.08-.27.12-.26.2-.35l.23-.27c-.1-.37-.16-.76-.02-1.13l-.42-.29c.05-.3.03-.62.16-.88.2-.43.23-.88.11-1.3-.23-.84.09-1.66.05-2.48-.02-.3.12-.53.25-.8-.25-.5-.25-1.05-.25-1.6 0-.64-.08-1.3-.08-1.93 0-.6.1-1.22.07-1.83-.08-1.07-.21-2.14-.32-3.27.05-.08.3-.03.3-.4a7.08 7.08 0 0 1-.03-2.8c.12-.6.18-1.38-.23-2-.14-.2-.18-.4-.12-.58.35-1.2-.1-2.4 0-3.62.02-.38.15-.73.22-1.14-.52-1 .09-2.2-.43-3.24.16-.58.56-1.12.36-1.76-.14-.2-.33-.25-.57-.3-.84 1.09-2.06 1.79-2.78 2.78-.26.19-.32-.1-.47.01-.27.29-.5.64-.7.97-.48.8-1.36 1.22-1.75 2.06-.95.44-1.32 1.41-1.8 2.19a3.38 3.38 0 0 1-2.26 1.67c-.54 1.38-1.83 2.18-2.8 3.3l-.02.6-.2.23c-.84.92-1.8 1.75-2.48 2.77-.5.76-1.06 1.52-1.46 2.37-.2.43-.6.79-1.03 1.1-.79.58-1.23 1.5-1.8 2.3-.08.23.24.4.14.64-.68 1.34-1.53 2.56-2.87 3.25l-.09.8c-.4.21-.74.5-1.04 1.08-.07.13.2.43.06.8-.48.36-.76 1.11-1.65.98 0 .93-.56 1.45-1.2 1.96.2.32-.17.72.22 1.08-.83.97-.88 2.4-1.92 3.18-.16.42.2.87-.15 1.13-.34.27-.04.63-.28.93-.22.27-.28.66-.42 1.02.08.25.27.46.25.82l-.47.61c.07 1.02-.24 2-.37 3-.01.34.35.48.44.87-.23 1.01-.93 1.94-1.1 3.2.06.19.34.45.2.9-.18.6 0 1.27-.35 1.85.17 1.18-.66 2.2-.47 3.39.08.49-.15 1-.38 1.5.33.48.32 1-.01 1.5.1.44.35.85.17 1.42-.56.63-.83 1.43-.3 2.38-.61.58-.23 1.54-.87 2.09.1.35.1.8-.03 1.32l.36.77c-.3.92-.6 1.82-.57 2.81-.34.35-.41.8-.45 1.3-.03.49.13 1.02-.22 1.47.28.48.05.98.06 1.47.02.8-.19 1.62-.64 2.47.31.67.36 1.38-.18 2.06l.42 1.06c-.27.51-.08 1.09-.15 1.6-.08.5.15 1.13-.36 1.54.22.52.36.96.1 1.5-.18.4-.1.89.21 1.24-.18.37-.45.78-.21 1.01.3.33-.1.63.12.92.2.27.13.62.03.89-.4 1.07.04 2.05.21 3.07 0 .17-.13.23-.3.3-.05.25.23.53-.03.8-.48.52-.26 1 .12 1.43 0 .29-.3.37-.39.63-.06.38-.02.77.2 1.14l-.43.45c.51 1.61.3 3.14-1.59 3.56-.28-.1-.6-.21-.9-.15-.43-.34-.46-.82-.75-1.17.12-.4.1-.82-.03-1.28.67-.87.84-1.85.45-3.02 0-.17.3-.25.4-.54l-.4-.8c0-.26.32-.39.37-.64-.12-.64-.37-1.24-.01-1.87.1-.17.08-.42.04-.62a4 4 0 0 1 .26-1.88c-.75-.64-.62-1.59-.43-2.34.19-.72.19-1.23-.2-1.75.03-.31.36-.38.36-.71-.01-.22-.3-.3-.4-.56.03-.07.04-.22.1-.25.32-.2.44-.55.3-.8-.38-.69-.1-1.4-.19-2.08.13-.28.49-.31.6-.7 0-.53.23-1.2-.36-1.68-.05-.5.21-.82.44-1.19-.1-.44-.1-.87.17-1.23l-.47-.83c.42-1.46.95-2.87.49-4.44l.49-.54a7.45 7.45 0 0 1 .45-3.05c0-.3-.28-.5-.24-.8.11-.37.5-.61.48-1.09a2.81 2.81 0 0 0-.26-1.05c-.02-.33.32-.45.37-.66.1-.29-.15-.42-.16-.77.55-.79.72-1.78.41-2.85-.04-.15 0-.34 0-.52l.44-.33c-.22-.55-.05-1.18-.25-1.75a2.54 2.54 0 0 1 .46-2.56c.12-.16.18-.37.26-.54.03-.33-.22-.75 0-.92.42-.35-.05-1.05.56-1.2.02-.61.08-1.16-.18-1.68-.12-.25-.06-.53.05-.8.29-.66.3-1.33.03-1.99-.13-.3-.07-.6-.07-.87.11-.28.4-.07.6-.33-.1-.58.19-1.2.05-1.89-.07-.34.14-.78.38-1.16-.57-.96.3-1.57.64-2.43.04-1.12-.29-2.46 1-3.3.04-.54.2-1 .47-1.35v-1.09a6.57 6.57 0 0 0 1.83-2.87c.22-.45.52-.35.71-.46.18-.2.02-.48.15-.72.34-.08.66-.14.84-.58.24-.57.57-1.11.82-1.68.27-.6.78-1.09 1.22-1.6.15-.17.32-.27.4-.55.12-.5.58-.83.83-1.26.26-.43.5-.79.96-.9.04-.2-.06-.31-.15-.42.51-.7 1.17-1.27 1.64-2a.9.9 0 0 1 .38-.34c.41-.18.7-.42.69-.91-.02-.42.32-.73.52-.96.4-.48.73-1.08 1.33-1.38-.23-.34-.18-.68-.14-1.09.97-.18 1.34-1.01 1.76-1.83 1.09-.18 1.64-1.05 2.05-1.91.21-.46.55-.75.78-1.1.2-.24.05-.52.17-.72.26-.25.58-.33.9-.43.17-.18.07-.4.08-.43.17-.42.46-.25.7-.53.11-.84 1.4-.6 1.74-1.46l.04-.86c.74-.16.72-1.34 1.67-1.28.62-.63 1.33-1.15 1.83-1.9.07-.12.11-.29.21-.35.85-.48 1.17-1.38 1.71-2.1a2.5 2.5 0 0 0 1.68-.98c.52-.7 1.49-.84 2.36-1 .13-.03.27.03.4-.13.12-.52-.15-1.15.28-1.67-.51-.86-.11-1.73-.06-2.59l-.56-.78c.17-.73 0-1.47.17-2.23.11-.53.02-1.2-.08-1.78-.08-.48.01-.85.1-1.14-.33-1 .28-2-.35-2.81.08-.51.29-.95.55-1.34-.1-.75-.52-1.45-.31-2.2.19-.68.05-1.32.01-1.98-.05-1.1.09-2.19.16-3.33-.07-.23-.34-.1-.52-.22l-.3-.57c-.03-.4.26-.65.38-1.04-.37-.28-.44-.72-.38-1.17.11-.9.2-1.8.38-2.68.06-.3.38-.56.53-.78.27-1.44-.19-2.79-.17-4.16a.88.88 0 0 0-.1-.4 3.75 3.75 0 0 1-.46-1.95c.02-.26-.13-.52-.2-.77.08-.5.48-.86.43-1.36 0-.33-.34-.45-.36-.61-.1-.35.11-.5.14-.7.13-.96 0-1.9-.12-2.88-.18-1.4-.6-2.81-.08-4.24-.29-.77.31-1.53.02-2.3-.06-.15 0-.33.1-.49.17-.32.15-.69.07-1a14.1 14.1 0 0 1-.4-3.65c0-.1.05-.24 0-.31-.8-1.26.05-2.61-.2-3.9-.07-.36.25-.62.36-1.07-.13-.23-.17-.6-.17-.97 0-.47.05-.94-.16-1.41-.16-.37-.06-.82.25-1.15-.39-.55-.74-1.05-.34-1.71.26-.43-.17-.75-.38-1.07.31-.65.24-1.34.4-2 .17-.63-.28-1.3-.03-2.06a1.28 1.28 0 0 1-.18-1.6c.09-.16.02-.4.03-.61.02-.74-.3-1.46 0-2.2.13-.32-.22-.55-.23-.88 0-.61.3-1.23.04-1.86-.08-.2.2-.23.34-.36-.44-.77.14-1.77-.56-2.47.14-.59.16-1.1.07-1.7-.09-.62-.25-1.35.11-2.02.2-.37.36-.82.18-1.28-.13-.34.13-.58.21-.85.03-.26-.26-.2-.32-.33-.12-.29.28-.42.17-.68-.02-.32-.34-.43-.45-.69-.1-.61-.04-1.19.48-1.63l-.46-.93c.47-.43.21-.96 0-1.38-.45-.97-.26-1.84.13-2.79-.15-.54-.1-.93.44-1.32.36-.25.47-.55.56-.87.5-.35.93-.75 1.44-.98.5-.21 1.1-.25 1.64-.45.4-.16.82-.26 1.29-.23.46.04.96-.11 1.3-.46.36-.35.78-.54 1.24-.72.2-.03.16.17.32.32.73.08 1.6-.06 2.36.47l.62-.4c.3.15.6.14.96.07.75-.18 1.55-.29 2.35.12l.88-.4 1.16.41c.6-.3 1.3-.43 1.98-.6.2.14.35.32.38.66.57-.46 1.22-.12 1.67-.54.7.31 1.36.37 1.91.05.27.03.3.18.4.34.77-.43 1.6.43 2.4-.14l2.48.3.38-.29c1.35-.03 2.7.3 4-.19.2.03.14.3.4.4.56.08 1.15-.32 1.81-.21.47.08.92.37 1.4.2.7-.25 1.49-.11 2.2-.45l1.62.6c.37-.13.8-.23 1.19-.41.33-.16.68-.16 1-.12 1.3.14 1.3.16 2.29-.25.35.3.89.12 1.32.45.27-.22.62-.34.94-.21.88.35 1.77.16 2.65.19.38.02.76.02.98.37.7-.3 1.37-.08 2.13-.17.62-.71 1.4-.47 2.21-.2.84-.28 1.7-.23 2.67-.11.03-.04.16-.14.3-.25.62-.23 1.27.01 1.9-.17.37-.1.75.26 1.16.35.65.15 1.3.27 1.94 0a.32.32 0 0 1 .2-.02c1.14.35 2.28-.2 3.4 0 .17.03.36.02.51.08.4.18.77.15 1.18 0 .56-.2.78-.11 1.22.22 1.28-.15 2.5-.35 3.8.08.67-.42 1.43-.58 2.18.07l3.15-.65c1 .23 2.06.51 3.14.06.53-.22 1-.07 1.35.34l1.1-.23c.48.53 1.1.5 1.76.37 1.2-.25 2.4-.4 3.62-.36.16 0 .31.12.5.2.53-.15 1.1-.48 1.62.14.23-.06.46-.23.86 0 .22.25.7.46.99.92.79-.05 1.35.26 1.91.8.48.44.86 1.02 1.49 1.34.07.91.18 1.82.57 2.71.27.63 0 1.27-.53 1.72.07.87-.06 1.7.16 2.56.1.37.14.85-.1 1.3-.18.3.2.66.16 1.06-.06.45-.07.9.12 1.4a2 2 0 0 1-.04 1.18c-.2.76-.32 1.55.03 2.33.19.41.15.88.08 1.3-.07.44.02.8.2 1.19-.29.95-.49 1.92 0 2.85l-.36.5.23.4c-.31.5-.2 1.05-.13 1.67.12 1 .2 2.05-.13 3.06-.16.45-.16.92.01 1.43.27.8.41 1.65.38 2.5 0 .23-.13.45-.19.6-.03.4.33.5.4.76-.22.64.2 1.29-.1 1.95-.27.57.08 1.3-.3 1.8-.02.42.33.52.42.88v3.44c-.04.32-.3.37-.4.55-.15.4.11.64.34.9-.01.06 0 .15-.04.19-.32.39.28.79-.06 1.25-.19.26-.18.8.1 1.18.04.06.03.2 0 .28-.25.7-.2 1.37 0 2.1.14.5.22 1.09-.3 1.5.62.71.45 1.03-.04 2.6.39.98.1 2.1.59 2.93-.2 1.24-.46 2.35-.38 3.53l.39-.12c-.28.8.16 1.67-.45 2.42.47.85.06 1.8.39 2.66-.31 1.35.07 2.8-.59 4.13.22.7.24 1.83.27 2.6.03 1-.08 1.97.11 2.97a5.2 5.2 0 0 1-.08 2.32c-.2.77-.01 1.63 0 2.45l.05 1.5c-.12.18-.15.38-.02.57.19.26.14.49 0 .76-.1.2-.12.46-.12.7v4.29c.8.06 1.32.65 2.04.77.29 1.07 1.22 1.45 2.08 1.98.44.75.64 1.63.7 2.54.77.52.94 1.34.76 2.12a3.1 3.1 0 0 0 .03 1.88c.08.22.01.47.01.77l-.58.66a12.71 12.71 0 0 1-.72 3.8c-.3.12-.76.1-.78.62-.02.37-.34.54-.55.7-.35.25-.62.48-.73.92-.09.35-.43.55-.77.62-.62.12-.88.6-1.08.88 0 1.36.23 2.56-.14 3.74.04.36.38.38.56.54l-.38.77a11.9 11.9 0 0 0 3.09 1.75c-.1 1.01.72 1.6 1.04 2.39.31.76.8 1.46 1.46 1.97 0 .27-.44.5-.02.72-.05.28-.37.35-.37.62.46.64.7 1.29.44 2.14-.19.63.03 1.34-.21 2.02-.1.27-.3.44-.42.69.33.24.06.67.36.98-.38.29-.63.66-.59 1.15.03.31-.14.52-.27.76-.21.4-.82.45-.83 1.09-.01.37-.66.58-.6 1.1-.55.37-.81 1.04-1.31 1.38-.63.42-.87 1-1.16 1.6.06.51.42 1.03.03 1.55.45.33.87.6 1.26.92.39.33.57.88 1.11 1 .18.53.15 1.03.1 1.54-.03.27-.1.57.07.8.47.59.55 1.3.76 2.01-.19.68-.45 1.38-.55 2.1-.1.73-.72 1.32-.5 2.1a5.5 5.5 0 0 0-1.25 1.9c-.12.31-.3.62-.58.83-.46.34-.62.86-.6 1.34.04.64-.19 1.3.12 1.92.1.22-.18.37-.13.58.09.36.47.5.64.9-.53.54-.38 1.2-.26 1.9a5.3 5.3 0 0 1-.1 2.3c-.02.08-.07.14-.06.2.1.98-.22 1.87-.56 2.76-.12.32.28.7-.07 1-.03 1.14-.84 1.76-1.67 2.46.16.86-.55 1.4-1.02 2.08h-.73c-.38.13-.56.39-.83.65-.79-.22-1.68.66-2.44-.2-.44.3-.89.19-1.35.13-.56.2-1.07.88-1.73.13-.63.5-1.34.28-2 .38-.62.08-1.26-.06-1.82.35a4.63 4.63 0 0 0-2.78-.04c-.25.06-.55.13-.78.06-.72-.25-1.47-.23-2.2-.34-.94-.15-1.89-.47-2.9-.09-.93.36-1.93.01-2.9 0-.33 0-2.05.05-2.39.12-.44.1-.88.18-1.38.27-.13.4-.63.63-.93 1.04-.3.4-.46.82-.39 1.31-.56.32-1.06.67-1.36 1.21-.13.25-.3.47-.52.57-.94.43-1.1 1.58-1.96 2.07-.25.14-.3.52-.25.85.06.53-.18 1-.6 1.22-.52.27-.7.7-.93 1.16l-.94.67c-.08.32.02.7-.14 1.06a2.8 2.8 0 0 0-1.57 1.36c-.16.3-.35.66-.75.8-.14.06-.33.23-.35.36-.1.83-.9 1.24-1.09 1.86-.82.53-1.57 1-1.93 1.8a2.91 2.91 0 0 1-1.23 1.46 3.2 3.2 0 0 1-1.81 2.22c0 .01-.06.07-.06.14-.07.43.13.88-.16 1.3-.26.38-.73.4-1.07.65-.16.1-.35.19-.55.29l-.26.66c-.36.01-.7.04-1 .06-.73.65-.92 1.63-1.66 2.24-.02.23-.05.46-.06.73-.88.21-1.8.42-1.86 1.73 0 0-.17.05-.26.18-.66.96-1.61 1.69-2.08 2.79a1.5 1.5 0 0 1-.55.59c-.63.32-.98 1.01-1.67 1.23-.17.05-.18.18-.2.32 0 .34-.24.46-.58.56-.02.82-.46 1.42-1.22 1.85-.1.35-.14.77-.44 1.16-.66.2-1.22.61-1.78 1.15a7.73 7.73 0 0 1-2.33 1.72c-.36-.25-.92-.03-1.28-.47-.14-.27.12-.68-.25-.85.15-.74.71-1.23.68-1.9.78-.7 1.84-1.06 2.14-2.2l.5.11c.18-.5.73-.7.9-1.23.18-.58.75-.76 1.11-1.03.28-.26.17-.58.31-.81.37-.25.65-.62 1.13-.76.05-.48.1-.95.46-1.37.2-.05.43-.08.65-.17.3-.13.67-.2.67-.65 0-.14.18-.3.31-.39.83-.55 1.41-1.33 2.06-2.14l.11-.85c.4-.46 1.07-.7 1-1.41a4 4 0 0 0 2.24-1.99c.32-.72.85-1.02 1.44-1.3a5.8 5.8 0 0 0 2.7-2.46c.27-.47.72-.73 1.06-1.24l.04-.66c.4-.46.95-.68 1.07-1.31.06-.27.36-.5.7-.54.3-.05.6-.24.6-.5-.02-.73.5-.99 1.04-1.3-.03-.8.6-1.21 1.13-1.56.44-.28.67-.62.85-1.1l.72-.37c.74-1.2 1.56-2.25 2.56-3.42.07-.12.03-.42 0-.71.25-.2.46-.38.65-.63.28-.37.34-.97.97-1.09.17-.03.35-.42.4-.67.07-.29.14-.53.38-.7.77-.59 1.2-1.49 1.95-1.98.06-.28 0-.5-.16-.53-.77-.15-1.5-.61-2.35-.21-.4.19-.44.13-1.23-.13-.74.82-1.56.37-2.45.01-.45.47-1.19-.07-1.64.45l-.92-.46c-.78.26-1.65.2-2.5.25-.2 0-.41-.04-.6.07-.33.2-.63.13-.98-.01-.45-.2-.92-.18-1.33.14a.86.86 0 0 1-.94.1 3.76 3.76 0 0 0-2.6-.35c-.69.15-1.47.13-2.23-.07-.6-.17-1.26.01-1.89.3-.44-.25-.92-.32-1.39-.03l-.76-.38c-.74-.03-1.5.13-2.26-.11-.7.6-1.49.33-2.37.12-.95.54-2 .52-3.06 0-.28.14-.58.29-.88.42a5.55 5.55 0 0 0-3.43.37 3.7 3.7 0 0 1-2.35.45c-.25-.05-.49-.09-.7.04-.35.2-.74.14-1.1.15-.43 0-.93-.3-1.3-.17-.4.15-.76.16-1.16.21-.8.11-1.57-.02-2.35-.1-.81.68-.98 1.61-1.14 2.56-1.05.51-.54 1.5-.7 2.3l-.92 1.17c.44.99-.33 1.68-.92 2.18-.77.66-.9 1.38-.89 2.25v.4c-.68.54-.66 1.36-.91 2.13-.8.06-1.01.72-1.15 1.4-.15.86-.35 1.71-.67 2.53-.06.17-.1.32-.22.45-.79.88-1.26 1.93-1.8 2.98v1.05c.02.25-.45.15-.41.46a.5.5 0 0 1-.28.52c-.79.42-.95 1.28-1.38 1.96-.1.14-.05.4-.06.57-.97.71-1.06 1.97-1.95 2.83-.25.1-.65.03-.93.28a5.44 5.44 0 0 1-1.8-1.37c.09-.7.3-1.36.6-1.99.17-.36.29-.75.6-1.05.45-.44.4-1.13.72-1.66.13-.26.42-.1.64-.22.17-.35.4-.69.5-1.06.11-.45.53-.5.77-.77l.08-1.06c.81-.76 1.09-1.86 1.72-2.74.2-.29.03-.6.17-.88.25-.54.18-1.2.74-1.63.17-.13.24-.5.24-.76 0-.78.41-1.35.9-1.97-.2-.61.17-1.19.23-1.78.12-.39.58-.3.75-.76-.13-.58.7-1.03.43-1.76.47-.28.68-.66.95-1.01 0-1 .39-1.8 1.5-3.3a3.3 3.3 0 0 1 .5-1.9c.24-.48.7-.86.76-1.43.05-.48.43-.79.63-1.19.17-.34.15-.71.34-1.04.49-.86 1.05-1.65 1.6-2.47.36-.56.9-.93 1.4-1.3.72-.56 1.55-.97 2.36-1.39.64-.34 1.35-.39 2.13-.46l-.1.07ZM158.12 62.6c.49 2.06.45 4.07.22 6.08.04.25.33.15.42.41-.1.29 0 .66 0 1.03-.03 1.12-.44 2.22-.21 3.38.1.49.02 1.01.02 1.46l.46.3c-.13.46 0 .94-.05 1.5-.44.35-.43.9-.38 1.47l.4.52c-.1.37.02.77-.01 1.1-.14.3-.44.1-.6.4-.08.7.26 1.42.34 2.18-.08.14-.33.12-.33.32a6.6 6.6 0 0 1 .27 3.47l.34.4c-.3.65-.29 1.3-.06 1.97-.44.63-.07 1.38-.3 2.09-.2.57 0 1.3-.05 1.95-.05.71 0 1.45 0 2.08.42.92.96 1.73.24 2.68-.1.16-.01.47-.01.71.1.21.34.32.38.59.08.46-.13.86-.21 1.2.06.33.41.38.38.66-.1.28-.5.06-.57.36-.22.47.28.81.2 1.28-.1.57.46 1.16.01 1.75.28.31.07.6.05.93-.03.29 0 .6-.03.93-.05.76.18 1.53-.02 2.29-.03.08.06.19.08.28.14.57.25 1.16 0 1.7-.16.3.11.43.1.65l-.4.83.37.51c0 1.63-.04 3.17.02 4.72.03.86.18 1.73.44 2.61-.44.36-.2.92-.3 1.39-.08.35.24.8.55 1.1-.5.42.1.81-.07 1.2-.03.24-.35.2-.4.43.26.4.08.93.43 1.3-.7.78-.32 1.65-.17 2.43.1.52.2.97.03 1.48-.18.53-.22 1.07.13 1.49-.36 1.41-.69 2.75 0 4.1-.31.43-.3.9-.13 1.36.19.54.2 1.11.06 1.6-.22.73-.12 1.42-.09 2.14.03.47.23.98.11 1.41-.13.51.03.9.1 1.36.1.47-.18 1 .19 1.4-.08.1-.11.17-.16.2-.08.07-.17.1-.24.13.44.78-.22 1.68.37 2.4-.1.2-.26.34-.23.58.08.7-.16 1.32-.5 1.91-.2.31-.17.66-.03.99.15.32.09.8.63.78.19-.62.88-.13 1.2-.63.43 1.02 1.18.13 1.76.44.4.21.86-.26 1.34-.35l.32.45c.33-.37.8-.2 1.22-.32.8-.2 1.63-.55 2.47-.12.12.05.27 0 .4 0 1.11.15 2.21-.38 3.32-.03.12.04.28.02.4-.04.69-.36 1.5 0 2.19-.36.13-.06.34 0 .49.05.73.2 1.46.19 2.2.03.85-.18 1.7-.33 2.5.06.47-.15.89-.38 1.38-.37.49 0 .93.23 1.45.04.42-.15.95-.12 1.3.23l2.75-.81c.25.23.52.4.82.49.85-.47 1.69-.5 2.52-.04.62-.51 1.25-.3 1.78-.1.38-.04.48-.4.77-.42h1.87l.88.44c.51-.46 1.16-.47 1.81-.45.2 0 .4-.03.6-.08a9.17 9.17 0 0 1 3.37-.04c.58.08 1.13.16 1.72.14.4-.02.87-.24 1.17-.15.45.13.87.12 1.3.14.48.02.93.2 1.38.23.85.07 1.6-.38 2.34-.77.09-.04.19-.05.22-.06.3 0 .24.29.38.34.48.16.9.03 1.24-.16a6.7 6.7 0 0 0 4.03 0c.48.31 1.04.31 1.57.17.65-.18 1.33-.26 1.97-.42.77-.2 1.33-.1 1.78.46.3 0 .55.04.78 0 .3-.07.51.14.77.22.47-.29 1-.44 1.45-.6 1.33.31 2.69.11 4.03.62.32-.64.99-.69 1.6-.89l.24.37c.1-.05.25-.15.34-.12.78.23 1.51 0 2.25-.18.16-.04.39-.07.5 0 .4.25.81.15 1.22.15.5 0 1.03-.16 1.49-.14.48.04 1.01.1 1.51.17.2.04.42.02.61-.03.75-.2 1.5-.16 2.2.06.57.17 1.06.12 1.6.05.84-.1 1.66-.35 2.54-.3.84.07 1.66.17 2.47.39l.56-.39c1.19 0 1.96-.12 2.32-.36.1-.88-.26-1.7-.36-2.59.17-.3.19-.72.55-.98a.59.59 0 0 0 .2-.65c-.3-.93-.24-1.93-.6-2.81.17-.38.31-.73.49-1.1-.32-.46-.25-.98-.28-1.5-.03-.47-.03-.93-.15-1.41-.14-.62-.2-1.37.03-1.94a3.7 3.7 0 0 0-.09-2.9c.29-.85.33-1.65.08-2.46-.06-.19-.12-.44-.05-.6.5-1.18-.35-2.42.18-3.59.03-.04-.03-.13-.05-.2a4.77 4.77 0 0 1 .07-2.82c-.08-.26-.18-.51-.24-.78-.36-1.42-.1-2.82.05-4.23.1-.88.03-1.75-.3-2.54-.2-.47-.23-.81 0-1.25.17-.29.35-.6.26-.96-.16-.74-.06-1.54-.26-2.21-.22-.72-.1-1.24.22-1.8a5.07 5.07 0 0 1 .03-2.81l-.33-.46c-.31-1.28.6-2.41-.14-3.59.48-.55.17-1.24.3-1.79.11-.3.45-.36.37-.8-.14-.37-.45-.85-.39-1.4.12-.84-.44-1.67-.04-2.51.04-.08-.02-.2-.05-.3a7 7 0 0 1-.08-2.96c.1-.68.08-1.34.13-2.02.07-.91-.15-1.86.28-2.75-.2-.32-.42-.62-.47-1.01-.05-.41.24-.7.23-1.13l-.5-.62c.23-1.1.1-2.25.72-3.3-.03-.23-.03-.52-.11-.77a5.1 5.1 0 0 1-.14-3.4.66.66 0 0 0 0-.4c-.39-1.38-.19-2.79-.16-4.19 0-.49.1-.98-.04-1.47-.17-.69-.32-1.35-.02-2.07a1 1 0 0 0-.16-.98c-.14-.18-.17-.44-.2-.54-.05-.33.14-.45.14-.6 0-1.1.15-2.2-.07-3.3-.03-.12-.16-.24-.06-.37.35-.5.13-.98-.06-1.43a3.7 3.7 0 0 0 .1-2.43c-.1-.35-.16-.73-.05-1 .16-.39.12-.72.14-1.1.06-.95-.37-1.88-.1-2.96.53-.52.49-1.15-.06-1.69-.06-.41.35-.64.17-.97-.4-.75-.4-1.53-.18-2.34.2-.72-.08-1.47.02-2.2.09-.65.33-1.29-.04-1.96-.1-.2.03-.54.1-.8.05-.16.15-.3.1-.49a5.2 5.2 0 0 1 .05-2.97 1.56 1.56 0 0 1 .03-1.68 1.5 1.5 0 0 1-.03-1.64c-.53-.93 0-1.93-.31-2.87-.7-.24-1.47-.21-2.13-.55-.06-.02-.13.01-.2.04a3.2 3.2 0 0 1-2.28-.03c-.22-.08-.46 0-.7.07-.65.16-1.27.51-1.96.29a3.8 3.8 0 0 1-.2-.3c-.4.1-.72.49-1.16.35-.7-.22-1.37-.6-2.14-.27-.67-.44-1.24-.02-1.83.25a2.38 2.38 0 0 0-1.74-.4c-.9.1-1.83-.18-2.72.2a.45.45 0 0 1-.3 0c-.83-.42-1.66-.21-2.41.01l-.95-.44c-1.18.55-2.41-.04-3.56.36-.08-.14-.08-.36-.42-.3l-1.91 2.38-.08.83-.53.41c-.13.33.18.5.13.74-.64 1.12-1.96 1.55-2.5 2.52-1.25.23-2.32.73-3.66.6-.45-.4-1.23-.26-1.94-.28a1.11 1.11 0 0 0-.93-.6l-.93.46c-.5-.21-.98-.33-1.56-.1-.33.14-.8.12-1.2-.02a3.47 3.47 0 0 0-2.4.03c-.28.1-.6.12-.81.02-.44-.23-.95-.1-1.36-.44-.39.3-.84.3-1.2.48l-1.23-.45c-.47.47-1.15.06-1.7.4-.38-.54-.96-.44-1.42-.34-.85.2-1.7.16-2.54.18l-.29.02-.8.42c-.36-.4-.85-.16-1.37-.25-.05.56-.48.65-.84.82-.42-.08-.7-.4-1.01-.58-.48-.05-.94.08-1.43-.09-.13-.81-1.15-.43-1.52-1.16 0-1.21-.9-2.33-.9-3.68-.55-.5-1.2-.15-1.78-.25-.6-.1-1.21-.1-1.82-.15l-.5.36c-.53-.37-.92-.09-1.27.15-.96-.25-1.9-.3-2.78-.1-.65.16-1.18 0-1.73-.17a2.38 2.38 0 0 0-1.52 0c-.74.27-1.5.38-2.23.59-.63.17-1.06.08-1.4-.27-.35 0-.59.03-.82 0-.33-.06-.5.19-.73.32a.7.7 0 0 1-.77-.04c-.2-.14-.32-.37-.61-.44-.53.4-1.25.06-1.83.4-.7-.46-1.22 0-1.77.32s-1.1.36-1.63.04c-.89-.5-1.75-.26-2.6.08-.63.25-1.25.6-1.89.14-.34.16-.61.39-1.05.44-.15.08-.3-.35-.59-.11-.15.24-.06.53 0 .78.16.63.55 1.22.2 1.91-.04.07.03.2.05.29.29.9.2 1.85.1 2.75-.16 1.27-.24 1.27.18 2.52.02.07-.03.1-.04.16-.04.48-.07 1-.05 1.45.04.79-.2 1.57.06 2.38.16.49.23 1.06-.03 1.59-.15.29-.13.61-.04.9.36 1.05.02 2.17.37 3.23a.4.4 0 0 1-.06.29c-.28.4-.12.78.06 1.16.23.5.3 1.08.2 1.59-.17.71.13 1.45-.19 2.14-.07.14-.1.4-.02.5.37.43-.15.97.24 1.36l-.47.54.04-.04Zm46.98 98.8c-.45.55-1.12.29-1.76.61-.24.05.04.47-.2.65l-1.44.39c.38.96 1.04 1.67 1.56 2.66.07.64-.1 1.53.62 2.14 0 .41.11.84-.03 1.16-.3.73.02 1.33.25 1.95.13.34.24.7.37 1.06l-.45.63c.63.38.06.8.05 1.21 0 .46-.34.89-.17 1.43.3.1.65.04.96.24.55.33 1.14.32 1.76.1.44-.16.97-.33 1.37-.2.9.28 1.48-.03 2.03-.74h1.87c.47-.57 1.22-.82 1.21-1.62l.52-.1c.3-.44.38-.97.85-1.29.26-.19.33-.57.36-.93.07-.78.22-1.54.27-2.32.03-.63.37-1.25-.25-1.78-.15-1.05-.76-1.75-1.57-2.38a3.95 3.95 0 0 1-1.26-1.44 8.52 8.52 0 0 0-2.09-.83c-.7-.19-1.46-.18-2.15-.52-.27-.13-.7-.18-.97.1-.32.34-.69.27-1.08.28l-.64-.45.01-.01Zm-6.7 3.04c-.65-.17-1.13.06-1.62.18-.62-.31-1.23-.6-1.86-.93-.54.44-1.24.43-1.78.66-.88-.28-1.7-.7-2.55-.74-.86-.05-1.75.27-2.62.43.03.56 1.44 3.14 1.87 3.38.1.41 0 .82-.06 1.22.22.3.42.56.64.88.39 0 .8.04 1.18.2.2.07.43.1.6 0 .48-.32 1.01-.15 1.51-.15.47 0 .93.03 1.4.02.6 0 1.22-.03 1.85.07.69.11 1.48.24 2.17-.23.24-.16.53-.13.77.09l.63-.3.29-.88c-.47-.75-.5-.8-.46-1.8-.22-.41-.76-.58-.8-1.14-.05-.64-.9-.4-1.1-.91 0-.03-.05-.04-.06-.04v-.01Zm56.2-18.88c-.18-.3-.36-.3-.45-.48-.63-1.06-.92-2.32-1.94-3.15-.1-.09-.1-.31-.14-.47-.25-.02-.39-.3-.65-.24-.31.55-.37.65-.2 1.1.08.26.1.46 0 .69-.13.33-.04.63 0 .97.13.75.08 1.54.47 2.26a.7.7 0 0 1-.01.6c-.23.29-.1.6-.13.9-.1.9.1 1.82-.25 2.7-.1.26.1.52.14.71l-.33 1.03c.48.33.52.89.77 1.55.31-.64.72-1 1.1-1.44v-1.22c.6-.31.76-.96 1.09-1.32l.52-4.19ZM252 128.5s.17-.09.24-.2c.25-.42.26-.91.56-1.36.24-.36.33-.94.35-1.4.03-.73.23-1.34.68-1.86-.38-.74-.22-1.44 0-2.11l-.67-.61v-1.78c-.92-.16-1.12-.91-1.34-1.61-.28.05-.5-.16-.84.16.74 1.08-.29 2.36.3 3.56-.35 1.25-.18 2.56-.56 3.72.51 1.17.14 2.56 1.27 3.5h.01Zm-67.54 36.19c-.02.52-.16 1.17.28 1.53.32.26.36.6.55.9.19.3.27.62.66.81.33.18.6.56.66 1.02.41-.08.8.04 1.14-.16-.04-.43-.46-.55-.6-.86-.04-.77-.74-2.1-2.08-4.01-.3.3-.65.06-.98.04-.14.4.25.4.37.73Zm67.45-2c-.22.09-.22.22-.2.36.06.6-.15 1.24.19 1.8-.45.93-.07 1.82.12 2.95.4-1.44.74-2.66.74-3.84-.15-.33-.38-.41-.59-.53-.16-.21.1-.58-.27-.75Z"/><path fill="#FFC629" d="m158.12 62.59.46-.54c-.39-.39.13-.93-.24-1.36-.08-.1-.04-.36.03-.5.3-.7.01-1.44.18-2.15a2.6 2.6 0 0 0-.2-1.59c-.17-.38-.34-.75-.05-1.15a.4.4 0 0 0 .05-.3c-.35-1.05-.02-2.17-.36-3.23-.1-.28-.1-.6.03-.9.26-.52.2-1.1.04-1.59-.26-.8-.02-1.59-.06-2.37-.03-.46 0-.97.05-1.45 0-.06.05-.1.03-.17-.41-1.24-.34-1.24-.18-2.51.11-.9.2-1.85-.1-2.76-.02-.09-.09-.22-.05-.28.36-.7-.04-1.28-.2-1.92-.06-.24-.14-.53 0-.77.3-.25.44.19.6.1.43-.04.7-.27 1.05-.43.64.46 1.26.12 1.88-.14.85-.35 1.71-.59 2.6-.08.55.32 1.1.29 1.63-.04.55-.33 1.08-.79 1.77-.33.58-.34 1.3 0 1.83-.4.29.08.42.3.62.44a.7.7 0 0 0 .77.05c.23-.13.38-.38.72-.32.23.04.48 0 .83 0 .34.34.77.44 1.4.26.73-.2 1.5-.32 2.23-.58a2.5 2.5 0 0 1 1.51 0c.54.17 1.09.33 1.74.17.88-.2 1.82-.16 2.78.1.34-.24.74-.52 1.27-.15l.5-.37c.6.06 1.2.07 1.82.16.58.09 1.23-.26 1.78.25 0 1.36.89 2.46.9 3.68.37.73 1.39.35 1.52 1.16.49.17.94.03 1.42.08.3.2.6.5 1.01.6.37-.18.8-.27.85-.83.5.09 1-.15 1.37.25l.8-.42.28-.02c.85-.02 1.7.02 2.54-.18.47-.11 1.05-.2 1.42.34.55-.35 1.23.07 1.7-.4l1.24.45c.36-.17.8-.2 1.2-.49.4.34.91.23 1.35.45.22.1.54.08.8-.02.8-.29 1.61-.31 2.4-.04.42.15.89.17 1.22.03.56-.23 1.05-.11 1.56.1l.92-.47c.4.04.71.19.94.61.7.02 1.48-.12 1.93.29 1.35.12 2.41-.38 3.67-.62.54-.96 1.85-1.4 2.5-2.51.04-.24-.26-.42-.13-.74l.53-.42.07-.82 1.91-2.4c.34-.04.34.18.42.32 1.16-.4 2.39.19 3.56-.36l.95.44c.76-.22 1.58-.43 2.41-.02.09.04.22.04.3 0 .9-.37 1.82-.09 2.73-.19.62-.07 1.21.02 1.73.4.6-.27 1.17-.7 1.83-.25.77-.33 1.44.05 2.15.26.44.14.75-.25 1.16-.34l.2.3c.68.22 1.31-.14 1.95-.3.24-.05.49-.14.7-.06.76.31 1.51.28 2.28.02.06-.01.15-.05.2-.03.67.34 1.44.31 2.13.54.32.95-.21 1.95.31 2.87a1.5 1.5 0 0 0 .04 1.64c-.37.57-.31 1.16-.03 1.69a5.2 5.2 0 0 0-.06 2.97c.06.18-.05.33-.1.5-.06.25-.2.6-.1.79.38.67.14 1.3.05 1.96-.1.73.17 1.47-.03 2.2-.22.8-.22 1.58.18 2.34.18.34-.22.56-.16.97.54.53.59 1.17.06 1.69-.28 1.08.16 2 .1 2.96-.03.37.01.72-.14 1.09-.13.28-.06.66.04 1 .25.8.22 1.6-.1 2.44.2.45.41.92.06 1.42-.09.13.04.25.06.38.22 1.1.08 2.2.07 3.3 0 .15-.2.27-.14.6.03.1.07.35.2.53a1 1 0 0 1 .16.99c-.3.72-.15 1.39.03 2.07.12.49.04.98.03 1.47-.03 1.4-.22 2.8.16 4.19.04.13.04.28 0 .4a5.04 5.04 0 0 0 .14 3.4c.09.25.08.53.11.77-.62 1.04-.48 2.2-.72 3.3l.5.62c0 .42-.28.72-.22 1.12.05.4.27.7.46 1.02-.42.9-.2 1.83-.27 2.75-.06.67-.03 1.34-.13 2.02-.15.96-.21 1.99.07 2.96.03.1.1.23.06.3-.4.84.14 1.66.04 2.5-.07.55.24 1.04.39 1.4.08.45-.25.5-.37.81-.13.55.18 1.24-.3 1.79.74 1.17-.18 2.3.13 3.58.05.06.2.25.34.46-.3.93-.29 1.88-.03 2.83a2.1 2.1 0 0 0-.23 1.78c.2.69.1 1.48.27 2.22.08.36-.1.68-.26.96-.24.43-.2.78 0 1.25.33.8.39 1.65.3 2.53-.16 1.4-.41 2.82-.06 4.24.07.26.16.52.24.77a4.8 4.8 0 0 0-.07 2.83c.02.07.08.15.05.2-.54 1.16.33 2.4-.18 3.58-.06.17 0 .4.06.6.25.82.2 1.62-.08 2.47.37.92.5 1.86.08 2.9a3.36 3.36 0 0 0-.02 1.94c.12.48.11.94.14 1.41.03.51-.03 1.04.28 1.49-.16.38-.32.71-.5 1.1.37.88.32 1.89.6 2.82a.58.58 0 0 1-.19.65c-.36.26-.38.68-.55.98.1.88.46 1.71.36 2.58-.35.25-1.13.37-2.32.37-.16.1-.35.25-.55.39-.81-.22-1.63-.33-2.48-.38-.87-.06-1.7.19-2.53.29a3.7 3.7 0 0 1-1.6-.05 3.89 3.89 0 0 0-2.2-.06c-.2.05-.42.07-.61.03-.5-.08-1.03-.15-1.52-.17-.44-.03-.98.15-1.49.14-.4 0-.82.1-1.2-.15-.13-.08-.35-.04-.51 0-.74.19-1.48.4-2.25.18-.1-.03-.24.08-.35.11-.08-.1-.15-.22-.23-.36-.62.2-1.29.24-1.61.88-1.34-.5-2.7-.3-4.03-.61-.46.16-.98.3-1.45.6-.25-.08-.46-.3-.76-.23-.24.04-.49 0-.78 0-.46-.55-1.01-.66-1.79-.46-.64.17-1.31.24-1.97.43a1.9 1.9 0 0 1-1.56-.17 6.82 6.82 0 0 1-4.04 0c-.34.18-.76.31-1.24.16-.14-.06-.07-.34-.37-.34a.77.77 0 0 0-.23.06c-.74.39-1.48.84-2.34.77-.44-.04-.9-.22-1.37-.23-.43-.02-.85-.01-1.3-.14-.3-.09-.77.13-1.18.14-.58.03-1.14-.06-1.72-.13a9.17 9.17 0 0 0-3.36.04c-.2.05-.4.09-.6.08-.66-.02-1.3-.01-1.81.45-.34-.18-.61-.3-.89-.44h-1.86c-.3.01-.4.38-.77.42-.54-.2-1.17-.42-1.79.1a2.4 2.4 0 0 0-2.51.04c-.3-.08-.58-.25-.82-.5l-2.75.82c-.36-.35-.9-.38-1.3-.23-.53.2-.98-.03-1.46-.04-.49 0-.9.21-1.38.37-.8-.4-1.65-.24-2.5-.06-.74.16-1.46.17-2.2-.03-.16-.05-.37-.12-.49-.06-.7.36-1.5 0-2.2.37a.58.58 0 0 1-.39.04c-1.1-.36-2.2.17-3.3.03-.14-.01-.3.05-.41 0-.85-.43-1.67-.08-2.47.12-.43.1-.9-.06-1.23.32l-.32-.45c-.48.1-.95.56-1.34.35-.59-.31-1.33.58-1.76-.45-.31.51-1.01.01-1.2.64-.54 0-.47-.47-.62-.78-.15-.33-.17-.68.02-.99.35-.6.57-1.22.5-1.92-.02-.23.14-.38.24-.57-.6-.72.07-1.63-.37-2.4.06-.03.15-.07.23-.13.05-.03.08-.1.16-.2-.37-.41-.1-.92-.18-1.4-.07-.45-.24-.85-.1-1.36.12-.43-.09-.94-.11-1.42-.04-.7-.14-1.4.08-2.13a2.6 2.6 0 0 0-.06-1.6c-.16-.46-.18-.93.13-1.37-.68-1.34-.35-2.68 0-4.1-.34-.41-.3-.95-.13-1.48.18-.51.07-.97-.02-1.49-.16-.78-.54-1.64.16-2.42-.35-.38-.16-.91-.43-1.3.05-.23.37-.2.4-.44.17-.38-.43-.77.07-1.2-.3-.3-.63-.74-.55-1.1.1-.47-.14-1.03.3-1.38-.26-.88-.4-1.75-.44-2.62-.06-1.54-.01-3.09-.01-4.71l-.38-.51.41-.83c0-.23-.27-.36-.11-.66.26-.53.15-1.12 0-1.7-.02-.09-.1-.2-.08-.28.2-.76-.03-1.53.03-2.28.01-.32 0-.64.02-.94.03-.32.24-.61-.04-.92.45-.6-.11-1.19-.02-1.75.08-.48-.42-.82-.2-1.28.07-.3.47-.07.57-.37.04-.27-.32-.32-.38-.64.07-.36.3-.76.22-1.21-.04-.26-.3-.37-.39-.59 0-.24-.1-.55.02-.7.71-.97.16-1.78-.25-2.7 0-.63-.05-1.36 0-2.08.06-.66-.13-1.39.05-1.95.23-.7-.13-1.44.3-2.08a2.58 2.58 0 0 1 .06-1.98l-.33-.4a6.74 6.74 0 0 0-.27-3.47c0-.2.26-.18.32-.32-.06-.76-.41-1.47-.34-2.16.16-.3.47-.12.6-.42.03-.33-.1-.73.02-1.1-.16-.2-.3-.36-.4-.51-.06-.57-.06-1.13.38-1.47.06-.56-.08-1.04.05-1.5l-.47-.3c0-.46.08-.98-.02-1.47-.21-1.15.2-2.24.22-3.37 0-.38-.1-.75 0-1.03-.1-.26-.39-.16-.42-.42.22-2 .26-4.01-.23-6.07l-.03.04Z"/></g><defs><clipPath id="a"><path fill="#fff" d="M92.92 27.91h204.17v204.17H92.92z"/></clipPath></defs></svg>