<svg xmlns="http://www.w3.org/2000/svg" fill="none" viewBox="0 0 390 260"><path fill="#fff" d="M0 0h390v260H0z"/><path fill="#FFC629" d="M153.8 35.4c-3.08-1.34-6.44.93-9 3.08-7.06 5.96-14.07 12.39-18.36 20.6-.97 1.86-1.78 4.1-.88 6a7.6 7.6 0 0 0 2.06 2.28 316.84 316.84 0 0 0 48.35 33.17c9.57 5.33 19.62 10.23 30.47 11.81.88.14 1.78.25 2.64-.04 1.45-.46 2.33-1.9 3.1-3.21 2.6-4.47 5.19-8.98 7.17-13.73 1.7-4.04 2.99-8.35 5.63-11.87 1.45-1.94 3.43-4 2.9-6.38-.53-2.47-3.36-3.52-5.8-4.18-8.43-2.31-16.85-4.75-24.86-8.25-16.76-7.3-31.21-18.94-45.35-30.5M284.94 123.72c-5.28 3.36-12.1 5.23-15.07 10.75-2.15 4-1.6 8.91-.33 13.29 4.77-.18 9.55-.33 14.32-.5.38 0 .8 0 1.08.21.4.33.37.95.29 1.45-.9 4.58-4.98 7.75-8.76 10.5 17.1 22.39 41.35 37.9 63.72 55 .77.6 1.59 1.2 2.53 1.3.73.1 1.45-.15 2.16-.4 5.78-2.17 10.18-6.85 14.36-11.38 2.13-2.31 4.29-4.67 5.61-7.53 1.63-3.52 1.85-7.52 2.04-11.4.07-1.13.1-2.37-.52-3.36a5.69 5.69 0 0 0-1.8-1.58c-10.78-6.97-21.76-13.75-31.6-22.02-9.82-8.27-18.58-18.14-23.77-29.87-1.96-4.44-3.4-9.13-5.94-13.26-.75-1.21-1.65-2.44-2.97-2.97-3.28-1.3-6.07 1.78-7.63 4.16-2 3.05-4.7 5.65-7.79 7.6h.07Z"/><path fill="#343333" d="M300.75 114.52c-3.51.27-5.56 2.4-7.58 4.73a31.8 31.8 0 0 1-4.82 4.6c-4.44 3.32-9.02 6.49-13.57 9.66-1.12.77-2.38 1.34-3.5 2.13-.42.3-.92.97-.86 1.38.4 2.84.95 5.68 1.43 8.5.16.92.8 1.12 1.63 1l10.89-1.3a7.78 7.78 0 0 1 1.89-.01c1.63.22 1.98.92 1.65 2.5-.97 4.78-4.22 7.88-7.74 10.83-.44.37-.9.7-1.54 1.2.99 1.33 1.87 2.58 2.83 3.77 4.87 6.02 10.7 11.08 16.55 16.1a522.47 522.47 0 0 0 39.7 30.88c1.47 1.03 2.88 2.18 4.29 3.3.4.33.77.77.99 1.25.48 1.06-.1 1.94-1.24 1.85a4.45 4.45 0 0 1-2-.75c-3.87-2.7-7.8-5.34-11.54-8.22-9.3-7.2-18.63-14.34-27.7-21.82-6.42-5.3-12.53-11-18.58-16.72-2.42-2.29-4.31-5.15-6.51-7.83a58.72 58.72 0 0 1-17.16 5.76c-9.97 1.78-20.02 3.24-30.05 4.71-5.1.75-10.25 1.27-15.37 1.9-4.84.56-9.66 1.16-14.5 1.64-1.45.16-2.7.6-3.6 1.67-5.02 5.81-11.5 9.22-18.68 11.53-.18.06-.35.17-.22.1-.26 2.58-.04 5.09-.84 7.24-1.65 4.54-3.36 9.18-7.5 12.24-.74.54-.99 1.14-.83 2.08.33 1.94-.55 3.57-1.87 4.87-3.3 3.23-7.26 4.55-11.77 3.23-1.56-.46-2.29-.05-3.03 1.19a7.27 7.27 0 0 1-6.12 3.7c-1.38.06-2.77-.32-4.2-.5-1.65 3.75-4.2 4.23-8.8 3.04-12.4-3.19-24.61-7.01-36.36-12.2-2.7-1.21-5.34-2.64-8.14-3.61-5.78-1.98-11.76-1.96-17.8-1.17-8.1 1.08-16.25 2.03-24.34 3.2-4.42.63-8.8 1.62-13.22 2.43-.95.18-1.94.27-2.9.22-.49-.02-.95-.46-1.41-.7.33-.44.6-1.08 1.03-1.25.8-.33 1.7-.4 2.55-.58 6.2-1.27 12.39-2.75 18.63-3.73a408.3 408.3 0 0 1 23.65-3c5.96-.6 11.72.64 17.29 2.88 9.08 3.66 18.17 7.26 27.27 10.85 1.21.48 2.49.75 4.03 1.2-1.12-1.7-2.09-3.12-3-4.59a25.03 25.03 0 0 1-1.73-3.21c-1.4-3.34-.02-5.78 3.54-6.31.8-.11 2.11-.16 2.93-.2-2.7-5.94-1.34-7.7 4.57-8.12-.28-.4-.48-.72-.75-1.05-1.38-1.76-1.32-3.68.33-5.24 2.2-2.07 4.93-2.13 7.7-1.82.38.04.75.15 1.12.22 1.79-4.53 6.95-6.89 13.33-5.06 3.83 1.1 7.2 1.45 10.94-.07 2.68-1.08 5.65-1.43 8.75-2.18-.48-.37-.75-.61-1.03-.77-6.8-3.52-13.6-7.03-20.42-10.51a130.1 130.1 0 0 0-6.88-3.19c-.37-.15-.95-.02-1.39.11-3.4.97-6.8 2.18-10.25 2.9-3.45.7-7 .93-10.84 1.39-.37.95-.86 2.35-1.47 3.74a52.42 52.42 0 0 1-7.53 12.32c-.68.83-1.47 2.15-2.7 1.23-1.3-1-.24-2.16.46-3.04 3.67-4.64 6.03-10 8.38-15.35.07-.18.09-.37.13-.46-3.3-2.84-5.08-6.34-5.23-10.58-.14-3.41 1.76-5.99 3.82-8.45 1.26-1.5 2.49-2.99 3.59-4.33-4.14-.93-8.89-1.54-13.64 0-1.56.5-3.19 1.08-4.48 2.02-6.05 4.45-12.01 9.02-17.98 13.57a32.12 32.12 0 0 1-14.93 6.23c-13.33 2-26.73 2-40.14.94-1.21-.08-2.47-.13-3.63-.44-.64-.17-1.12-.88-1.7-1.34.64-.33 1.28-.94 1.9-.94 2.88.1 5.74.48 8.6.57 5.7.15 11.41.33 17.1.2 7.22-.18 14.42-.82 21.45-2.53a22.5 22.5 0 0 0 8.08-3.96 515.7 515.7 0 0 0 15.17-11.7c7.48-6.08 15.86-7.48 25.04-5.3 2.1.5 4.06.57 6.24-.25 4.18-1.56 8.52-2.5 13-1.07.42.13 1.06-.12 1.48-.38 2.9-1.87 5.78-3.78 8.66-5.72 2.88-1.93 4.86-1.93 7.35.05 1.98 1.56 2.75 4.92 1.89 7.47a24.72 24.72 0 0 1-7.02 10.45c-.33.29-.74.44-1.14.66l.37.47c1.57-.49 3.2-.84 4.71-1.46 4.14-1.67 8.5-1.6 12.83-1.8 2.44-.11 4.86-.05 7.3-.07 4.04-.04 7.96.55 11.7 2.16.37.15 1.03 0 1.38-.26 3.37-2.43 6.63-4.98 10.06-7.33 6.02-4.14 12.14-8.14 18.23-12.19 6.62-4.4 13.16-8.93 19.9-13.1 6.85-4.25 13.95-8.03 22.02-9.5 3.92-.71 7.86-1.06 11.77-.16a29 29 0 0 1 4.82 1.65c1.4.6 1.45 3.03.11 3.91-3.25 2.16-6.53 4.27-9.79 6.4-10.6 6.93-21.2 13.9-31.83 20.8-3.8 2.45-7.72 4.74-11.59 7.12a6 6 0 0 0-1.36 1.03c16.28-1.8 32.6-3.03 48.39-6.9-.42-3.24-.88-6.6-1.3-9.97-.33-2.62.2-3.45 2.6-4.57.97-.44 1.82-1.13 2.7-1.72 5.1-3.41 10.2-6.82 15.29-10.25.6-.4 1.14-.9 1.63-1.43 1.52-1.65 2.97-3.32 4.46-4.97 2-2.2 4.89-2.49 7.48-3.41 1.06-.38 1.74.44 2.18 1.32 1.67 3.3 3.47 6.55 4.95 9.94 5.67 12.91 13.81 23.93 24.9 32.73 11.08 8.8 22.3 17.4 34.46 24.68.33.2.66.42.95.68.66.57 1.12 1.26.57 2.16-.6.94-1.43.9-2.29.42-2.68-1.59-5.47-3.02-8.05-4.8-11.43-7.96-22.8-16.01-33.17-25.45-8.7-7.94-15.41-17.11-19.73-28.09-1.34-3.38-3.19-6.57-4.8-9.85l.07-.07Zm-119.43 41.7c-.42 1.06-.77 1.81-1 2.58-.08.29.07.84.3.95 1.71 1.03 2.48 2.68 3.18 4.42.42 1.03.9 2.04 1.3 3.1 1.76 4.77 3.5 6.27 9.55 5.83 6.6-.5 13.2-1.26 19.77-2.1 9.04-1.14 18.06-2.43 27.08-3.7 9.44-1.35 18.72-3.27 27.63-6.78 3.87-1.52 7.63-3.24 10.77-6.03a19.3 19.3 0 0 0 4.86-6.49c-.72.07-1.2.07-1.69.13-4.13.68-8.25 1.39-12.38 2.07-6.78 1.12-13.53 2.38-20.35 3.32a1043.4 1043.4 0 0 1-26.09 3.3c-5.76.66-11.54 1.12-17.33 1.67-5.08.49-10.16 1.17-15.26 1.41-1.79.09-3.68-.75-5.41-1.39-1.63-.59-3.15-1.47-4.91-2.33l-.02.05Zm9.2.84c1.14 0 1.82.05 2.48 0 4.18-.4 8.36-.77 12.51-1.25 1.87-.22 3.96-.24 5.52-1.1a491.75 491.75 0 0 0 20.06-11.75c5.83-3.6 11.49-7.56 17.25-11.3 6.84-4.42 13.7-8.78 20.56-13.16.69-.44 1.28-.96 2.18-1.65-1-.28-1.7-.66-2.37-.66-3.54 0-7.13-.17-10.63.22-4.88.55-9.43 2.49-13.7 4.87a249.86 249.86 0 0 0-14.98 8.84c-9.08 5.9-18.04 11.94-26.97 18.06-3.96 2.72-7.72 5.76-11.9 8.9l-.02-.02Zm-46.07 9.84c.58.32.8.5 1.04.61 4.57 2.27 9.17 4.51 13.74 6.82 3.22 1.63 6.67 2.97 9.5 5.12 3.13 2.38 5.62 2.05 8.63.1 2.88-1.88 5.54-3.95 7.43-6.21-1.23-2.5-2.72-4.66-3.32-7.02-1.03-4.11-3.91-4.9-7.41-5.08-.49-.02-.97 0-1.45 0-9.57.22-18.59 3.26-28.11 5.66h-.05Zm-21.2-2.75c.42-.05 1.1-.05 1.76-.2 3.74-.88 7.45-1.85 11.2-2.73 3.3-.77 6.2-2.24 8.77-4.42 3.15-2.66 6.16-5.41 8.16-9.09 1.08-1.97 1.92-3.93.75-6.33-1.06-2.18-2.16-2.75-4.25-1.45-3.51 2.17-6.9 4.57-10.53 6.55-4.1 2.22-8.34 4.18-12.6 6.03-2.95 1.28-5.66 2.81-7.26 5.63-1.63 2.86-1.39 5.87 2.7 5.96.35 0 .68.02 1.3.07v-.02Zm21.64 23.31c-2.02-.04-3.87.35-5.34 1.9-1.06 1.11-1.01 1.47.24 2.32 2.13 1.46 4.44 2.75 6.27 4.53 3.94 3.85 8.73 5.92 13.83 7.53.38.13 1.02.06 1.3-.18 1-.86 2-1.74 2.75-2.8 1.45-2.01.35-5.36-1.87-6.41a143.55 143.55 0 0 1-7.78-3.99c-2.95-1.62-6.01-2.77-9.4-2.88v-.02Zm12.28 18.6c-1.45-.47-2.62-.7-3.63-1.22-3.52-1.9-7.02-3.8-9.88-6.69a28.35 28.35 0 0 0-4.02-3.39c-2.78-1.91-5.83-3.01-9.24-2-2.4.7-2.62 1.85-.93 3.6 2.95 3.11 5.81 6.3 8.78 9.38 1.78 1.85 3.76 3.4 6.51 3.56 4.31.22 8.23-1.16 12.4-3.2v-.03ZM144.3 221c1.91.1 2.18-1.16 3.14-2.77.97-1.6.75-2.28-1.1-2.46-1.6-.16-3.2-.24-4.81-.38-3.87-.28-6.75-2.72-8-6.4a38.07 38.07 0 0 0-2.94-6.64c-.43-.79-1.9-1.5-4.7-1.58-1.34-.13-2.05.53-1.78 1.87.1.53.3 1.03.55 1.5 1.36 2.74 2.81 5.43 4.09 8.22.6 1.32 1.16 2.55 2.48 3.28 1.7.94 3.35 2.02 5.1 2.81 2.2.97 5.02 2.95 7.97 2.55Zm-7.3.82c-.14-.16-.16-.2-.2-.22-.5-.31-1-.62-1.52-.9-4.2-2.36-8.14-5.04-10.14-9.68-.88-2.03-2.57-2.4-4.38-2.49-2.5-.13-3.54 1.39-2.26 3.52 2.1 3.48 3.94 7.24 7.8 9.3 2.62 1.41 5.24 2.58 8.28 2.47 1.34-.04 2.22-.6 2.37-2.05l.05.05ZM192.56 176c-1.63-.44-3.17-.86-4.7-1.2-.25-.08-.67.1-.85.3-1.16 1.25-2.28 2.55-3.43 3.83.46.77 1 1.62 1.56 2.61 2.8-1.38 5.4-3.01 7.4-5.54h.02Zm-40.76 39.46c4.66 2.6 12.65-.6 12.25-4.57l-12.25 4.57Zm20.83-25.76-3.08.84 2.8 4.2c.08 0 .17-.04.26-.04v-5h.02ZM207.56 114.83c-4-.99-8.07-1.8-12.03-3-9.48-2.83-18.02-7.67-26.38-12.81-7.54-4.65-14.8-9.8-22.15-14.74-3.36-2.27-6.77-4.47-9.94-6.97-3.98-3.15-7.72-6.56-11.59-9.84-.88-.74-1.19-1.65-.48-2.55.77-.97 1.71-.42 2.44.2 3.23 2.66 6.29 5.59 9.68 8a661.71 661.71 0 0 0 19.7 13.4c11.6 7.7 23.52 14.85 36.4 20.2 4.6 1.9 9.58 2.94 14.4 4.4.83.23 1.33 0 1.75-.78 1.76-3.34 3.52-6.7 5.44-9.98.92-1.59 2.22-2.95 3.23-4.49.5-.77 1.03-1.7 1.03-2.55-.02-2.42.73-4.49 2.16-6.38 1.2-1.58 2.53-3.12 3.54-4.84.8-1.36 1.23-2.95 1.72-4.46.06-.22-.51-.86-.88-1-2.53-.85-5.1-1.64-7.66-2.41-11.4-3.4-22.3-7.9-32.55-14.02-6.97-4.13-13.95-8.27-20.22-13.41-3.87-3.2-7.52-6.67-11.21-10.05-.77-.7-1.85-1.68-.9-2.73 1.05-1.21 2.04-.16 2.98.6 8.39 6.46 16.7 13 25.24 19.24 2.88 2.11 6.22 3.63 9.52 5.12a797.17 797.17 0 0 0 24 10.39c3.14 1.3 6.53 1.97 9.76 3.05a19 19 0 0 1 3.96 1.8c2.05 1.28 2.75 3.28 1.72 5.46-.93 1.94-2.29 3.7-3.54 5.48-1.2 1.71-2.55 3.32-3.72 5.06-.35.5-.4 1.3-.4 1.95 0 2.89-.83 5.33-3.14 7.24-.86.7-1.43 1.83-1.98 2.84-1.92 3.43-3.74 6.93-5.68 10.36-.75 1.32-2.28 1.96-4.22 2.2v.02ZM255.69 67.52c-.95-3.98-.86-8-.29-12.03.04-.38.22-.82.48-1.04.42-.33 1.04-.79 1.46-.68.4.09.79.81.88 1.3.15 1.01.1 2.04.1 3.06 0 2.68.05 5.34-.06 8.02-.04 1.13-.53 2.86-.75 3.96-.83 1.06-1.63-1.84-1.8-2.6h-.02ZM273.02 71.52c0-.77.57-1.45 1.05-2 1.85-2.13 3.76-4.2 5.7-6.27.35-.4.8-.84 1.25-.97.53-.13 1.35-.13 1.7.2.33.3.28 1.1.28 1.67 0 .24-.24.53-.44.75-1.73 1.98-3.43 4-5.23 5.9a9.42 9.42 0 0 1-2.62 1.8c-.86.44-1.54.17-1.67-1.08h-.02ZM289.47 85.84c-.6-.09-1.54-.33-1.65-.95-.17-.63.53-1.1.95-1.3 2.94-1.42 6.18-1.6 9.37-1.67.86 0 1.78.49 1.58 1.48-.1.55-.9 1.25-1.5 1.38-2.17.47-4.4.69-6.62 1.02 0-.07-1.47.15-2.15.04h.02Z"/><path fill="#343333" d="M194.01 167.93c-1.2 0-2.29-1.03-2.26-2.2.02-1.14 1.07-2.16 2.28-2.18 1.28-.04 2.49 1.12 2.44 2.38-.02 1.03-1.23 2-2.48 2h.02Z"/></svg>