<svg xmlns="http://www.w3.org/2000/svg" fill="none" viewBox="0 0 390 260"><path fill="#fff" d="M0 0h390v260H0z"/><path fill="#fff" d="M86.82 35.2h195.74v195.74H86.82z"/><path fill="#FFF4BC" d="M236.07 111.92c.47.08.77-.26.6-.68-.17-.43-.6-.47-1.06-.3-.13.51 0 .9.46.98Z"/><path fill="#FFF4BC" d="M235.6 110.94v-.13h-.12v.17h.13v-.04ZM148.99 99.4a7.11 7.11 0 0 0-3.1.77 331.74 331.74 0 0 1-28.13 10.14c-1.01.3-2.07.55-3.1.88-.76.26-1.48.6-2.24.9-.68.25-1.61 1.48-1.32 1.7.43.29.98.42 1.45.63 1.35 0 2.67-.21 3.98-.6 5.14-1.6 10.31-3.18 15.4-4.96 4.07-1.44 8.02-3.14 12-4.79 1.24-.5 2.47-1.1 3.66-1.74.72-.38 1.4-.84 1.99-1.35.47-.43.5-.94.17-1.28a1.07 1.07 0 0 0-.72-.25l-.04-.04ZM120.6 104.58c7.73-2.5 15.4-5.17 22.87-8.4a12.92 12.92 0 0 0 3.48-2.03c.13-.13.21-.47.17-.55-.17-.21-.43-.43-.68-.43-2.25-.08-4.07 1.36-6.23 1.74a438.19 438.19 0 0 1-30 10.26c-.5.17-1.02.39-1.48.68-.51.34-.8.8-.64 1.15.09.17.47.25.94.46.84-.08 1.95-.04 2.97-.34 2.88-.8 5.72-1.7 8.56-2.58l.05.04ZM215.25 129.81c.46.25 1.01.55 1.48.5a1.7 1.7 0 0 0 1.27-.75c.77-1.49.72-3.1.68-5.26-.13-1.32-.3-3.18-.5-5.05a4.26 4.26 0 0 0-2.17-3.18c-.9-.55-1.82-1.1-2.76-1.61-.46-.25-.97-.38-1.48-.6a1.75 1.75 0 0 0-2.38 1.28c-.55 2.67-.25 5.34.6 7.89a11.88 11.88 0 0 0 5.3 6.78h-.04ZM265.94 112.17c.68 0 1.02-.3 1.1-.8.04-.56-.04-1.1-.5-1.49-1.4-1.23-2.8-2.54-4.67-3.1-.6-.16-1.06.09-1.36.56a3.7 3.7 0 0 0-.55 2.29 2.32 2.32 0 0 0 1.95 2.2c.8.13 1.61.21 2.08.3h1.95v.04ZM174.14 52.8c-.25 0-.6 0-.76.18-.38.3-.8.63-1.06 1.06-.34.55-.09.97.38 1.35 1.65 1.53 3.65 2.08 5.9 2.17.5 0 1.01-.05 1.56-.09.26 0 .51-.08.77-.17.63-.17.93-.55.76-1.1-.04-.26-.08-.55-.25-.72a9.43 9.43 0 0 0-7.26-2.63l-.04-.04Z"/><path fill="#FFF4BC" d="M235.48 110.81c.17-.42.04-.76-.42-.93-.13 0-.51.3-.47.38.13.51.47.64.9.51v.04ZM226.49 131.6c4.16-2.55 6.28-6.41 7.25-11.03.04-.26 0-.55 0-.8.04-.98-.97-2.05-2-2.13-2.75-.21-5.3.5-7.75 1.61-.51.21-.81.64-.94 1.19-.5 1.87-.04 3.73-.17 6.19.09.98.17 2.59.3 4.16.04.63.97 1.31 1.78 1.14.5-.09 1.1-.17 1.53-.42v.08ZM228.48 204.48c-.21-.13-.47-.25-.72-.38s-.5-.17-.76-.3c-.51-.2-2.17-.12-2.3.21-.2.51-.42 1.02-.42 1.53a62.6 62.6 0 0 0 1.4 11.24c.13.63 1.06 1.48 1.66 1.53 1.6.12 3.22.2 3.39.2h3.9c.55 0 1.06-.08 1.61-.12 1.06-.08 1.96-1.23 1.66-2.2-1.61-5.14-4.88-8.95-9.42-11.75v.04ZM215.54 203.17a5.51 5.51 0 0 0-4.37 1.7 8.01 8.01 0 0 0-2.16 5.13c-.08.84.17 1.7.93 2.12a66.38 66.38 0 0 0 8.53 4.62c.5.2 1.06 0 1.44-.34.13-.22.43-.47.38-.68-.42-3.22-.84-6.45-1.31-9.67-.21-1.44-1.82-2.84-3.48-2.93l.04.05ZM270.05 206.1c-.2-.56-1.52-.81-2.07-.35-2.47 2-3.53 4.67-3.95 7.72-.08.72.5 1.49 1.36 1.7 1.1.25 2.16 0 3.18-.26.8-.2 1.4-.84 1.61-1.65.3-1.02.47-2.12.64-3.1l-.51-3.3c-.05-.26-.17-.51-.26-.77ZM228.44 112.85c.63-.3.85-1.48.3-2.04a15.8 15.8 0 0 0-5.3-3.64 7.47 7.47 0 0 0-3.95-.64c-1.32.21-2.67.51-3.95.9-.42.12-.8.63-1.1 1-.09.1.17.52.34.69 2 1.86 4.37 3.13 6.62 4.62.42.3 1.01.25 1.57.38 1.9-.08 3.73-.47 5.47-1.27ZM270.99 120.14c-.05-.5-.26-1.02-.43-1.52-.17-.56-.55-.9-1.06-1.1a7.19 7.19 0 0 0-3.9-.22c-.8.13-1.44.98-1.36 1.61.55 3.23 2.12 5.94 4.16 8.44.17.21.42.3.64.47.46.3.97.34 1.48 0 .17-.13.34-.38.38-.55.13-1.06.21-2.12.3-2.89-.09-1.6-.13-2.92-.21-4.24ZM119.04 77.32c1.82-.6 3.52-1.36 5.09-2.46a10.76 10.76 0 0 0 4.07-4.92c.38-1.02.09-2.42-.72-2.93a26.13 26.13 0 0 0-7.34-3.35c-.25-.08-.6-.13-.8 0-.47.21-1.15.51-1.24.9a51.53 51.53 0 0 0-1.23 8.35v2.88c0 1.19 1.02 1.86 2.12 1.53h.05ZM130.02 62.1s.51-.1.68-.22c.22-.17.34-.42.51-.64.13-1.65-.17-3.13-1.53-4.32-.42-.38-.84-.64-1.44-.55-1.57.21-3.14.38-4.54 1.27-.17.13-.34.38-.34.6 0 .25.13.54.34.71a14.04 14.04 0 0 0 6.32 3.1v.04ZM117.8 138c-.67-.81-1.48-1.53-2.33-2.21a3.53 3.53 0 0 0-2.25-.68c-.63 0-1.1.25-1.18.9-.17 1.3-.26 2.66-.38 3.64.12 1.95.17 3.56.3 5.17.08.8.42 1.57 1.05 2.08 2.08 1.7 4.2 3.35 6.32 5 .22.17.47.21.73.26.63.12 1.1-.09 1.27-.6.72-2.67.42-5.34-.51-7.93a17.89 17.89 0 0 0-3.1-5.64h.09Z"/><path fill="#FFC629" d="M129.94 115.01c5.13-1.65 10.18-3.73 15.27-5.51a49.88 49.88 0 0 0 8.1-3.69c4.03-2.25 8.06-4.45 12.22-6.4.25-.13.47-.26.72-.43l.64-.5c.93-.6 1.27-1.87.8-2.85a37.85 37.85 0 0 0-7.34-9.66c-.97-.94-1.99-1.83-3.13-2.6-.9-.59-2-.84-3.1-.63-1.36.21-2.63.6-3.86 1.23a83.68 83.68 0 0 1-11.2 4.75c-6.45 2.12-12.73 4.58-19.26 6.4-1.82.51-3.6 1.2-5.39 1.87a75.98 75.98 0 0 1-17.22 4.58c-.5.08-1.02.3-1.57.42-1.06.26-1.78 1.57-1.36 2.5 2.12 4.97 4.5 9.84 7 14.63.51.98 1.53 1.53 2.63 1.74l1.23.22c.64-.09 1.74-.09 2.8-.3 2.63-.55 5.3-1.19 7.9-1.87 4.7-1.23 9.45-2.41 14.08-3.9h.04Zm-21.76-7.97c-.13-.38.13-.85.63-1.15.47-.3.98-.5 1.49-.67a437.97 437.97 0 0 0 29.99-10.27c2.12-.38 3.99-1.82 6.24-1.73.2 0 .5.2.67.42.09.08 0 .42-.17.55-1.01.9-2.24 1.49-3.47 2.04a273.06 273.06 0 0 1-22.87 8.4c-2.84.93-5.68 1.82-8.57 2.58-1.02.3-2.12.25-2.97.34-.5-.26-.89-.3-.93-.47l-.04-.04Zm2.92 6.7c-.33-.21.64-1.44 1.32-1.7.76-.3 1.48-.63 2.25-.89 1.02-.34 2.08-.6 3.1-.89 9.54-2.88 18.87-6.4 28.12-10.13 1.02-.38 2-.8 3.1-.77.25 0 .55.09.72.26.34.34.3.85-.17 1.27-.64.51-1.32.98-2 1.36a40.63 40.63 0 0 1-3.64 1.74c-4 1.6-7.98 3.35-12.01 4.79-5.09 1.78-10.27 3.35-15.4 4.96-1.27.42-2.63.64-3.99.6-.5-.22-1.01-.35-1.44-.64l.04.04Z"/><path fill="#343333" d="M275.86 163.82c-.12 10.05-.25 20.05-.3 30.1 0 5.13.1 10.3.13 15.44 0 1.9-.08 3.77-.2 5.68-.05.8-.26 1.61-.6 2.38-.43 1.01-1.15 1.9-2.25 2.16-3.18.72-6.4 1.27-9.63 1.44-4.07.21-8.06.76-12.09 1.52a105.77 105.77 0 0 1-21.04 1.87c-2.71 0-5.43 0-8.14-.13-.81 0-1.62-.25-2.34-.55a36.02 36.02 0 0 1-3.6-1.82c-3.52-2.08-7.13-3.9-10.78-5.72a326.35 326.35 0 0 1-31.73-18.2c-6.15-3.94-12.26-8.01-18.45-11.91a240.34 240.34 0 0 1-28.13-20.74 954.69 954.69 0 0 0-9.88-8.48c-2.93-2.41-5.9-4.79-8.86-7.16-.68-.55-.94-1.32-1.1-2.12-.18-.8-.3-1.61-.26-2.42.04-2.71.17-5.43.25-8.14.09-2.72.13-5.43.17-8.14 0-.64-.8-1.61-1.44-1.7-.8-.13-1.61-.3-2.42-.34-2.71-.25-4.5-1.86-5.73-4.03-1.48-2.58-2.75-5.25-4.07-7.97a57.37 57.37 0 0 1-4.88-13.78c-.17-.89.22-1.57.73-2.2.16-.22.33-.51.59-.56 6.15-1.18 11.88-3.81 17.9-5.38 2.16-.55 2.97-2.12 3.3-4.11.56-3.48.81-7 .86-10.52 0-5.98.89-11.87 1.19-17.85 0-.55.16-1.06.33-1.57.34-1.06.85-2 1.7-2.71.64-.51 1.27-1.06 2.04-1.36 4.8-1.9 9.71-3.35 14.84-4.16 5.35-.84 10.74-1.35 16.2-1.4 7.6-.04 15.2-.46 22.79-.72 1.1 0 2.16-.08 3.26-.12 3.06-.17 5.94.34 8.66 1.82 1.1.6 1.82.3 2.8-.76.34-.43.63-.9 1.02-1.28a4.71 4.71 0 0 1 4.45-1.4c1.61.34 3.14.81 4.58 1.62 1.19.67 2.38 1.27 3.52 2.03 3.65 2.38 7.43 4.5 11.25 6.53a92.21 92.21 0 0 1 16.12 10.94c.84.68 1.6 1.44 2.37 2.2a7.56 7.56 0 0 1 2.2 5.1c.05 1.06.1 2.16.26 3.22.09.46.43 1.06.8 1.35 2.17 1.66 4.3 3.31 6.54 4.8 6.1 4.02 12.3 7.97 18.41 11.95 3.18 2.08 6.32 4.24 9.46 6.32a41.3 41.3 0 0 1 8.86 8.31c.34.38.6 1.02.56 1.49-.51 4.87.34 9.75-.38 14.58-.09.56-.05 1.1 0 1.62.63 6.48.2 13.01.25 19.5v15.48h-.09Zm-40.25-53c-.21.55-.05 1.01.46 1.1.47.08.77-.26.6-.68-.21-.47-.68-.51-1.19-.26.26-.5.13-.93-.42-1.06-.13 0-.51.3-.47.39.13.55.5.72 1.02.5Zm-29.95 4.49c.08-.55.21-1.06.3-1.61l.12-.8a3.02 3.02 0 0 0-1.7-3.36c-7.46-3.9-14.63-8.23-21.84-12.5a94.76 94.76 0 0 0-3.52-2c-.47-.25-1.02-.38-1.53-.6-1.14-.46-3.01.43-3.3 1.57-.1.26-.13.56-.13.81-.13 2.67-1.49 4.58-3.53 6.15-.84.68-1.73 1.31-2.67 1.82-5.51 2.89-10.94 5.94-16.63 8.52a160.65 160.65 0 0 1-25.15 9.16c-3.95 1.02-7.8 2.2-11.71 3.35-.5.13-.93.51-1.4.77-.55.34-.97 1.52-.68 2.16.21.47.47 1.06.85 1.27.68.38 1.53.55 2.3.85 2.88 1.1 5.04 3.1 6.7 5.68a27.25 27.25 0 0 1 4.02 11.4c.22 1.62.13 3.27-.17 4.84-.17.8-.46 1.57-.59 2.38-.13 1.1.08 2.16.97 2.97 4.84 4.32 9.8 8.56 15.1 12.3 5.1 3.6 10.27 7.07 15.53 10.42 6.4 4.07 12.77 8.19 19.1 12.34a279.71 279.71 0 0 0 23.7 14.12c.73.38 1.49.68 2.21 1.02.68.3 1.87 0 2.16-.5.64-1.2 1.15-2.47 1.87-3.61 2-3.14 4.75-5.13 8.61-5.3.55 0 1.06-.13 1.61-.17.85 0 1.83-1.15 1.83-2.3V164.8c0-1.1 0-2.16-.09-3.26-.38-6.79-.38-13.53-.17-20.31 0-1.36 0-2.72-.08-4.07 0-.47-.34-1.1-.72-1.36-1.53-1.1-3.18-2.08-4.71-3.18a14.48 14.48 0 0 1-5.1-6.2c-1.48-3.55-2.45-7.16-1.52-11.06l-.04-.04Zm64.14 51.86c.04-10.01.13-20.02 1.1-29.98 0-.26-.04-.55-.04-.8a1.9 1.9 0 0 0-.64-1.45c-.6-.55-1.19-1.06-1.86-1.53a19.34 19.34 0 0 1-6.83-8.86c-.72-1.74-1.23-3.56-1.91-5.34-.51-1.36-1.66-2.12-3.01-2.46a13.44 13.44 0 0 0-3.23-.34c-4.62-.13-9.16.47-13.74 1.02-.6.08-1.61 1.02-1.7 1.57-.25 1.86-.34 3.77-.72 5.64a18.25 18.25 0 0 1-5.6 9.67 10.32 10.32 0 0 1-5 2.58c-.81.17-1.58.3-2.38.47-.64.13-1.44 1.06-1.53 1.65a94.58 94.58 0 0 0-.42 12.98c.21 7.84.38 15.69.55 23.53l.38 18.66c0 .55.04 1.06.09 1.6.08 1.28.8 2.6 2.24 2.98 8.53 2.33 13.92 7.93 16.55 16.28l.5 1.53c.3.84 1.62 1.6 2.64 1.52.8-.04 1.6-.04 2.41-.17 2.93-.46 5.9-.93 8.79-1.48.76-.13 1.52-.55 1.78-1.44.46-1.83.89-3.7 1.44-5.47a13.42 13.42 0 0 1 6.4-8.02c.94-.55 2-.89 2.93-1.4.77-.42 1.02-1.18 1.15-1.99a23 23 0 0 0 .13-2.42c-.17-9.45-.34-18.9-.56-28.4l.09-.13Zm-164.63-46.1c.63-.08 1.73-.08 2.8-.3 2.63-.54 5.3-1.18 7.89-1.86 4.7-1.23 9.45-2.41 14.08-3.9 5.13-1.65 10.18-3.73 15.27-5.51a49.88 49.88 0 0 0 8.1-3.69c4.03-2.25 8.06-4.45 12.22-6.4a6.3 6.3 0 0 0 1.36-.94c.93-.59 1.27-1.86.8-2.84a37.85 37.85 0 0 0-7.34-9.66c-.97-.94-1.99-1.83-3.13-2.6-.9-.58-2-.84-3.1-.63-1.36.21-2.63.6-3.86 1.23a83.68 83.68 0 0 1-11.2 4.75c-6.45 2.12-12.73 4.58-19.26 6.4-1.82.51-3.6 1.2-5.39 1.87a75.99 75.99 0 0 1-17.22 4.58c-.5.08-1.02.3-1.57.42-1.06.26-1.78 1.57-1.36 2.5 2.12 4.97 4.5 9.84 7 14.64.51.97 1.53 1.52 2.63 1.73l1.23.22h.05Zm116.7-19.97c-.3-.42-.56-.93-.94-1.27a90.98 90.98 0 0 0-4.58-3.35c-7.47-4.88-14.93-9.7-22.4-14.59-.47-.3-.97-.5-1.44-.76-1.06-.6-2.08-.55-2.93.21a73.34 73.34 0 0 0-6.36 6.24c-1.83 1.99-1.06 3.13.25 3.94 7.38 4.45 14.77 8.99 22.49 12.9 2.24 1.6 4.4 1.43 6.66-.18 1.78-1.27 4.03-1.52 6.19-1.7 1.02-.08 2.16 0 3.01-.67.13-.09 0-.51 0-.8l.04.03Zm-.69-13.95c-.04-3.1.26-5.26-.2-7.42-.13-.55-.3-1.06-.77-1.4-.85-.68-1.61-1.44-2.5-2.03a236.65 236.65 0 0 0-24.56-14.38c-.26-.12-.51-.12-.77-.2-.6-.22-1.78.41-1.95 1.05-.55 2.16-.55 4.24.76 6.23a10.2 10.2 0 0 1 1.57 4.58c.17 1.78 1.23 2.89 2.68 3.82 7.04 4.62 14 9.29 21.04 13.9.68.43 1.4.81 2.12 1.2.2.12.5.2.76.2.6-.03 1.19-.33 1.27-.76.26-1.86.43-3.73.56-4.7v-.09ZM144.4 54.42a22.6 22.6 0 0 0-8.74 1.14c-.38.13-.84.85-.8 1.23.3 2.38.68 4.8 1.14 7.17.22 1.1.77 2.03 1.74 2.58 4.97 2.72 9.93 5.43 14.9 8.1.46.26 1.01.39 1.48.6.8.34 1.61.25 2.37 0a10.3 10.3 0 0 0 2.21-.98c1.57-1.06 3.01-2.25 4.58-3.3 1.1-.77 2.3-1.4 3.48-2.04 1.44-.85 1.57-2.12.3-2.93l-16.42-10.3c-.21-.13-.47-.25-.72-.38-.98-.51-2-.8-3.1-.85h-2.42v-.04Zm106.95 56.82s1.18 0 2.5-.26a1.9 1.9 0 0 0 1.23-.89 15.04 15.04 0 0 0 1.57-6.19c0-.47-.34-1.02-.68-1.4-1.48-1.6-3.44-2.63-5.22-3.81-6.06-4.03-12.13-8.06-18.2-12.05-.84-.55-2.37.05-2.63 1.02-.12.51-.38 1.02-.42 1.53-.25 2.97-.55 5.9-.72 8.86-.04 1.1.5 2.08 1.48 2.71.9.6 1.78 1.2 2.68 1.83 3.56 2.46 7.12 4.87 10.64 7.33a7.18 7.18 0 0 0 3.78 1.27c.8.05 1.61 0 3.94 0l.05.05ZM134.22 70.79c-.5.16-1.06.2-1.48.5-1.4.94-1.83 2.63-2.8 3.9-2.89 3.86-6.45 6.45-11.54 6.32-1.15 0-1.87.77-2.04 2.04-.2 1.31-.3 2.67-.46 3.98-.09.98 1.14 2.17 2.03 2 1.06-.26 2.13-.43 3.14-.77 5.9-1.95 11.75-3.9 17.6-5.89 1.53-.5 3.02-1.1 4.55-1.74.97-.42 1.95-.93 2.92-1.36.56-.25.8-.67.85-1.23 0-.55-.13-1.06-.64-1.4a117.32 117.32 0 0 0-11.32-6.19c-.25-.12-.51-.12-.8-.16Zm50.9 7.5c.3-.6.1-1.02-.37-1.44-2-1.87-4.54-2.88-6.8-4.37-1.73-1.14-3.55-1.1-5.42-.47-2.3.81-4.5 1.87-6.5 3.27-.88.64-1.69 1.36-2.5 2.04-1.18.97-.97 2.37.51 3.22a741.6 741.6 0 0 0 9.93 5.51 3.1 3.1 0 0 0 3.1-.13 26.07 26.07 0 0 0 7.84-6.9c.18-.22.18-.52.26-.77l-.04.04Zm45.65 140.27h3.9c.56 0 1.07-.09 1.62-.13 1.06-.08 1.95-1.23 1.65-2.2-1.61-5.13-4.88-8.95-9.42-11.75-.2-.13-.46-.25-.72-.38-.25-.13-.5-.17-.76-.3-.51-.2-2.16-.12-2.3.21-.2.51-.42 1.02-.42 1.53a62.6 62.6 0 0 0 1.4 11.24c.13.63 1.06 1.48 1.66 1.53 1.61.12 3.22.2 3.4.2v.05Zm-7.85-91.89c.09.98.17 2.59.3 4.16.04.63.98 1.31 1.78 1.14.51-.08 1.1-.17 1.53-.42 4.16-2.55 6.28-6.4 7.25-11.03.05-.25 0-.55 0-.8.05-.98-.97-2.04-1.99-2.12-2.76-.21-5.3.5-7.76 1.6-.51.22-.8.64-.94 1.2-.5 1.86-.04 3.73-.17 6.19v.08Zm-4.24-2.37c-.13-1.32-.3-3.18-.5-5.05a4.26 4.26 0 0 0-2.17-3.18 57.8 57.8 0 0 0-2.76-1.61c-.46-.25-.97-.38-1.48-.6a1.75 1.75 0 0 0-2.38 1.28c-.55 2.67-.25 5.34.6 7.89a11.88 11.88 0 0 0 5.3 6.78c.47.25 1.02.55 1.48.5.47 0 1.06-.37 1.28-.75.76-1.49.72-3.1.67-5.26h-.04Zm-56-70.73c-.93.17-2.07.04-3 .64-.17.08-.26.38-.26.59 0 .25 0 .55.17.72 1.02 1.31 2.5 2 3.86 2.8 3.9 2.29 7.9 4.54 11.84 6.78.42.26 1.06.3 1.57.3 2.12 0 4.28-.13 6.36-.72.55-.17.97-.51 1.14-1.02.17-.5.39-1.02.43-1.53.13-1.18-.76-2.07-1.83-1.95-1.06.13-2.12.34-3.18.43a12.6 12.6 0 0 1-9.71-2.93c-1.23-1.02-2.33-2.2-3.48-3.3-.64-.6-1.4-.73-2.2-.81-.51-.04-1.07 0-1.7 0Zm-51.02 86.08c.12 1.95.17 3.56.3 5.17.08.8.42 1.57 1.05 2.08 2.08 1.7 4.2 3.35 6.32 5 .22.17.47.21.73.26.63.12 1.1-.09 1.27-.6.72-2.67.42-5.34-.51-7.93a17.88 17.88 0 0 0-3.1-5.64c-.68-.8-1.48-1.52-2.33-2.2a3.53 3.53 0 0 0-2.25-.68c-.64 0-1.1.25-1.19.9-.17 1.3-.25 2.66-.38 3.64h.09Zm108.3 76.83c.12-.21.42-.47.38-.68-.43-3.22-.85-6.44-1.32-9.67-.21-1.44-1.82-2.84-3.48-2.92a5.51 5.51 0 0 0-4.37 1.7 8.01 8.01 0 0 0-2.16 5.13c-.08.84.17 1.7.93 2.12a66.4 66.4 0 0 0 8.53 4.62c.5.21 1.06 0 1.44-.34l.05.04ZM116.92 72.95v2.88c0 1.19 1.01 1.87 2.12 1.53 1.82-.6 3.52-1.36 5.09-2.46a10.76 10.76 0 0 0 4.07-4.92c.38-1.02.08-2.42-.72-2.93a26.12 26.12 0 0 0-7.34-3.35c-.25-.08-.6-.12-.8 0-.47.22-1.15.51-1.24.9a51.62 51.62 0 0 0-1.23 8.35h.05Zm106.05 41.17c1.9-.08 3.73-.47 5.47-1.27.63-.3.85-1.48.3-2.04a15.81 15.81 0 0 0-5.3-3.64 7.48 7.48 0 0 0-3.95-.64c-1.32.21-2.68.51-3.95.9-.42.12-.8.63-1.1 1-.09.1.17.52.34.69 2 1.86 4.37 3.13 6.62 4.62.42.25 1.01.25 1.57.38Zm48.27 10.3c-.08-1.6-.13-2.92-.21-4.23-.04-.51-.26-1.02-.43-1.53a1.71 1.71 0 0 0-1.06-1.1 7.19 7.19 0 0 0-3.9-.22c-.8.13-1.44.98-1.36 1.61.56 3.23 2.13 5.94 4.16 8.44.17.22.43.3.64.47.46.3.97.34 1.48 0 .17-.13.34-.38.38-.55.13-1.06.22-2.12.3-2.89Zm-.42 85.74-.51-3.3c-.05-.26-.17-.51-.26-.77-.2-.55-1.52-.8-2.08-.34-2.46 2-3.52 4.67-3.94 7.72-.09.72.5 1.49 1.36 1.7 1.1.25 2.16 0 3.18-.26.8-.2 1.4-.84 1.61-1.65.3-1.02.47-2.12.64-3.1ZM178.6 57.51c.5 0 1.01-.04 1.56-.08.26 0 .51-.09.77-.17.63-.17.93-.55.76-1.1-.04-.26-.08-.56-.25-.72a9.44 9.44 0 0 0-7.26-2.63c-.25 0-.6 0-.76.17-.38.3-.8.63-1.06 1.06-.34.55-.09.97.38 1.35 1.66 1.53 3.65 2.08 5.9 2.17l-.04-.05Zm85.43 54.66h1.95c.68 0 1.02-.3 1.1-.8.05-.56-.04-1.1-.5-1.49-1.4-1.23-2.8-2.54-4.67-3.1-.6-.16-1.06.09-1.36.56a3.7 3.7 0 0 0-.55 2.29 2.32 2.32 0 0 0 1.95 2.2c.8.13 1.61.21 2.08.3v.04ZM131.17 61.24c.13-1.65-.17-3.13-1.53-4.32-.42-.38-.85-.64-1.44-.55-1.57.21-3.14.38-4.54 1.27-.17.13-.34.38-.34.6 0 .25.13.55.34.71a14.05 14.05 0 0 0 6.32 3.1c.21.04.51-.08.68-.21.21-.17.34-.43.5-.64v.04Z"/><path fill="#343333" d="M112.55 114.38c-.51-.22-1.02-.34-1.45-.64-.33-.21.64-1.44 1.32-1.7.76-.3 1.48-.63 2.25-.89 1.02-.34 2.08-.6 3.1-.89 9.54-2.88 18.87-6.4 28.12-10.13 1.02-.38 2-.8 3.1-.77.25 0 .55.09.72.26.34.34.3.85-.17 1.27-.64.51-1.32.98-2 1.36a41.05 41.05 0 0 1-3.64 1.74c-4 1.6-7.98 3.35-12.01 4.79-5.09 1.78-10.27 3.35-15.4 4.96-1.27.42-2.63.64-3.99.6l.05.03ZM109.11 107.55c-.5-.26-.89-.3-.93-.47-.13-.38.13-.85.63-1.14.47-.3.98-.51 1.49-.68A437.98 437.98 0 0 0 140.29 95c2.12-.38 3.99-1.83 6.24-1.74.2 0 .5.21.67.42.09.09 0 .43-.17.55a13.61 13.61 0 0 1-3.47 2.04 273.06 273.06 0 0 1-22.87 8.4c-2.84.93-5.68 1.82-8.57 2.58-1.02.3-2.12.26-2.97.34l-.04-.04Z"/></svg>