<svg xmlns="http://www.w3.org/2000/svg" fill="none" viewBox="0 0 390 260"><g clip-path="url(#a)"><path fill="#fff" d="M0 0h390v260H0z"/><path fill="#FFF4BC" d="M283.01 119.14c-.53-1.71-1-3.45-1.46-5.16-.37-1.37-1-2.61-1.8-3.73a127.26 127.26 0 0 0-6.9-8.98c-2.83-3.35-5.84-6.5-9.44-9.04-.81-.56-1.59-1.21-2.37-1.83a53.83 53.83 0 0 0-10.12-6.25 156.12 156.12 0 0 0-11.5-4.94c-4.63-1.8-9.32-3.38-14.26-4.22-4.7-.81-9.38-1.65-14.14-2.18-6.74-.74-13.48-.71-20.25-.62-1 0-2 .03-2.99.19-3.54.56-7.08.9-10.59 1.58-5.47 1.06-10.84 2.4-16.31 3.45-2.36.44-4.6 1.21-6.77 2.2-3.45 1.53-6.9 3.05-10.32 4.67a51.75 51.75 0 0 0-5.78 3.1c-7.33 4.79-14.6 9.64-20.35 16.38-.25.3-.56.56-.84.84a15.89 15.89 0 0 0-3.97 5.87c-.35.93-.84 1.8-1.34 2.64-1.9 3.08-3.04 6.46-3.95 9.91-.03.16.07.4.16.56.16.28.5.28.87-.1.68-.7 1.37-1.42 1.96-2.2a79.1 79.1 0 0 1 8.45-9.2c3.76-3.54 7.8-6.77 11.93-9.9a38 38 0 0 1 6.09-3.74 227.49 227.49 0 0 1 23.02-9.78 77.63 77.63 0 0 1 13.86-3.51c5.12-.75 10.25-1.3 15.44-1.15 1.58.03 3.17 0 4.75 0 9.17-.25 18.27.46 27.25 2.33 5.84 1.2 11.59 2.8 17.18 4.84a70.35 70.35 0 0 1 8.73 3.86 151.07 151.07 0 0 1 17.34 10.47 59.13 59.13 0 0 1 13.51 13.33 64.03 64.03 0 0 1 4.35 7.11c.22.37.6.47.93.25.13-.1.19-.34.19-.56.16-2.2.06-4.35-.62-6.5h.06Z"/><path fill="#fff" d="M65.27.03h260.66V259.7H65.27z"/><path fill="#FFF4BC" d="M313.37 115c-.7-2.3-1.33-4.62-1.96-6.91a15.4 15.4 0 0 0-2.42-5 171.12 171.12 0 0 0-9.28-12.02c-3.8-4.5-7.85-8.7-12.7-12.1-1.08-.75-2.12-1.63-3.17-2.46a72.41 72.41 0 0 0-13.61-8.36 210.07 210.07 0 0 0-15.46-6.62c-6.22-2.41-12.53-4.53-19.17-5.66-6.3-1.08-12.61-2.2-19-2.9-9.06-1-18.13-.97-27.23-.84-1.34 0-2.67.04-4.01.25-4.76.75-9.52 1.2-14.24 2.12-7.35 1.41-14.58 3.2-21.93 4.62a38.83 38.83 0 0 0-9.1 2.95c-4.64 2.04-9.28 4.08-13.87 6.24a69.68 69.68 0 0 0-7.77 4.16c-9.86 6.41-19.63 12.9-27.36 21.93-.33.42-.75.75-1.12 1.12-2.3 2.3-4.22 4.75-5.35 7.87a21.61 21.61 0 0 1-1.8 3.53c-2.54 4.12-4.09 8.66-5.3 13.28-.04.2.08.54.2.74.22.38.68.38 1.18-.12.92-.96 1.84-1.91 2.63-2.95 3.42-4.45 7.3-8.5 11.36-12.32a196.37 196.37 0 0 1 16.04-13.27 51.13 51.13 0 0 1 8.18-5 306.36 306.36 0 0 1 30.95-13.1c1-.37 2-.7 3.05-1 5.1-1.58 10.28-2.91 15.58-3.7 6.9-1 13.78-1.75 20.76-1.54 2.13.04 4.26 0 6.39 0 12.32-.33 24.56.62 36.63 3.12a163.93 163.93 0 0 1 23.1 6.49c4 1.46 7.93 3.16 11.73 5.16 8.02 4.24 15.91 8.74 23.3 14.02a79.38 79.38 0 0 1 18.17 17.85 85.46 85.46 0 0 1 5.85 9.53c.3.5.8.62 1.25.33.17-.13.25-.46.25-.75.21-2.95.09-5.82-.83-8.7h.08Z"/><path fill="#FFC629" d="M145.8 136.05a4.84 4.84 0 0 0-6.38.62c-1.38 1.42-1.46 3.29-.34 4.95a6 6 0 0 0 2.26 2.08c1.46.75 2.97.92 4.47.09a4.17 4.17 0 0 0 2.17-3.87 4.61 4.61 0 0 0-2.21-3.87h.04Z"/><path fill="#343333" d="M186.23 212.31c-1.25-.08-2.59-.12-3.92-.25-1.88-.12-3.72-.33-5.6-.37-11.28-.33-22.26-2.37-33.2-5.04a222.35 222.35 0 0 1-16.17-4.61 111.4 111.4 0 0 1-25.3-11.86 71.9 71.9 0 0 1-19.72-18.52c-4.97-6.74-8.06-14.35-10.06-22.42a56.95 56.95 0 0 1-1.63-16.6c.08-1.33.08-2.67.33-4 .88-4.7 1.63-9.44 3.05-14.02a60.65 60.65 0 0 1 11.78-21.6 97.63 97.63 0 0 1 10.1-10.23c7.69-6.65 16-12.4 25.06-17.1 6.64-3.45 13.45-6.49 20.6-8.78 6.34-2.04 12.6-4.4 19.12-5.78 3.3-1.2 6.77-1.58 10.15-2.16 4.72-.84 9.53-1.46 14.29-1.75 11.48-.7 22.93-.67 34.37.75 6.9.87 13.74 1.91 20.55 3.37 11.82 2.5 23.05 6.65 33.91 11.81a103.4 103.4 0 0 1 23.85 15.98c3 2.66 5.76 5.53 8.35 8.57a61.55 61.55 0 0 1 12.28 23.97c.21.75.38 1.54.5 2.33.5 3.95.76 7.94.59 11.94a50.17 50.17 0 0 1-2.88 14.02 75.84 75.84 0 0 1-10.03 18.97c-5.13 7.2-11.36 13.4-18.25 18.93-4.55 3.7-9.44 7-14.45 10.03a164.33 164.33 0 0 1-47.95 19.56c-9.1 2.16-18.29 3.74-27.69 3.99-2.38.08-4.8.29-7.18.41-1.59.09-3.22.17-4.89.3l.04.16Zm7.65-144.37c12.32-.33 24.56.62 36.63 3.12a163.92 163.92 0 0 1 23.1 6.49 94.62 94.62 0 0 1 11.73 5.16c8.02 4.24 15.91 8.74 23.3 14.02a79.42 79.42 0 0 1 18.17 17.85 85.76 85.76 0 0 1 5.85 9.53c.3.5.8.62 1.25.33.17-.13.25-.46.25-.75.21-2.95.09-5.82-.83-8.7-.71-2.28-1.34-4.61-1.97-6.9a15.4 15.4 0 0 0-2.42-5 171.12 171.12 0 0 0-9.27-12.02c-3.8-4.5-7.85-8.7-12.7-12.1-1.08-.75-2.13-1.63-3.17-2.46a72.44 72.44 0 0 0-13.62-8.36 210.4 210.4 0 0 0-15.45-6.62c-6.22-2.41-12.53-4.53-19.17-5.66-6.3-1.08-12.61-2.2-19-2.9-9.07-1-18.13-.97-27.24-.84-1.33 0-2.67.04-4 .25-4.77.75-9.53 1.2-14.25 2.12-7.35 1.41-14.57 3.2-21.92 4.62a38.83 38.83 0 0 0-9.1 2.95c-4.65 2.04-9.28 4.08-13.88 6.24a69.52 69.52 0 0 0-7.76 4.16c-9.86 6.41-19.63 12.9-27.36 21.93-.33.42-.75.75-1.13 1.12-2.3 2.3-4.22 4.75-5.34 7.87a21.6 21.6 0 0 1-1.8 3.53c-2.55 4.12-4.1 8.66-5.3 13.28-.05.2.08.54.2.74.21.38.67.38 1.17-.12.92-.96 1.84-1.91 2.64-2.95 3.42-4.45 7.3-8.5 11.36-12.32a196.34 196.34 0 0 1 16.03-13.27 51.14 51.14 0 0 1 8.19-5 306.3 306.3 0 0 1 30.95-13.1c1-.37 2-.7 3.05-1 5.1-1.58 10.27-2.91 15.58-3.7 6.89-1 13.78-1.75 20.75-1.54 2.13.04 4.26 0 6.4 0h.08Zm46.06 82.42c5.56-.29 10.11-1.87 13.08-3.04 6.05-3.37 10.44-7.11 12.36-10.02.25-.38.25-1.09.08-1.5a6.42 6.42 0 0 0-1.25-2.04 43.8 43.8 0 0 0-9.19-7.66 33.98 33.98 0 0 0-14.16-5.11c-1.3-.17-2.67-.17-4-.05-3.22.34-6.31 1.17-9.15 2.67-5.02 2.66-9.15 6.4-12.87 10.6-.16.22-.29.47-.41.67-.55.75-.42 2.2.2 2.96a27.56 27.56 0 0 0 7.94 6.61 92.52 92.52 0 0 0 7.9 3.87 23.1 23.1 0 0 0 9.43 2l.04.04Zm-97.52 3.95c7.35.17 12.62-1.62 18.3-4.74.91-.5 1.8-1.12 2.58-1.83a30.9 30.9 0 0 0 5.18-6c.55-.82.63-2.2.13-2.99a20.67 20.67 0 0 0-7.9-7.61 47.01 47.01 0 0 0-7.26-3.2c-7.4-2.58-14.58-2.5-21.39 1.83-1.12.7-2.3 1.33-3.38 2.12-.88.62-1.75 1.25-2.42 2.04-1.38 1.58-2.88 2.53-4.14 4.24a20.1 20.1 0 0 0-1.63 3.12c0 3.66 4.3 6.4 5.4 7.16 4.3 2.91 12.1 6.2 16.57 5.9l-.04-.04Z"/><path fill="#343333" d="M241.12 140.7a6.07 6.07 0 0 1-5.44-4.98 5.45 5.45 0 0 1 1.72-5.04c2.55-2.29 5.84-1.58 7.68.75.34.42.55.91.84 1.37 1.84 3.29-.46 7.33-4.01 7.87-.25 0-.54.04-.8.08v-.04ZM147.97 139.96c0 1.7-.7 3-2.17 3.87-1.5.87-3 .66-4.47-.09a5.99 5.99 0 0 1-2.25-2.08c-1.13-1.66-1.05-3.57.33-4.95a4.84 4.84 0 0 1 6.4-.62 4.66 4.66 0 0 1 2.2 3.87h-.03Z"/></g><defs><clipPath id="a"><path fill="#fff" d="M0 0h390v260H0z"/></clipPath></defs></svg>